{"glyphs":{"0":{"ha":693,"x_min":0,"x_max":0,"o":"m 111 463 b 111 453 111 456 111 453 l 111 482 l 111 482 l 111 508 b 113 616 111 543 111 579 b 127 720 115 652 120 687 b 164 810 135 753 147 783 b 233 873 181 836 204 857 b 347 896 262 888 300 896 b 460 873 393 896 431 888 b 530 810 489 857 513 836 b 566 720 547 783 559 753 b 580 615 574 687 578 652 b 583 508 582 578 583 543 l 583 438 b 577 308 583 395 581 352 b 549 187 573 264 564 224 b 479 98 534 151 511 121 b 347 64 447 76 403 64 b 161 155 260 64 198 94 b 113 356 132 203 116 270 b 111 463 111 384 111 419 z m 347 -3 b 584 102 459 -2 538 33 b 646 336 621 159 642 236 b 649 508 648 379 649 437 b 646 634 649 549 648 591 b 628 757 644 677 637 718 b 581 862 618 795 602 831 b 492 936 559 892 530 918 b 347 963 454 954 406 963 b 205 937 289 963 242 954 b 116 867 168 920 138 896 b 68 766 94 837 79 803 b 49 647 58 728 52 688 b 45 524 46 606 45 564 l 45 482 l 44 482 l 44 446 l 45 477 l 45 437 b 52 285 45 387 47 336 b 87 142 57 233 68 185 b 178 38 106 99 136 64 b 347 -3 218 12 275 -2 z "},"1":{"ha":345,"x_min":0,"x_max":0,"o":"m 77 667 b 103 679 87 667 96 671 l 292 908 b 300 929 297 915 300 922 b 288 955 300 939 296 947 b 266 963 281 960 273 963 b 241 951 256 963 248 959 l 52 721 b 44 700 47 714 44 707 b 56 674 44 690 48 682 b 77 667 63 669 70 667 z m 268 -3 b 292 7 277 -3 285 1 b 301 31 298 14 301 22 l 301 724 b 292 748 301 733 298 741 b 268 758 285 754 277 758 b 244 748 258 758 250 754 b 235 724 238 741 235 733 l 235 31 b 244 7 235 22 238 14 b 268 -3 250 1 258 -3 z "},"2":{"ha":658,"x_min":0,"x_max":0,"o":"m 579 0 b 602 9 588 0 595 3 b 610 31 608 16 610 22 b 602 53 610 39 608 47 b 579 62 595 59 588 62 l 77 62 b 56 53 68 62 62 59 b 46 31 50 47 46 39 b 56 9 46 22 50 16 b 77 0 62 3 68 0 z m 106 109 b 136 126 118 109 128 115 b 228 246 158 168 189 208 b 353 361 267 285 309 323 b 515 515 413 411 467 463 b 614 740 581 586 614 661 b 559 892 614 800 595 851 b 408 973 523 934 473 960 b 342 979 386 977 364 979 b 161 921 277 979 217 960 b 46 767 109 882 71 831 b 44 755 45 763 44 759 b 65 724 44 741 51 731 b 77 722 68 722 73 722 b 108 743 90 722 100 729 b 198 865 127 793 157 834 b 339 912 239 897 286 912 b 445 893 378 912 414 906 b 519 836 476 880 501 861 b 547 740 538 810 547 778 b 462 554 547 677 518 614 b 313 415 418 508 369 462 b 178 290 266 374 221 333 b 77 157 136 248 102 203 b 73 142 74 152 73 146 b 91 112 73 130 79 119 b 106 109 96 110 101 109 z "},"3":{"ha":694,"x_min":0,"x_max":0,"o":"m 339 -3 b 501 39 396 -3 450 11 b 618 158 552 66 591 106 b 650 296 640 203 650 249 b 611 441 650 347 637 395 b 491 545 585 486 545 520 b 581 621 528 564 558 589 b 614 739 603 653 614 692 b 576 871 614 791 602 835 b 476 952 551 907 517 934 b 339 979 435 970 389 979 b 187 938 284 979 233 966 b 74 825 140 910 103 872 b 69 807 71 819 69 813 b 85 779 69 796 75 787 b 102 774 90 776 96 774 b 130 791 113 774 123 780 b 219 880 153 828 182 857 b 339 912 255 901 295 912 b 443 894 376 912 411 906 b 519 837 475 881 500 862 b 547 739 538 811 547 779 b 476 613 547 683 524 641 b 329 577 435 589 387 577 b 306 568 320 577 312 574 b 296 544 299 561 296 553 b 306 520 296 535 299 527 b 329 510 312 513 320 510 b 473 481 387 510 435 500 b 557 401 510 461 538 435 b 584 296 575 368 584 333 b 558 187 584 259 575 223 b 467 96 537 147 507 117 b 339 64 427 75 384 64 b 198 111 286 64 239 80 b 108 233 157 142 127 183 b 77 255 100 248 90 255 b 65 253 73 255 68 254 b 44 222 51 245 44 235 b 46 210 44 218 45 214 b 161 56 71 146 109 94 b 339 -3 214 17 273 -3 z "},"4":{"ha":695,"x_min":0,"x_max":0,"o":"m 517 -3 b 541 7 526 -3 534 1 b 550 31 547 14 550 22 l 550 223 l 618 223 b 642 233 627 223 635 227 b 651 256 648 239 651 248 b 642 280 651 265 648 273 b 618 290 635 287 627 290 l 550 290 l 550 723 b 541 747 550 732 547 740 b 517 756 534 753 526 756 b 494 747 508 756 500 753 b 484 723 487 740 484 732 l 484 290 l 136 290 l 509 912 b 513 929 512 918 513 923 b 498 958 513 941 508 950 b 481 963 492 962 487 963 b 452 947 469 963 460 958 l 49 274 b 44 257 45 268 44 262 b 54 233 44 248 47 240 b 77 223 60 227 68 223 l 484 223 l 484 31 b 494 7 484 22 487 14 b 517 -3 500 1 508 -3 z "},"5":{"ha":699,"x_min":0,"x_max":0,"o":"m 339 -3 b 462 18 385 -3 426 4 b 555 75 498 32 528 51 b 617 156 581 98 602 125 b 654 292 640 199 652 244 l 655 314 b 586 519 655 390 632 458 b 386 631 539 580 473 617 b 324 635 366 633 345 635 b 165 604 270 635 217 625 b 188 810 180 739 188 807 b 179 832 188 818 185 825 b 155 843 173 839 165 842 b 134 835 146 843 140 840 b 122 813 127 829 123 822 b 92 544 102 636 92 546 b 102 519 92 534 95 526 b 125 510 109 513 116 510 b 144 517 132 510 138 512 b 323 568 196 551 256 568 b 535 476 418 568 489 537 b 589 313 571 428 589 374 l 589 296 b 555 179 586 253 574 214 b 470 96 534 144 506 117 b 339 64 433 75 390 64 b 198 111 286 64 239 80 b 109 233 157 142 127 183 b 77 255 101 248 90 255 b 66 253 73 255 69 254 b 44 221 52 245 44 235 b 46 210 44 218 45 214 b 162 56 71 146 109 94 b 339 -3 214 17 273 -3 z m 552 896 b 576 906 561 896 569 899 b 585 929 582 912 585 920 b 576 954 585 939 582 947 b 552 963 569 960 561 963 l 168 963 b 145 954 159 963 151 960 b 135 929 138 947 135 939 b 145 906 135 920 138 912 b 168 896 151 899 159 896 z "},"6":{"ha":692,"x_min":0,"x_max":0,"o":"m 347 -3 b 564 78 438 -3 510 24 b 629 185 594 110 616 145 b 648 299 642 225 648 263 b 627 439 648 349 641 396 b 389 596 592 544 513 596 b 187 518 301 596 234 570 b 180 496 182 511 180 504 b 191 471 180 488 184 479 b 212 463 198 466 205 463 b 238 475 222 463 231 467 b 390 530 271 511 321 530 l 418 528 b 518 491 461 525 494 512 b 568 408 542 469 558 441 b 582 299 577 374 582 338 b 567 209 582 270 577 240 b 517 125 557 178 541 150 b 347 64 477 85 420 64 b 176 125 274 64 217 85 b 126 210 153 151 136 178 b 111 299 116 240 111 270 b 110 304 111 301 111 303 b 111 310 111 306 111 308 l 111 668 b 178 829 111 731 133 785 b 338 896 222 873 275 896 b 422 886 366 896 393 892 b 496 853 450 880 475 869 b 539 789 517 838 532 816 b 551 771 541 782 545 776 b 572 764 557 766 564 764 l 580 766 b 598 779 587 768 593 772 b 605 799 603 785 605 791 l 604 807 b 509 924 589 857 558 896 b 338 963 463 950 406 963 b 191 923 284 963 235 949 b 84 817 146 897 111 861 b 44 668 58 772 44 722 l 44 299 b 64 186 44 263 51 225 b 130 79 77 146 99 111 b 347 -3 182 24 255 -3 z "},"7":{"ha":652,"x_min":0,"x_max":0,"o":"m 263 -3 b 287 7 272 -3 280 1 b 296 31 293 14 296 22 b 390 486 296 177 328 329 b 488 699 419 558 452 629 b 602 907 524 769 562 839 b 608 929 606 915 608 922 b 600 951 608 938 606 945 b 577 960 593 958 586 960 l 75 960 b 54 951 66 960 60 958 b 44 929 47 945 44 938 b 54 908 44 921 47 914 b 75 899 60 902 66 899 l 521 899 b 376 623 469 808 420 716 b 271 336 332 530 297 435 b 230 31 243 238 230 136 b 240 7 230 22 233 14 b 263 -3 246 1 254 -3 z "},"8":{"ha":693,"x_min":0,"x_max":0,"o":"m 347 -3 b 521 35 418 -3 476 10 b 618 139 565 60 597 95 b 649 293 639 183 649 235 l 648 293 l 648 306 b 645 367 648 323 647 343 b 626 440 642 391 636 415 b 578 511 616 465 600 489 b 490 565 556 533 527 551 b 347 586 452 579 404 586 b 197 627 278 586 229 600 b 151 750 166 654 151 695 b 161 806 151 764 154 783 b 204 869 169 829 183 850 b 347 912 236 898 283 912 b 510 848 425 912 479 890 b 542 750 531 819 542 786 b 539 699 542 737 541 720 b 521 646 537 678 531 661 b 514 626 516 640 514 633 b 527 599 514 616 518 606 b 547 592 533 594 540 592 b 574 605 557 592 566 596 b 598 656 585 621 593 637 b 607 708 603 674 606 691 b 608 750 608 725 608 739 b 604 798 608 763 607 779 b 585 858 600 817 594 837 b 541 917 574 879 560 899 b 465 962 522 935 496 950 b 347 979 433 973 393 979 b 237 963 304 979 267 974 b 161 920 206 951 181 937 b 114 862 140 902 125 883 b 91 801 102 841 95 821 b 84 750 86 781 84 764 b 150 581 84 677 106 621 b 347 519 193 540 259 519 b 461 503 393 519 431 514 b 530 458 490 491 513 476 b 567 401 547 440 559 421 b 581 342 574 380 578 361 b 583 297 582 324 583 309 l 583 293 l 582 293 b 559 172 582 246 574 205 b 485 92 544 137 519 111 b 347 64 450 74 404 64 b 157 142 258 64 195 90 b 111 293 126 182 111 233 l 111 300 b 113 350 111 314 111 331 b 125 407 114 368 118 387 b 157 460 132 426 142 444 b 166 483 163 467 166 474 b 156 506 166 492 163 499 b 133 516 149 513 142 516 b 109 506 124 516 117 513 b 64 435 88 484 73 460 b 47 361 55 410 50 385 b 44 299 45 338 44 317 b 57 194 44 263 48 229 b 195 25 77 116 122 60 b 347 -3 235 7 285 -3 z "},"9":{"ha":692,"x_min":0,"x_max":0,"o":"m 355 -3 b 503 37 409 -3 458 11 b 609 144 547 64 583 100 b 648 292 635 189 648 239 l 648 661 b 629 775 648 697 642 735 b 563 882 616 814 593 850 b 347 963 509 936 437 963 b 129 882 254 963 182 936 b 64 775 98 850 77 815 b 44 661 51 735 44 697 b 66 521 44 611 52 564 b 303 364 100 416 180 364 b 505 442 391 364 458 390 b 513 464 510 449 513 456 b 501 489 513 473 509 481 b 479 497 494 494 487 497 b 454 486 471 497 462 493 b 302 431 422 449 371 431 l 274 432 b 175 470 231 435 199 448 b 125 553 151 491 134 519 b 111 661 115 586 111 623 b 125 752 111 690 115 721 b 176 835 136 783 152 810 b 347 896 216 876 273 896 b 516 835 420 896 476 876 b 567 751 540 810 557 783 b 582 661 577 720 582 690 b 583 656 582 659 582 657 b 582 292 582 652 582 532 b 551 178 582 251 572 213 b 469 96 530 144 503 116 b 355 64 435 75 397 64 b 271 75 328 64 300 68 b 197 108 243 81 218 92 b 153 171 176 123 161 144 b 141 189 151 178 147 184 b 121 196 135 194 128 196 l 113 195 b 94 182 105 193 99 189 b 87 162 90 176 87 170 l 89 153 b 184 37 103 104 134 65 b 355 -3 231 10 288 -3 z "},"\u0000":{"ha":694,"x_min":0,"x_max":0,"o":""},"\u001d":{"ha":694,"x_min":0,"x_max":0,"o":""}," ":{"ha":407,"x_min":0,"x_max":0,"o":""}," ":{"ha":407,"x_min":0,"x_max":0,"o":""},"!":{"ha":155,"x_min":0,"x_max":0,"o":"m 77 -3 b 101 7 86 -3 94 1 b 111 31 107 14 111 22 l 111 142 b 101 165 111 151 107 159 b 77 175 94 172 86 175 b 54 165 68 175 60 172 b 44 142 47 159 44 151 l 44 31 b 54 7 44 22 47 14 b 77 -3 60 1 68 -3 z m 77 273 b 101 282 86 273 94 276 b 111 306 107 288 111 296 l 111 930 b 101 955 111 940 107 948 b 77 964 94 961 86 964 b 54 955 68 964 60 961 b 44 930 47 948 44 940 l 44 306 b 54 282 44 296 47 288 b 77 273 60 276 68 273 z "},"\"":{"ha":307,"x_min":0,"x_max":0,"o":"m 230 654 b 254 664 239 654 247 657 b 263 687 260 670 263 678 l 263 930 b 254 955 263 940 260 948 b 230 964 247 961 239 964 b 207 955 221 964 213 961 b 197 930 200 948 197 940 l 197 687 b 207 664 197 678 200 670 b 230 654 213 657 221 654 z m 77 654 b 101 664 86 654 94 657 b 111 687 107 670 111 678 l 111 930 b 101 955 111 940 107 948 b 77 964 94 961 86 964 b 54 955 68 964 60 961 b 44 930 47 948 44 940 l 44 687 b 54 664 44 678 47 670 b 77 654 60 657 68 654 z "},"#":{"ha":891,"x_min":0,"x_max":0,"o":"m 183 5 b 204 13 191 5 198 7 b 216 33 210 18 214 24 l 322 637 b 323 640 323 638 323 639 b 366 889 351 802 366 885 b 358 911 366 897 363 905 b 333 922 352 918 344 922 b 312 915 326 922 318 920 b 300 895 306 910 302 903 l 262 678 l 116 678 b 93 669 107 678 99 675 b 83 645 86 662 83 654 b 93 621 83 636 86 628 b 116 611 99 614 107 611 l 250 611 l 203 345 l 77 345 b 54 336 68 345 60 342 b 44 312 47 329 44 321 b 54 289 44 303 47 295 b 77 279 60 282 68 279 l 191 279 b 150 38 164 122 151 42 b 157 17 150 30 153 23 b 177 5 162 11 169 7 z m 553 5 b 574 13 562 5 568 7 b 586 33 581 18 584 24 l 629 279 l 773 279 b 797 289 782 279 790 282 b 806 312 803 295 806 303 b 797 336 806 321 803 329 b 773 345 790 342 782 345 l 641 345 l 688 611 l 814 611 b 838 621 823 611 831 614 b 847 645 844 628 847 636 b 838 669 847 654 844 662 b 814 678 831 675 823 678 l 700 678 l 736 888 b 728 911 736 897 734 904 b 703 922 722 918 714 922 b 682 915 695 922 688 920 b 670 895 676 910 672 903 l 632 678 l 427 678 b 404 669 418 678 410 675 b 394 645 397 662 394 654 b 404 621 394 636 397 628 b 427 611 410 614 418 611 l 621 611 l 573 345 l 368 345 b 345 336 359 345 351 342 b 335 312 338 329 335 321 b 345 289 335 303 338 295 b 368 279 351 282 359 279 l 562 279 b 519 38 534 122 520 42 b 528 17 519 30 522 23 b 547 5 532 11 539 7 z "},"$":{"ha":673,"x_min":0,"x_max":0,"o":"m 344 -67 b 362 -60 351 -67 357 -64 b 370 -41 367 -55 370 -49 l 370 38 b 526 88 427 40 479 57 b 621 220 573 119 604 163 b 629 274 626 239 629 257 b 576 408 629 323 611 368 b 419 513 532 455 479 490 b 372 530 403 520 387 526 b 370 532 371 530 370 531 l 370 868 b 488 797 418 858 457 834 b 544 667 518 760 537 716 b 555 646 545 658 549 651 b 576 637 562 640 568 637 b 602 649 588 638 596 642 b 610 671 607 656 610 663 l 610 675 b 532 848 600 742 574 800 b 370 936 489 896 435 925 l 370 1021 b 362 1040 370 1029 367 1035 b 344 1047 357 1044 351 1047 b 326 1040 336 1047 330 1044 b 318 1021 321 1035 318 1029 l 318 938 b 184 893 269 935 224 920 b 97 782 144 867 115 829 b 83 707 87 755 83 730 b 153 566 83 653 106 606 b 318 479 196 529 251 500 l 318 109 b 182 177 266 118 220 141 b 110 311 143 213 119 258 b 98 332 109 319 104 326 b 77 339 92 336 85 339 b 53 328 66 338 58 335 b 44 305 47 321 44 313 l 44 301 b 138 127 56 231 87 174 b 318 41 189 80 250 51 l 318 -41 b 326 -60 318 -49 321 -55 b 344 -67 330 -64 336 -67 z m 370 105 l 370 461 b 454 422 399 452 427 439 b 525 365 482 406 505 387 b 562 274 549 337 562 307 b 557 238 562 262 560 250 b 486 142 545 196 521 164 b 370 105 451 119 412 107 z m 318 549 b 241 585 292 558 267 570 b 176 637 215 599 193 616 b 150 710 159 657 150 682 b 159 760 150 726 153 742 b 222 839 172 793 193 819 b 318 871 251 858 283 869 z "},"%":{"ha":981,"x_min":0,"x_max":0,"o":"m 728 26 b 876 87 785 26 834 46 b 937 235 916 128 937 178 l 937 265 b 876 413 937 323 916 372 b 728 475 834 454 785 475 b 581 413 670 475 621 454 b 519 265 540 372 519 323 l 519 235 b 581 87 519 178 540 128 b 728 26 621 46 670 26 z m 728 87 b 624 131 688 87 653 102 b 581 235 595 160 581 195 l 581 265 b 624 370 581 306 595 340 b 728 413 653 399 688 413 b 832 370 768 413 803 399 b 875 265 861 340 875 306 l 875 235 b 832 131 875 195 861 160 b 728 87 803 102 768 87 z m 253 486 b 400 547 311 486 359 506 b 461 695 441 589 461 637 l 461 725 b 400 873 461 783 441 832 b 253 935 359 914 311 935 b 106 873 195 935 146 914 b 44 725 64 832 44 783 l 44 695 b 106 547 44 637 64 589 b 253 486 146 506 195 486 z m 253 547 b 149 591 213 547 178 562 b 106 695 120 620 106 654 l 106 725 b 149 829 106 766 120 800 b 253 873 178 859 213 873 b 357 829 293 873 328 859 b 400 725 386 800 400 766 l 400 695 b 357 591 400 654 386 620 b 253 547 328 562 293 547 z m 287 1 b 314 18 298 1 307 7 l 722 917 b 725 929 724 921 725 925 b 707 958 725 941 719 950 b 694 960 703 960 699 960 b 667 942 683 960 673 954 l 258 44 b 256 31 256 40 256 36 b 273 3 256 20 262 10 b 287 1 278 1 282 1 z "},"&":{"ha":850,"x_min":0,"x_max":0,"o":"m 359 -3 b 509 30 410 -3 460 8 b 640 128 559 51 602 84 l 749 9 b 774 -2 756 1 764 -2 b 795 6 781 -2 789 1 b 806 31 803 14 806 22 b 798 54 806 39 804 47 l 679 184 b 731 393 713 245 731 315 b 722 418 731 403 728 411 b 698 427 715 424 707 427 b 675 418 689 427 681 424 b 665 393 668 411 665 403 b 631 237 665 334 654 281 l 328 572 b 278 629 311 590 294 609 b 238 694 262 649 248 671 b 222 772 228 718 222 743 b 260 861 222 808 235 838 b 348 896 286 884 315 896 b 437 863 384 896 414 885 b 472 774 460 842 472 812 b 461 724 472 758 469 741 b 434 679 454 707 444 692 b 427 659 429 673 427 666 b 440 632 427 648 431 640 b 460 625 446 627 453 625 b 524 703 481 625 502 651 b 538 774 534 727 538 751 b 484 911 538 831 520 877 b 348 963 447 946 401 963 b 253 939 313 963 282 955 b 182 871 224 922 200 899 b 156 772 165 842 156 809 b 172 682 156 739 161 709 b 210 608 182 655 195 631 b 44 298 100 517 44 413 b 56 211 44 268 48 239 b 174 52 79 141 118 88 b 359 -3 231 16 292 -3 z m 363 64 b 195 118 296 64 240 82 b 132 199 168 140 146 168 b 111 298 118 230 111 263 b 252 556 111 392 158 478 b 595 178 269 537 383 411 b 490 94 566 141 530 113 b 363 64 449 74 407 64 z "},"'":{"ha":155,"x_min":0,"x_max":0,"o":"m 77 654 b 101 664 86 654 94 657 b 111 687 107 670 111 678 l 111 930 b 101 955 111 940 107 948 b 77 964 94 961 86 964 b 54 955 68 964 60 961 b 44 930 47 948 44 940 l 44 687 b 54 664 44 678 47 670 b 77 654 60 657 68 654 z "},"(":{"ha":405,"x_min":0,"x_max":0,"o":"m 328 -133 b 358 -114 340 -133 350 -127 b 361 -100 360 -109 361 -104 b 342 -69 361 -87 355 -77 b 177 121 275 -36 220 27 b 127 283 155 171 138 225 b 111 458 116 340 111 399 b 127 634 111 517 116 576 b 177 795 138 692 155 745 b 342 988 220 890 275 954 b 361 1018 355 996 361 1005 b 357 1032 361 1023 359 1027 b 327 1051 350 1045 340 1051 b 313 1048 322 1051 318 1050 b 117 823 231 1007 165 932 b 62 648 92 768 74 710 b 44 458 50 585 44 522 b 62 269 44 394 50 331 b 117 94 74 207 92 149 b 314 -130 165 -15 231 -90 b 328 -133 319 -132 323 -133 z "},")":{"ha":405,"x_min":0,"x_max":0,"o":"m 77 -133 b 91 -130 82 -133 86 -132 b 289 94 174 -90 239 -15 b 343 269 313 149 331 207 b 361 458 355 330 361 393 b 343 648 361 522 355 585 b 288 823 331 710 313 768 b 92 1048 239 932 174 1007 b 77 1051 87 1050 82 1051 b 47 1032 64 1051 55 1045 b 44 1018 45 1027 44 1023 b 63 988 44 1005 50 996 b 228 795 130 954 185 890 b 278 634 250 745 267 692 b 294 458 289 576 294 517 b 278 283 294 399 289 340 b 228 121 267 225 250 171 b 63 -69 185 27 130 -36 b 44 -100 50 -77 44 -87 b 47 -114 44 -105 45 -109 b 77 -133 55 -127 65 -133 z "},"*":{"ha":400,"x_min":0,"x_max":0,"o":"m 200 640 b 216 648 206 640 212 643 b 223 663 221 652 223 657 l 223 741 l 278 686 b 294 680 283 682 288 680 b 311 687 300 680 306 682 b 317 703 315 692 317 696 b 311 719 317 709 315 714 l 256 774 l 334 774 b 350 781 340 774 345 777 b 356 797 354 786 356 791 b 350 813 356 803 354 808 b 334 820 345 818 340 820 l 256 820 l 311 876 b 317 892 315 880 317 886 b 311 908 317 898 315 903 b 294 915 306 913 300 915 b 278 908 288 915 283 913 l 223 853 l 223 930 b 216 947 223 937 221 942 b 200 954 212 951 206 954 b 184 947 194 954 189 951 b 177 930 180 942 177 937 l 177 853 l 123 908 b 106 915 118 913 113 915 b 91 908 100 915 96 913 b 83 892 86 903 83 898 b 90 876 83 886 85 880 l 144 820 l 67 820 b 52 813 61 820 56 818 b 44 797 47 808 44 803 b 52 781 44 791 47 786 b 67 774 56 777 61 774 l 144 774 l 90 719 b 83 703 85 714 83 709 b 91 687 83 696 86 692 b 106 680 96 682 100 680 b 123 686 113 680 118 682 l 177 741 l 177 663 b 184 648 177 657 180 652 b 200 640 189 643 194 640 z "},"+":{"ha":651,"x_min":0,"x_max":0,"o":"m 326 151 b 348 160 334 151 342 154 b 357 182 354 166 357 173 l 357 391 l 574 391 b 597 401 583 391 591 394 b 607 425 604 407 607 415 b 597 448 607 433 604 441 b 574 458 591 454 583 458 l 357 458 l 357 667 b 348 689 357 675 354 683 b 326 698 342 695 334 698 b 304 689 317 698 310 695 b 295 667 298 683 295 675 l 295 458 l 77 458 b 54 448 68 458 60 454 b 44 425 47 441 44 433 b 54 401 44 415 47 407 b 77 391 60 394 68 391 l 295 391 l 295 182 b 304 160 295 173 298 166 b 326 151 310 154 317 151 z "},",":{"ha":233,"x_min":0,"x_max":0,"o":"m 77 -159 b 109 -137 92 -159 102 -152 l 187 93 b 189 103 188 96 189 100 b 183 123 189 111 186 117 b 155 137 176 132 167 137 b 124 114 141 137 131 130 l 46 -115 b 44 -126 45 -119 44 -123 b 66 -157 44 -140 52 -151 b 77 -159 70 -159 74 -159 z "},"-":{"ha":618,"x_min":0,"x_max":0,"o":"m 541 317 b 564 328 549 317 557 321 b 574 351 570 334 574 342 b 564 374 574 360 570 368 b 541 384 557 380 549 384 l 77 384 b 54 374 68 384 60 380 b 44 351 47 368 44 360 b 54 328 44 342 47 334 b 77 317 60 321 68 317 z "},"­":{"ha":618,"x_min":0,"x_max":0,"o":"m 541 317 b 564 328 549 317 557 321 b 574 351 570 334 574 342 b 564 374 574 360 570 368 b 541 384 557 380 549 384 l 77 384 b 54 374 68 384 60 380 b 44 351 47 368 44 360 b 54 328 44 342 47 334 b 77 317 60 321 68 317 z "},".":{"ha":155,"x_min":0,"x_max":0,"o":"m 77 -31 b 101 -20 87 -31 95 -27 b 111 3 107 -14 111 -6 l 111 104 b 101 127 111 113 107 121 b 77 137 95 134 87 137 b 54 127 68 137 60 134 b 44 104 47 121 44 113 l 44 3 b 54 -20 44 -6 47 -14 b 77 -31 60 -27 68 -31 z "},"/":{"ha":452,"x_min":0,"x_max":0,"o":"m 75 1 b 103 21 87 1 97 7 l 407 920 b 408 929 408 923 408 926 b 387 959 408 942 401 952 b 378 960 384 960 381 960 b 349 939 365 960 355 954 l 45 41 b 44 31 45 37 44 34 b 64 2 44 18 51 8 b 75 1 68 1 71 1 z "},":":{"ha":155,"x_min":0,"x_max":0,"o":"m 77 -31 b 101 -20 86 -31 94 -27 b 111 3 107 -14 111 -6 l 111 104 b 101 127 111 113 107 121 b 77 137 94 134 86 137 b 54 127 68 137 60 134 b 44 104 47 121 44 113 l 44 3 b 54 -20 44 -6 47 -14 b 77 -31 60 -27 68 -31 z m 77 452 b 101 462 86 452 94 455 b 111 486 107 468 111 476 l 111 586 b 101 610 111 595 107 604 b 77 620 94 616 86 620 b 54 610 68 620 60 616 b 44 586 47 604 44 595 l 44 486 b 54 462 44 476 47 468 b 77 452 60 455 68 452 z "},";":{"ha":233,"x_min":0,"x_max":0,"o":"m 77 -159 b 109 -137 92 -159 102 -152 l 187 93 b 189 103 188 96 189 100 b 183 123 189 111 186 117 b 155 137 176 132 167 137 b 124 114 141 137 131 130 l 46 -115 b 44 -126 45 -119 44 -123 b 66 -157 44 -140 52 -151 b 77 -159 70 -159 74 -159 z m 155 452 b 180 462 165 452 173 455 b 189 486 186 468 189 476 l 189 586 b 180 610 189 595 186 604 b 155 620 173 616 165 620 b 132 610 146 620 138 616 b 122 586 125 604 122 595 l 122 486 b 132 462 122 476 125 468 b 155 452 138 455 146 452 z "},"<":{"ha":611,"x_min":0,"x_max":0,"o":"m 533 157 b 564 176 545 157 555 163 b 567 191 566 180 567 186 b 549 220 567 203 561 213 l 140 428 l 549 635 b 567 665 561 643 567 653 b 564 680 567 670 566 675 b 534 698 556 692 546 698 b 519 694 529 698 524 696 l 62 463 b 44 434 50 455 44 446 l 45 428 l 44 422 b 62 393 44 410 50 400 l 519 161 b 533 157 524 159 528 157 z "},"=":{"ha":646,"x_min":0,"x_max":0,"o":"m 568 530 b 592 541 577 530 585 534 b 602 564 598 547 602 555 b 592 588 602 573 598 581 b 568 597 585 594 577 597 l 77 597 b 54 588 68 597 60 594 b 44 564 47 581 44 573 b 54 541 44 555 47 547 b 77 530 60 534 68 530 z m 568 258 b 592 269 577 258 585 262 b 602 292 598 275 602 283 b 592 315 602 300 598 309 b 568 325 585 321 577 325 l 77 325 b 54 315 68 325 60 321 b 44 292 47 309 44 300 b 54 269 44 283 47 275 b 77 258 60 262 68 258 z "},">":{"ha":612,"x_min":0,"x_max":0,"o":"m 78 157 b 92 161 83 157 87 159 l 549 393 b 568 423 562 400 568 410 l 567 428 l 568 433 b 549 463 568 445 562 455 l 92 694 b 77 698 87 696 82 698 b 48 680 66 698 56 692 b 44 665 45 675 44 669 b 62 635 44 652 50 642 l 471 428 l 62 220 b 44 191 50 213 44 203 b 48 176 44 186 45 180 b 78 157 56 163 66 157 z "},"?":{"ha":659,"x_min":0,"x_max":0,"o":"m 302 -3 b 326 7 311 -3 319 1 b 336 31 332 14 336 22 l 336 142 b 326 165 336 151 332 159 b 302 175 319 172 311 175 b 279 165 293 175 285 172 b 269 142 272 159 269 151 l 269 31 b 279 7 269 22 272 14 b 302 -3 285 1 293 -3 z m 302 273 b 326 283 311 273 319 277 b 336 307 332 290 336 298 b 353 380 336 336 341 360 b 397 435 364 401 379 419 b 456 481 416 451 435 467 b 531 542 482 500 507 519 b 591 623 555 564 575 591 b 614 744 606 655 614 695 b 576 874 614 795 602 839 b 475 953 551 909 517 935 b 339 979 433 970 388 979 b 162 921 273 979 214 960 b 46 767 109 882 71 831 b 44 755 45 764 44 760 b 66 724 44 742 52 731 b 77 722 69 722 73 722 b 109 743 91 722 101 729 b 199 865 127 793 157 834 b 339 912 240 897 287 912 b 441 895 375 912 410 906 b 519 840 473 883 499 865 b 548 744 538 814 548 783 b 528 650 548 707 541 675 b 477 584 515 625 498 602 b 410 530 456 565 434 547 b 342 476 387 513 363 496 b 290 407 321 456 303 433 b 269 307 275 380 269 347 b 279 283 269 298 272 290 b 302 273 285 277 293 273 z "},"@":{"ha":1063,"x_min":0,"x_max":0,"o":"m 574 -115 b 842 -52 667 -115 756 -94 b 861 -22 854 -44 861 -34 b 857 -7 861 -17 859 -12 b 827 12 850 5 840 12 b 813 8 823 12 818 10 b 574 -48 733 -29 654 -48 b 399 -17 513 -48 455 -38 b 251 73 344 4 294 34 b 149 216 208 112 174 159 b 111 405 123 272 111 335 b 168 618 111 483 130 553 b 320 770 205 682 256 732 b 531 827 383 808 454 827 b 743 770 609 827 680 808 b 895 618 806 732 857 682 b 952 405 933 553 952 483 b 955 392 952 400 953 396 l 955 231 b 945 190 955 214 951 200 b 892 162 932 172 914 162 b 846 180 875 162 860 168 b 826 231 833 191 826 208 l 826 392 b 828 405 827 396 828 400 b 806 522 828 446 821 486 b 745 617 791 557 771 589 b 649 684 716 647 684 669 b 540 706 613 699 577 706 b 431 684 503 706 467 699 b 336 617 396 669 364 647 b 273 517 308 587 287 554 b 252 405 258 481 252 444 b 273 292 252 366 258 329 b 336 193 287 255 308 222 b 431 125 363 163 395 140 b 540 103 467 111 503 103 b 689 146 591 103 641 117 b 705 174 699 154 705 163 b 699 193 705 180 703 186 b 671 208 692 203 682 208 b 654 203 665 208 660 206 b 540 170 619 180 581 170 b 427 202 498 170 460 180 b 347 288 393 224 367 252 b 318 405 328 324 318 363 b 347 522 318 448 328 486 b 427 608 367 557 393 586 b 540 640 460 629 498 640 b 653 608 582 640 620 629 b 732 522 686 586 713 557 b 762 405 752 486 762 448 b 764 392 762 400 762 396 l 764 231 b 786 155 764 200 772 175 b 840 111 800 135 819 120 b 891 101 857 104 874 101 b 951 116 912 101 932 106 b 998 160 970 126 986 140 b 1016 231 1010 179 1016 203 l 1016 392 b 1019 405 1018 396 1019 400 b 953 651 1019 495 997 577 b 777 828 909 725 850 784 b 531 894 703 872 621 894 b 286 828 441 894 360 872 b 110 651 212 784 154 725 b 44 405 66 577 44 495 b 87 190 44 326 58 254 b 204 26 116 125 155 71 b 374 -78 254 -20 310 -54 b 574 -115 437 -102 505 -115 z "},"[":{"ha":330,"x_min":0,"x_max":0,"o":"m 252 -133 b 276 -123 261 -133 269 -130 b 286 -100 282 -117 286 -109 b 276 -76 286 -90 282 -82 b 252 -66 269 -70 261 -66 l 111 -66 l 111 985 l 252 985 b 276 995 261 985 269 988 b 286 1018 282 1001 286 1009 b 276 1042 286 1027 282 1035 b 252 1051 269 1048 261 1051 l 77 1051 b 54 1042 68 1051 60 1048 b 44 1018 47 1035 44 1027 l 44 -100 b 54 -123 44 -109 47 -117 b 77 -133 60 -130 68 -133 z "},"\\":{"ha":458,"x_min":0,"x_max":0,"o":"m 380 -3 b 391 -1 384 -3 388 -2 b 414 31 407 7 414 17 b 412 41 414 34 414 38 l 109 940 b 78 963 102 956 92 963 b 67 961 75 963 71 962 b 44 930 52 954 44 943 b 46 919 44 926 45 922 l 349 20 b 380 -3 357 5 367 -3 z "},"]":{"ha":330,"x_min":0,"x_max":0,"o":"m 252 -133 b 276 -123 261 -133 269 -130 b 286 -100 282 -117 286 -109 l 286 1018 b 276 1042 286 1027 282 1035 b 252 1051 269 1048 261 1051 l 77 1051 b 54 1042 68 1051 60 1048 b 44 1018 47 1035 44 1027 b 54 995 44 1009 47 1001 b 77 985 60 988 68 985 l 219 985 l 219 -66 l 77 -66 b 54 -76 68 -66 60 -70 b 44 -100 47 -82 44 -90 b 54 -123 44 -109 47 -117 b 77 -133 60 -130 68 -133 z "},"^":{"ha":477,"x_min":0,"x_max":0,"o":"m 400 637 b 418 642 406 637 412 639 b 433 671 428 650 433 659 b 429 688 433 677 432 682 l 267 947 b 239 963 260 958 250 963 b 211 947 229 963 219 958 l 49 688 b 44 671 45 682 44 677 b 60 642 44 659 50 650 b 77 637 66 639 71 637 b 106 653 89 637 98 642 l 239 867 l 372 653 b 400 637 380 642 389 637 z "},"_":{"ha":673,"x_min":0,"x_max":0,"o":"m 598 -113 b 620 -103 606 -113 614 -109 b 629 -81 626 -97 629 -90 b 620 -60 629 -73 626 -66 b 598 -51 614 -54 606 -51 l 75 -51 b 54 -60 66 -51 60 -54 b 44 -81 47 -66 44 -73 b 54 -103 44 -90 47 -97 b 75 -113 60 -109 66 -113 z "},"`":{"ha":307,"x_min":0,"x_max":0,"o":"m 230 766 b 254 777 239 766 247 770 b 263 800 260 784 263 791 b 253 824 263 809 260 817 l 100 970 b 77 979 94 976 86 979 b 54 969 68 979 61 976 b 44 946 47 962 44 954 b 55 922 44 937 47 929 l 207 776 b 230 766 214 770 222 766 z "},"´":{"ha":307,"x_min":0,"x_max":0,"o":"m 77 766 b 100 776 85 766 93 770 l 252 922 b 263 946 260 929 263 937 b 254 969 263 954 260 962 b 230 979 246 976 239 979 b 207 970 221 979 214 976 l 54 824 b 44 800 47 817 44 808 b 53 777 44 791 47 784 b 77 766 60 770 68 766 z "},"A":{"ha":755,"x_min":0,"x_max":0,"o":"m 712 -15 b 723 -14 715 -15 720 -14 b 745 19 737 -6 745 5 b 743 29 745 22 744 26 l 418 950 b 406 966 415 958 411 963 b 387 972 399 970 393 972 b 368 966 380 972 374 970 b 355 949 362 962 357 956 l 19 123 b 10 82 13 109 10 96 b 26 30 10 64 16 46 b 68 -7 36 14 50 1 b 106 -15 81 -12 94 -15 b 159 1 125 -15 142 -9 b 196 43 175 11 187 25 l 283 243 l 475 243 b 498 253 484 243 492 246 b 508 276 505 259 508 267 b 498 300 508 286 505 294 b 475 310 492 307 484 310 l 261 310 b 229 286 246 310 235 302 l 135 70 b 107 52 128 58 119 52 b 95 54 103 52 99 52 b 79 71 87 58 81 64 b 77 82 77 75 77 79 b 80 98 77 87 78 92 l 385 846 l 680 7 b 712 -15 688 -7 698 -15 z "},"B":{"ha":746,"x_min":0,"x_max":0,"o":"m 471 -9 b 588 23 513 -9 553 1 b 671 110 623 45 650 74 b 702 229 692 146 702 186 b 671 348 702 272 692 312 b 588 434 650 384 623 412 b 471 467 553 456 513 467 l 283 467 b 262 475 275 467 268 469 b 254 494 256 481 254 488 b 262 514 254 502 256 508 b 283 522 267 519 275 522 l 449 522 b 562 549 490 522 527 531 b 644 625 596 568 623 593 b 675 734 665 656 675 692 b 644 846 675 775 665 812 b 562 926 623 880 596 907 b 449 956 528 946 490 956 l 94 956 b 85 955 91 956 88 956 b 77 956 83 956 80 956 b 54 947 68 956 60 953 b 44 922 47 940 44 932 l 44 24 b 54 1 44 15 47 7 b 77 -9 60 -6 68 -9 b 101 1 86 -9 94 -6 b 111 24 107 7 111 15 l 111 889 l 449 889 b 562 844 492 889 530 874 b 608 734 593 814 608 777 b 587 658 608 705 601 680 b 528 608 572 636 552 619 b 449 589 504 595 477 589 l 283 589 b 216 562 257 589 235 580 b 187 495 197 541 187 519 b 214 429 187 471 196 449 b 283 399 232 410 255 399 l 471 399 b 588 349 517 399 556 382 b 635 229 620 315 635 275 b 588 109 635 182 620 142 b 471 58 556 75 517 58 l 233 58 b 210 48 224 58 216 54 b 199 24 203 41 199 33 b 210 1 199 15 203 7 b 233 -9 216 -6 224 -9 z "},"C":{"ha":938,"x_min":0,"x_max":0,"o":"m 345 155 b 372 171 355 155 365 161 b 377 189 376 177 377 182 b 361 217 377 200 372 210 b 262 325 320 243 287 279 b 226 473 238 373 226 422 b 260 618 226 524 237 572 b 361 730 283 664 317 701 b 377 758 372 737 377 747 b 372 776 377 764 376 770 b 345 791 365 786 355 791 b 327 787 338 791 332 790 b 203 652 274 753 233 708 b 159 473 174 596 159 536 b 203 295 159 410 174 351 b 327 161 233 239 274 194 b 345 155 333 157 338 155 z m 507 -26 b 725 33 586 -26 659 -6 b 888 191 791 72 846 125 b 894 209 892 197 894 203 b 878 237 894 220 888 230 b 861 242 873 241 867 242 b 833 227 850 242 840 237 b 690 90 795 169 748 123 b 507 41 630 58 569 41 b 357 73 456 41 406 52 b 227 167 309 94 266 125 b 140 311 189 210 159 258 b 111 473 120 363 111 418 b 140 636 111 529 120 583 b 227 780 159 689 189 737 b 353 872 263 819 305 850 b 507 905 401 895 452 905 b 693 855 574 905 636 888 b 833 720 749 822 796 777 b 861 705 840 709 850 705 b 878 709 867 705 873 706 b 894 738 888 717 894 726 b 888 755 894 744 892 749 b 723 915 846 823 790 876 b 507 972 652 954 581 972 b 332 935 447 972 388 960 b 179 825 275 910 224 873 b 78 661 134 776 100 721 b 44 473 56 600 44 537 b 78 287 44 410 56 347 b 179 121 100 226 134 171 b 326 14 221 76 270 40 b 507 -26 382 -13 442 -26 z "},"D":{"ha":789,"x_min":0,"x_max":0,"o":"m 304 -9 b 527 56 386 -9 460 12 b 686 229 593 99 646 157 b 745 469 726 302 745 381 b 616 814 745 606 703 721 b 476 919 576 859 530 894 b 304 956 422 944 366 956 l 77 956 b 54 947 68 956 60 953 b 44 922 47 940 44 932 l 44 24 b 54 1 44 15 47 7 b 77 -9 60 -6 68 -9 b 101 1 86 -9 94 -6 b 111 24 107 7 111 15 l 111 889 l 304 889 b 493 833 374 889 437 871 b 629 684 549 796 595 746 b 679 478 662 622 679 553 b 568 177 679 358 642 258 b 449 90 534 140 494 111 b 304 58 404 68 355 58 l 233 58 b 209 48 223 58 215 54 b 199 24 203 41 199 33 b 209 1 199 15 203 7 b 233 -9 215 -6 223 -9 z "},"E":{"ha":650,"x_min":0,"x_max":0,"o":"m 573 0 b 597 9 582 0 590 3 b 606 33 603 16 606 24 b 597 57 606 42 603 50 b 573 66 590 63 582 66 l 235 66 l 235 531 l 524 531 b 548 541 534 531 542 534 b 557 565 554 547 557 555 b 548 589 557 574 554 582 b 524 598 542 595 534 598 l 202 598 b 189 596 197 598 193 597 b 179 588 186 594 182 591 b 176 585 178 587 176 585 b 171 576 175 584 173 581 l 169 565 l 169 33 b 179 9 169 24 172 16 b 202 0 185 3 193 0 z m 77 -9 b 101 1 86 -9 94 -6 b 111 24 107 7 111 15 l 111 889 l 573 889 b 597 899 582 889 590 892 b 606 922 603 905 606 913 b 597 947 606 932 603 940 b 573 956 590 953 582 956 l 77 956 b 54 947 68 956 60 953 b 44 922 47 941 44 932 l 44 24 b 54 1 44 15 47 7 b 77 -9 60 -6 68 -9 z "},"F":{"ha":650,"x_min":0,"x_max":0,"o":"m 138 -9 b 205 17 163 -9 186 -1 b 235 87 225 35 235 58 l 235 509 l 535 509 b 557 518 544 509 551 512 b 566 540 564 524 566 531 b 557 562 566 549 564 556 b 535 571 551 568 544 571 l 199 571 b 178 562 191 571 184 568 b 169 540 172 556 169 549 l 169 87 b 160 66 169 79 166 72 b 140 58 154 60 147 58 b 120 66 132 58 126 60 b 111 87 114 71 111 78 l 111 889 l 573 889 b 597 899 582 889 590 892 b 606 922 603 905 606 913 b 597 947 606 932 603 940 b 573 956 590 953 582 956 l 77 956 b 54 947 68 956 60 953 b 44 922 47 940 44 932 l 44 87 b 72 19 44 60 54 38 b 138 -9 93 0 115 -9 z "},"G":{"ha":1026,"x_min":0,"x_max":0,"o":"m 503 -26 b 675 9 562 -26 618 -14 b 826 115 730 33 781 68 b 835 139 832 123 835 130 l 835 441 l 900 441 l 900 24 b 910 1 900 16 903 7 b 933 -9 916 -6 924 -9 b 957 1 942 -9 950 -6 b 966 24 963 7 966 16 l 966 475 b 957 498 966 484 963 492 b 933 508 950 505 942 508 l 397 508 b 374 498 389 508 380 505 b 364 475 368 492 364 484 b 374 452 364 466 368 458 b 397 441 380 445 389 441 l 768 441 l 768 152 b 643 69 730 115 688 87 b 504 41 597 51 551 41 b 355 73 453 41 404 52 b 224 168 307 94 263 125 b 137 311 186 210 157 258 b 108 473 117 363 108 418 b 137 636 108 529 117 583 b 224 780 157 689 186 737 b 351 872 260 819 302 850 b 504 905 398 895 449 905 b 691 855 572 905 634 888 b 831 718 748 821 795 775 b 859 702 838 707 848 702 b 877 707 865 702 871 704 b 892 735 887 715 892 724 b 887 753 892 741 890 747 b 721 914 844 821 788 875 b 505 972 650 953 578 972 b 328 935 444 972 385 960 b 176 825 271 910 220 873 b 75 661 131 776 97 721 b 41 473 52 600 41 537 b 75 287 41 410 52 347 b 177 121 97 226 132 171 b 330 11 222 72 273 35 b 503 -26 386 -14 444 -26 z "},"H":{"ha":758,"x_min":0,"x_max":0,"o":"m 680 -9 b 704 1 689 -9 697 -6 b 713 24 710 7 713 16 l 713 922 b 704 947 713 932 710 940 b 680 956 697 953 689 956 b 657 947 671 956 663 953 b 647 922 650 940 647 932 l 647 506 l 199 506 b 178 497 191 506 184 503 b 169 475 172 491 169 484 b 170 470 169 473 169 471 b 169 87 169 467 169 340 b 160 66 169 79 166 72 b 140 58 154 60 147 58 b 120 66 133 58 126 60 b 111 87 114 71 111 78 l 111 922 b 101 947 111 932 107 940 b 77 956 94 953 86 956 b 54 947 68 956 60 953 b 44 922 47 940 44 932 l 44 87 b 72 19 44 60 54 38 b 139 -9 93 0 115 -9 b 205 17 163 -9 186 -1 b 235 87 225 35 235 58 l 235 444 l 647 444 l 647 24 b 657 1 647 16 650 7 b 680 -9 663 -6 671 -9 z "},"I":{"ha":436,"x_min":0,"x_max":0,"o":"m 385 -7 b 407 3 394 -7 401 -3 b 416 24 413 9 416 16 b 407 46 416 33 413 40 b 385 55 401 52 394 55 l 263 55 l 263 813 b 254 838 263 823 260 831 b 230 847 248 844 239 847 b 207 838 221 847 213 844 b 197 813 200 831 197 823 l 197 55 l 75 55 b 54 46 66 55 60 52 b 44 24 47 40 44 33 b 54 3 44 16 47 9 b 75 -7 60 -3 66 -7 z m 385 892 b 407 901 394 892 401 895 b 416 922 413 907 416 914 b 407 945 416 931 413 939 b 385 954 401 951 394 954 l 75 954 b 54 945 66 954 60 951 b 44 922 47 939 44 931 b 54 901 44 914 47 907 b 75 892 60 895 66 892 z "},"J":{"ha":514,"x_min":0,"x_max":0,"o":"m 439 892 b 461 901 448 892 455 895 b 470 922 467 907 470 914 b 461 945 470 931 467 939 b 439 954 455 951 448 954 l 197 954 b 176 945 189 954 182 951 b 167 922 170 939 167 931 b 176 901 167 914 170 907 b 197 892 182 895 189 892 z m 165 -17 b 315 13 220 -17 270 -7 b 421 105 359 33 395 63 b 460 269 448 147 460 202 l 460 813 b 451 838 460 823 457 831 b 427 847 444 844 436 847 b 404 838 418 847 410 844 b 394 813 397 831 394 823 l 394 269 b 346 116 394 202 378 151 b 166 50 306 72 245 50 b 83 57 138 50 111 52 l 77 58 b 56 50 69 58 62 55 b 44 24 49 43 45 35 b 52 3 44 16 47 9 b 72 -9 57 -3 64 -7 b 165 -17 104 -14 135 -17 z "},"K":{"ha":732,"x_min":0,"x_max":0,"o":"m 679 -9 b 695 -5 684 -9 690 -8 b 712 24 707 3 712 12 b 708 40 712 29 711 35 l 437 499 b 523 555 469 509 498 528 b 653 812 566 601 610 686 l 690 911 b 692 922 691 915 692 919 b 670 954 692 936 684 947 b 659 956 667 956 663 956 b 627 934 645 956 635 949 l 591 834 b 475 601 549 717 511 640 b 414 562 458 583 437 570 b 327 551 390 555 361 551 l 202 551 b 179 542 193 551 185 548 b 169 518 172 535 169 527 l 169 87 b 160 66 169 79 166 72 b 140 58 154 60 147 58 b 120 66 132 58 126 60 b 111 87 114 71 111 78 l 111 922 b 101 947 111 932 107 940 b 77 956 94 953 86 956 b 54 947 68 956 60 953 b 44 922 47 940 44 932 l 44 87 b 72 19 44 60 54 38 b 138 -9 93 0 115 -9 b 205 17 163 -9 186 -1 b 235 87 225 35 235 58 l 235 485 l 327 485 b 369 486 342 485 356 486 l 650 8 b 679 -9 658 -3 667 -9 z "},"L":{"ha":671,"x_min":0,"x_max":0,"o":"m 594 -9 b 618 1 603 -9 611 -6 b 627 24 624 7 627 15 b 618 48 627 33 624 41 b 594 58 611 54 603 58 l 140 58 b 119 66 132 58 125 60 b 111 87 113 72 111 79 l 111 876 b 120 897 111 884 114 891 b 140 905 126 903 132 905 b 160 897 147 905 154 903 b 169 876 166 892 169 885 l 169 472 b 179 449 169 463 172 455 b 202 439 185 442 193 439 b 226 449 212 439 220 442 b 235 472 232 455 235 463 l 235 876 b 208 944 235 903 226 926 b 141 972 186 963 164 972 b 74 946 116 972 94 964 b 44 876 54 928 44 905 l 44 87 b 73 19 44 60 54 38 b 140 -9 91 0 113 -9 z "},"M":{"ha":1015,"x_min":0,"x_max":0,"o":"m 139 -9 b 206 17 164 -9 186 -1 b 236 87 226 35 236 58 l 236 475 b 227 498 236 484 233 492 b 203 508 220 505 212 508 b 180 498 194 508 186 505 b 170 475 173 492 170 484 l 170 87 b 160 66 170 79 166 72 b 140 58 154 60 147 58 b 120 66 133 58 126 60 b 111 87 114 71 111 78 l 111 823 l 480 275 b 508 260 488 265 497 260 b 526 266 514 260 520 262 b 541 294 536 273 541 283 b 535 312 541 300 538 306 l 111 941 b 96 954 106 948 102 952 b 77 956 90 956 84 956 b 54 947 68 956 60 953 b 44 922 47 940 44 932 l 44 87 b 73 19 44 60 54 38 b 139 -9 94 0 116 -9 z m 938 -9 b 962 1 947 -9 955 -6 b 971 24 968 7 971 16 l 971 922 b 961 947 971 932 968 941 b 938 956 954 953 947 956 b 909 939 928 956 918 951 l 559 430 b 553 411 555 424 553 418 b 568 384 553 401 557 391 b 587 378 574 380 580 378 b 614 392 597 378 606 382 l 905 816 l 905 24 b 915 1 905 16 908 7 b 938 -9 921 -6 929 -9 z "},"N":{"ha":770,"x_min":0,"x_max":0,"o":"m 692 -9 b 716 0 701 -9 709 -6 b 726 24 723 6 726 14 l 726 922 b 717 947 726 932 723 940 b 693 956 710 953 702 956 b 670 947 684 956 676 953 b 660 922 663 940 660 932 l 660 132 l 108 941 b 79 956 100 951 90 956 b 54 947 69 956 61 953 b 44 922 47 941 44 932 l 44 87 b 72 19 44 60 54 38 b 139 -9 93 0 115 -9 b 205 17 163 -9 186 -1 b 235 87 225 35 235 58 l 235 475 b 226 498 235 484 232 492 b 202 508 219 505 211 508 b 179 498 193 508 185 505 b 169 475 172 492 169 484 l 169 87 b 160 66 169 79 166 72 b 140 58 154 60 147 58 b 120 66 133 58 126 60 b 111 87 114 71 111 78 l 111 819 l 665 7 b 692 -9 673 -4 682 -9 z "},"O":{"ha":1007,"x_min":0,"x_max":0,"o":"m 449 113 b 470 120 457 113 464 115 b 481 140 476 125 479 132 l 482 146 b 475 168 482 155 479 161 b 456 178 470 173 463 176 b 291 285 387 193 332 229 b 229 475 250 341 229 404 b 220 498 229 484 226 492 b 196 508 213 505 205 508 b 172 498 187 508 179 505 b 162 475 165 492 162 484 b 239 243 162 389 188 311 b 443 113 290 174 358 132 z m 580 -18 l 586 -18 b 859 155 698 6 789 63 b 940 307 895 201 922 252 b 966 473 958 361 966 417 b 932 661 966 537 955 600 b 831 825 910 721 876 776 b 678 936 785 874 734 911 b 504 972 621 960 563 972 b 330 936 444 972 386 960 b 176 825 273 911 222 874 b 75 661 131 776 97 721 b 41 473 52 600 41 537 b 68 307 41 417 50 361 b 148 155 85 252 112 201 b 422 -18 218 63 310 6 l 428 -18 b 450 -10 435 -18 443 -16 b 461 15 456 -5 460 3 b 454 37 461 23 458 31 b 434 48 449 43 442 46 b 200 195 338 68 260 117 b 130 328 169 236 146 280 b 107 473 115 376 107 424 b 136 637 107 529 117 583 b 224 780 156 690 185 737 b 355 874 263 822 307 853 b 504 905 404 895 453 905 b 652 874 554 905 604 895 b 783 780 700 853 744 822 b 871 637 822 737 851 690 b 900 473 890 583 900 529 b 877 328 900 424 892 376 b 807 195 861 280 838 236 b 573 48 747 117 669 68 b 553 37 565 46 558 43 b 546 15 549 31 546 23 b 558 -10 547 3 551 -5 b 580 -18 564 -16 572 -18 z "},"P":{"ha":802,"x_min":0,"x_max":0,"o":"m 139 -9 b 205 17 163 -9 186 -1 b 235 87 225 35 235 58 l 235 271 b 226 294 235 279 232 288 b 202 304 219 300 211 304 b 179 294 193 304 185 300 b 169 271 172 288 169 279 l 169 87 b 160 66 169 79 166 72 b 140 58 154 60 147 58 b 120 66 133 58 126 60 b 111 87 114 71 111 78 l 111 889 l 508 889 b 637 829 558 889 601 869 b 678 758 655 808 669 784 b 692 677 687 732 692 705 b 678 597 692 650 687 623 b 637 526 669 571 655 547 b 579 481 620 507 601 492 b 508 465 557 471 533 465 l 212 465 b 189 456 203 465 195 462 b 178 432 182 449 178 441 b 189 409 178 423 182 415 b 212 399 195 402 203 399 l 508 399 b 637 438 556 399 599 412 b 726 541 674 465 704 498 b 758 677 747 584 758 629 b 726 814 758 726 747 772 b 637 917 704 857 674 890 b 508 956 599 943 556 956 l 77 956 b 54 947 68 956 60 953 b 44 922 47 940 44 932 l 44 87 b 72 19 44 60 54 38 b 139 -9 93 0 115 -9 z "},"Q":{"ha":1007,"x_min":0,"x_max":0,"o":"m 706 -193 b 723 -189 712 -193 718 -192 b 739 -160 734 -181 739 -172 b 734 -143 739 -154 738 -149 l 650 0 b 868 166 739 33 811 88 b 942 313 901 212 926 261 b 966 473 958 366 966 419 b 933 661 966 537 956 600 b 832 825 911 721 877 776 b 678 936 787 874 735 911 b 504 972 621 960 563 972 b 330 936 445 972 387 960 b 176 825 273 911 221 874 b 75 661 131 776 97 721 b 41 473 52 600 41 537 b 68 304 41 416 50 359 b 151 151 87 250 114 198 b 429 -19 222 60 315 3 l 435 -20 b 458 -11 444 -20 451 -17 b 469 14 464 -5 468 3 b 461 35 469 22 466 29 b 441 47 456 41 449 45 b 203 193 344 66 264 115 b 132 327 171 234 147 279 b 108 473 116 375 108 424 b 137 637 108 529 117 583 b 224 780 157 690 186 737 b 355 874 263 822 307 853 b 504 905 404 895 453 905 b 652 874 554 905 604 895 b 783 780 700 853 744 822 b 869 642 819 741 848 694 b 900 473 890 590 900 534 b 824 218 900 380 875 295 b 616 58 773 142 703 88 l 517 225 b 489 241 510 236 500 241 b 472 237 483 241 477 240 b 456 208 461 229 456 220 b 460 191 456 202 457 197 l 677 -177 b 706 -193 685 -188 694 -193 z "},"R":{"ha":792,"x_min":0,"x_max":0,"o":"m 139 -9 b 205 17 163 -9 186 -1 b 235 87 225 35 235 58 l 235 311 b 226 334 235 319 232 328 b 202 344 219 340 211 344 b 179 334 193 344 185 340 b 169 311 172 328 169 319 l 169 87 b 160 66 169 79 166 72 b 140 58 154 60 147 58 b 120 66 132 58 126 60 b 111 87 114 71 111 78 l 111 889 l 508 889 b 638 833 559 889 602 870 b 692 699 674 795 692 751 b 638 565 692 647 674 602 b 508 508 602 527 559 508 l 212 508 b 189 498 203 508 195 505 b 178 475 182 492 178 484 b 189 452 178 466 182 458 b 212 441 195 445 203 441 l 469 441 l 701 10 b 730 -9 708 -3 718 -9 b 745 -6 735 -9 740 -8 b 764 24 758 1 764 12 b 761 38 764 29 763 33 l 541 444 b 697 531 604 454 656 483 b 758 699 738 579 758 635 b 725 827 758 745 747 788 b 635 921 703 866 672 897 b 508 956 597 945 555 956 l 77 956 b 54 947 68 956 60 953 b 44 922 47 940 44 932 l 44 87 b 72 19 44 60 54 38 b 139 -9 93 0 115 -9 z "},"S":{"ha":741,"x_min":0,"x_max":0,"o":"m 389 -9 b 505 12 429 -9 468 -3 b 606 76 543 26 576 47 b 673 174 635 104 658 137 b 696 290 689 212 696 250 b 621 490 696 363 671 430 b 507 583 592 525 554 556 l 269 716 b 253 721 264 720 258 721 b 224 703 241 721 231 715 b 220 688 221 699 220 693 b 237 659 220 676 225 666 l 475 524 b 593 415 529 494 568 457 b 629 288 617 373 629 331 b 600 176 629 248 620 210 b 516 90 581 140 552 112 b 387 58 479 68 436 58 b 221 107 330 58 275 74 b 109 239 166 140 129 184 b 77 261 101 254 91 261 b 66 260 73 261 70 260 b 44 229 52 252 44 242 b 46 218 44 225 45 221 b 176 56 70 151 113 97 b 389 -9 245 12 316 -9 z m 499 355 b 528 373 511 355 521 361 b 532 389 531 378 532 384 b 515 418 532 401 526 411 l 276 548 b 149 677 207 587 164 630 b 140 727 142 694 140 710 b 195 844 140 771 158 810 b 269 889 215 863 239 878 b 365 905 298 900 330 905 b 519 854 422 905 474 888 b 614 720 564 820 595 775 b 646 696 621 704 631 696 b 673 710 657 696 666 701 b 679 730 677 716 679 723 b 677 740 679 734 678 736 b 559 908 655 809 615 865 b 365 972 502 951 437 972 b 244 951 321 972 281 966 b 149 893 207 937 176 918 b 73 728 98 845 73 790 b 245 489 73 633 130 554 l 484 359 b 499 355 488 357 494 355 z "},"T":{"ha":825,"x_min":0,"x_max":0,"o":"m 428 -9 b 452 1 437 -9 446 -6 b 461 24 458 7 461 15 l 461 797 b 452 821 461 806 458 814 b 428 831 446 827 437 831 l 140 831 b 119 839 132 831 125 833 b 111 859 113 845 111 852 b 119 880 111 867 113 874 b 140 889 124 886 131 889 l 747 889 b 772 899 757 889 765 892 b 781 922 778 905 781 913 b 772 947 781 932 778 940 b 747 956 765 953 757 956 l 140 956 b 72 928 113 956 91 947 b 44 861 54 907 44 884 b 71 793 44 836 53 813 b 140 764 87 774 111 764 l 395 764 l 395 24 b 405 1 395 15 398 7 b 428 -9 411 -6 419 -9 z "},"U":{"ha":753,"x_min":0,"x_max":0,"o":"m 377 -9 b 545 36 438 -9 494 5 b 665 157 595 66 635 106 b 709 325 694 208 709 264 l 709 922 b 700 947 709 932 706 940 b 676 956 693 953 685 956 b 653 947 667 956 659 953 b 643 922 646 940 643 932 l 643 325 b 607 191 643 276 631 231 b 511 94 583 151 551 118 b 377 58 471 70 426 58 b 243 94 328 58 283 70 b 147 191 203 118 171 151 b 111 325 123 231 111 276 l 111 876 b 120 897 111 884 114 891 b 140 905 126 903 133 905 b 161 897 148 905 155 903 b 170 876 167 892 170 885 l 170 472 b 180 449 170 463 173 455 b 203 439 186 442 194 439 b 227 449 212 439 220 442 b 236 472 233 455 236 463 l 236 876 b 208 944 236 903 227 926 b 141 972 186 963 164 972 b 74 946 116 972 94 964 b 44 876 54 928 44 905 l 44 325 b 90 157 44 264 59 208 b 210 36 119 106 159 66 b 377 -9 260 5 316 -9 z "},"V":{"ha":844,"x_min":0,"x_max":0,"o":"m 431 -9 b 449 -4 437 -9 443 -7 b 461 12 454 -1 458 5 l 801 848 b 807 880 805 858 807 869 b 791 932 807 899 802 916 b 747 969 780 949 765 961 b 711 976 735 974 723 976 b 658 960 692 976 674 970 b 621 914 642 948 629 933 l 465 521 b 463 509 463 517 463 513 b 484 477 463 495 469 485 b 496 475 488 476 492 475 b 527 496 509 475 519 482 l 683 890 b 699 907 686 897 691 903 b 711 909 703 909 707 909 b 732 901 719 909 726 907 b 740 880 737 895 740 887 b 737 867 740 876 739 871 l 431 113 l 105 935 b 74 956 98 949 87 956 b 62 954 71 956 66 955 b 41 922 48 946 41 935 b 43 910 41 918 41 914 l 399 14 b 412 -3 402 6 406 0 b 431 -9 418 -7 424 -9 z "},"W":{"ha":1194,"x_min":0,"x_max":0,"o":"m 833 -9 b 852 -3 840 -9 846 -7 b 865 15 859 1 863 7 l 1155 913 b 1156 924 1156 917 1156 920 b 1133 956 1156 938 1149 948 b 1123 957 1130 956 1126 957 b 1092 934 1109 957 1099 949 l 831 127 l 694 505 l 694 876 b 666 944 694 903 685 926 b 600 972 645 963 623 972 b 532 946 574 972 552 964 b 503 876 513 928 503 905 l 503 505 l 366 127 l 105 934 b 74 957 98 949 88 957 b 64 956 71 957 67 956 b 41 924 48 948 41 938 b 42 913 41 920 41 917 l 332 15 b 345 -3 335 7 339 1 b 364 -9 351 -7 357 -9 b 382 -3 370 -9 376 -7 b 395 13 389 0 393 5 l 566 484 b 570 498 568 488 570 493 l 570 876 b 579 897 570 884 573 891 b 599 905 585 903 591 905 b 619 897 606 905 613 903 b 628 876 625 892 628 885 l 628 501 b 630 488 628 496 629 492 l 802 13 b 814 -3 804 5 808 0 b 833 -9 820 -7 826 -9 z "},"X":{"ha":727,"x_min":0,"x_max":0,"o":"m 424 570 b 450 584 434 570 443 575 l 688 903 b 695 922 693 909 695 916 b 682 949 695 932 691 941 b 662 956 676 954 669 956 b 635 942 652 956 643 951 l 397 624 b 390 604 392 618 390 611 b 404 577 390 593 395 585 b 424 570 410 572 416 570 z m 100 -22 b 184 22 132 -22 161 -7 l 289 165 b 295 185 293 172 295 178 b 281 212 295 195 290 204 b 262 218 275 216 269 218 b 235 205 252 218 243 214 l 131 61 b 101 44 123 51 113 45 b 79 55 92 44 85 47 b 70 77 73 62 70 69 b 74 89 70 81 71 85 l 343 458 l 663 5 b 690 -9 671 -5 680 -9 b 709 -3 696 -9 703 -7 b 724 24 719 4 724 14 b 718 43 724 31 722 37 l 82 943 b 55 957 75 952 65 957 b 36 951 48 957 42 955 b 22 923 26 943 22 933 b 28 904 22 916 24 910 l 302 515 l 20 129 b 3 77 9 112 3 95 b 45 -4 3 46 17 19 b 100 -22 63 -16 81 -22 z "},"Y":{"ha":820,"x_min":0,"x_max":0,"o":"m 471 -9 b 538 17 496 -9 519 -1 b 568 87 558 35 568 58 l 568 281 b 559 304 568 290 565 298 b 535 314 552 311 544 314 b 512 304 526 314 518 311 b 502 281 505 298 502 290 l 502 87 b 493 66 502 79 499 72 b 473 58 487 60 480 58 b 453 66 465 58 459 60 b 444 87 447 71 444 78 l 444 356 l 771 907 b 776 924 774 912 776 918 b 760 952 776 935 770 945 b 743 957 754 956 749 957 b 714 941 731 957 722 951 l 410 430 l 106 941 b 77 957 98 951 89 957 b 60 952 71 957 66 956 b 44 924 50 945 44 935 b 49 907 44 918 45 912 l 376 356 l 376 87 b 405 19 376 60 386 38 b 471 -9 426 0 448 -9 z "},"Z":{"ha":793,"x_min":0,"x_max":0,"o":"m 716 -9 b 740 1 725 -9 733 -6 b 749 24 746 7 749 15 b 740 48 749 33 746 41 b 716 58 733 54 725 58 l 294 58 l 480 334 b 486 353 484 340 486 347 b 471 380 486 363 481 373 b 453 386 465 384 459 386 b 425 372 442 386 433 381 l 214 58 l 140 58 l 712 905 b 718 924 716 911 718 918 b 703 951 718 935 713 944 b 685 957 697 955 691 957 b 658 943 675 957 665 952 l 52 45 b 44 24 47 38 44 31 b 54 1 44 15 47 7 b 77 -9 60 -6 68 -9 z m 517 890 b 541 900 526 890 534 893 b 550 923 547 906 550 914 b 541 947 550 932 547 941 b 517 957 534 954 526 957 l 114 957 b 90 947 104 957 96 954 b 81 923 84 941 81 932 b 90 900 81 914 84 906 b 114 890 96 893 104 890 z "},"a":{"ha":900,"x_min":0,"x_max":0,"o":"m 395 -16 b 572 34 460 -16 519 1 b 699 168 625 67 667 112 b 745 351 730 224 745 285 l 745 615 b 753 633 745 622 748 628 b 770 640 758 637 764 640 b 787 633 777 640 783 637 b 795 615 792 628 795 623 l 795 31 b 804 9 795 22 798 16 b 825 0 810 3 817 0 b 847 9 834 0 841 3 b 856 31 853 16 856 22 l 856 615 b 831 676 856 639 848 659 b 771 702 812 693 792 702 b 711 678 749 702 728 694 b 684 615 692 662 684 641 l 684 351 b 661 232 684 309 676 269 b 598 134 646 195 625 162 b 503 68 570 105 538 83 b 395 46 467 54 431 46 b 286 68 357 46 321 54 b 191 135 251 83 219 105 b 127 236 162 165 141 199 b 106 351 113 273 106 312 b 127 466 106 390 113 429 b 191 567 141 503 162 537 b 286 634 218 596 250 618 b 395 656 321 649 358 656 b 543 613 446 656 495 642 b 559 608 549 610 554 608 b 585 623 570 608 578 613 b 590 639 589 628 590 633 b 576 665 590 649 585 658 b 395 718 519 701 459 718 b 217 668 329 718 270 701 b 91 534 163 635 121 590 b 44 351 60 478 44 417 b 91 168 44 285 60 224 b 217 34 121 112 163 67 b 395 -16 270 1 329 -16 z "},"b":{"ha":900,"x_min":0,"x_max":0,"o":"m 505 -16 b 684 34 571 -16 631 1 b 810 168 736 67 779 112 b 856 351 840 224 856 285 b 810 534 856 417 840 478 b 684 668 779 590 736 635 b 505 718 631 701 571 718 b 330 669 441 718 382 702 b 205 539 277 636 235 593 b 155 359 174 485 157 425 b 155 87 155 357 155 267 b 147 69 155 80 152 74 b 130 62 142 64 136 62 b 113 69 124 62 118 64 b 105 87 108 74 105 79 l 105 946 b 96 968 105 955 102 962 b 75 977 90 974 83 977 b 53 968 66 977 59 974 b 44 946 47 962 44 955 l 44 87 b 69 26 44 63 52 43 b 129 0 88 9 108 0 b 190 24 151 0 172 8 b 216 87 208 40 216 61 l 216 351 b 239 470 216 393 224 433 b 302 568 254 507 275 540 b 397 634 330 597 362 619 b 506 656 433 649 469 656 b 614 634 543 656 578 649 b 709 567 649 619 681 597 b 773 466 738 537 759 503 b 794 351 787 429 794 390 b 773 236 794 312 787 273 b 710 136 759 199 738 165 b 614 68 682 106 650 83 b 505 45 578 53 542 45 b 357 89 454 45 405 60 b 340 94 351 92 346 94 b 315 79 330 94 322 89 b 310 63 311 74 310 68 b 324 37 310 53 315 44 b 505 -16 380 1 441 -16 z "},"c":{"ha":766,"x_min":0,"x_max":0,"o":"m 399 -16 b 589 40 469 -16 532 3 b 720 191 646 77 689 128 b 722 204 722 195 722 199 b 705 232 722 216 717 224 b 692 235 701 234 696 235 b 665 217 680 235 671 229 b 552 90 637 161 600 119 b 399 45 504 60 452 45 b 290 68 361 45 326 53 b 193 135 254 82 222 104 b 127 237 163 165 142 199 b 106 351 113 274 106 312 b 127 466 106 390 113 429 b 193 568 142 503 163 537 b 290 635 222 597 254 620 b 399 656 326 649 361 656 b 545 616 450 656 498 643 b 656 500 591 590 629 551 b 684 483 664 488 673 483 b 699 487 688 483 694 484 b 715 514 709 494 715 503 b 711 529 715 519 713 524 b 581 667 679 587 636 633 b 399 718 526 701 465 718 b 220 668 334 718 273 701 b 92 534 166 635 123 590 b 44 351 60 479 44 418 b 92 168 44 284 60 223 b 220 34 123 112 166 67 b 399 -16 273 1 334 -16 z "},"d":{"ha":900,"x_min":0,"x_max":0,"o":"m 395 -16 b 572 34 460 -16 519 1 b 699 168 625 67 667 112 b 745 351 730 224 745 285 l 745 890 b 753 908 745 897 748 903 b 769 915 758 913 763 915 b 787 908 776 915 782 913 b 795 890 792 903 795 898 l 795 31 b 804 9 795 22 798 16 b 825 0 810 3 817 0 b 847 9 834 0 841 3 b 856 31 853 16 856 22 l 856 890 b 831 951 856 914 848 935 b 771 977 812 968 792 977 b 711 953 749 977 729 968 b 684 890 692 937 684 916 l 684 351 b 661 232 684 309 676 269 b 598 134 646 195 625 162 b 503 68 570 105 538 83 b 395 46 467 54 431 46 b 286 68 357 46 321 54 b 191 135 251 83 219 105 b 127 236 162 165 141 199 b 106 351 113 273 106 312 b 127 466 106 390 113 429 b 191 567 141 503 162 537 b 286 634 218 596 250 618 b 395 656 321 649 358 656 b 543 613 446 656 495 642 b 559 608 549 610 554 608 b 585 623 570 608 578 613 b 590 639 589 628 590 633 b 576 665 590 649 585 658 b 395 718 519 701 459 718 b 217 668 329 718 270 701 b 91 534 163 635 121 590 b 44 351 60 478 44 417 b 91 168 44 285 60 224 b 217 34 121 112 163 67 b 395 -16 270 1 329 -16 z "},"e":{"ha":789,"x_min":0,"x_max":0,"o":"m 394 -16 b 553 24 449 -16 502 -3 b 682 140 604 50 646 89 b 687 157 685 145 687 151 b 673 182 687 167 682 175 b 656 188 667 186 662 188 b 631 174 646 188 638 183 b 529 80 604 134 570 103 b 395 45 488 57 443 45 b 248 87 340 45 292 60 b 144 199 204 115 170 153 b 106 351 119 245 106 296 b 144 503 106 406 119 456 b 248 614 170 549 204 587 b 395 656 292 642 340 656 b 534 619 446 656 492 644 b 635 520 575 594 609 562 b 682 382 661 479 677 433 l 255 382 b 233 373 246 382 239 379 b 224 351 227 367 224 359 l 224 264 b 233 242 224 255 227 248 b 255 233 239 236 246 233 b 277 242 264 233 271 236 b 286 264 283 248 286 255 l 286 320 l 714 320 b 736 329 723 320 730 323 b 745 351 743 335 745 342 b 718 493 745 401 736 449 b 643 610 700 537 675 576 b 526 691 608 646 569 673 b 395 718 484 709 439 718 b 263 691 350 718 306 709 b 147 610 220 673 182 646 b 70 488 113 574 87 533 b 44 351 53 444 44 398 b 70 214 44 304 53 258 b 148 92 87 169 113 128 b 264 11 182 56 221 28 b 394 -16 307 -7 350 -16 z "},"f":{"ha":485,"x_min":0,"x_max":0,"o":"m 130 0 b 191 24 152 0 172 8 b 217 87 208 40 217 61 l 217 640 l 410 640 b 432 649 418 640 426 643 b 441 671 438 655 441 662 b 432 692 441 680 438 686 b 410 701 426 699 418 701 l 186 701 b 164 692 177 701 170 699 b 155 671 158 686 155 680 l 155 87 b 148 69 155 80 153 74 b 131 62 142 64 137 62 b 114 69 125 62 119 64 b 106 87 109 74 106 79 b 105 772 106 539 106 768 l 106 780 b 149 886 106 821 120 857 b 199 919 164 901 181 911 b 255 930 218 926 236 930 b 316 917 276 930 296 926 b 368 878 336 908 353 895 b 391 867 375 871 382 867 b 412 877 398 867 405 871 b 422 899 418 883 422 890 b 414 918 422 905 419 912 b 342 972 394 941 370 960 b 256 991 313 985 285 991 b 152 964 218 991 184 983 b 74 889 120 946 94 921 b 44 780 54 857 44 821 l 45 772 b 44 87 44 768 44 539 b 70 26 44 63 53 43 b 130 0 89 9 109 0 z "},"g":{"ha":901,"x_min":0,"x_max":0,"o":"m 475 -237 b 667 -184 545 -237 610 -219 b 805 -45 725 -150 770 -104 b 857 146 840 12 857 77 b 856 151 857 149 857 151 l 856 615 b 831 676 856 639 848 659 b 771 702 812 693 792 702 b 711 678 749 702 728 694 b 684 615 692 662 684 641 l 684 351 b 661 232 684 309 676 269 b 599 134 646 195 625 162 b 503 68 570 105 538 83 b 395 46 467 54 431 46 b 286 68 357 46 321 54 b 191 135 251 83 219 105 b 127 236 162 165 141 199 b 106 351 113 273 106 312 b 127 466 106 390 113 429 b 191 567 141 503 162 537 b 286 634 218 596 250 618 b 395 656 321 649 358 656 b 543 613 446 656 495 642 b 559 608 549 610 554 608 b 585 623 570 608 578 613 b 590 639 589 628 590 633 b 576 665 590 649 585 658 b 395 718 519 701 459 718 b 217 668 329 718 270 701 b 91 534 163 635 121 590 b 44 351 60 478 44 417 b 91 168 44 285 60 224 b 217 34 121 112 163 67 b 395 -16 270 1 329 -16 b 572 34 460 -16 519 1 b 699 168 625 67 667 112 b 745 351 730 224 745 285 l 745 355 b 745 615 745 358 745 445 b 753 633 745 622 748 628 b 770 640 758 637 764 640 b 787 633 777 640 783 637 b 795 615 792 628 795 623 l 795 133 b 747 -22 792 75 777 24 b 632 -134 718 -69 680 -106 b 475 -175 585 -161 532 -175 b 351 -160 429 -175 388 -170 b 241 -102 315 -150 278 -131 b 223 -96 235 -98 229 -96 b 199 -109 214 -96 206 -100 b 192 -127 194 -115 192 -121 b 204 -151 192 -136 196 -144 b 452 -237 278 -208 361 -237 z "},"h":{"ha":695,"x_min":0,"x_max":0,"o":"m 130 0 b 190 24 152 0 172 8 b 216 87 208 40 216 61 l 216 482 b 208 504 216 491 214 498 b 186 513 201 510 195 513 b 164 504 177 513 170 510 b 155 482 158 498 155 491 l 155 87 b 148 69 155 80 153 74 b 131 62 142 64 137 62 b 114 69 125 62 119 64 b 106 87 109 74 106 79 l 106 640 l 432 640 b 544 594 475 640 513 625 b 590 482 574 563 590 526 l 590 31 b 599 9 590 22 593 16 b 621 1 605 3 612 1 b 642 9 629 1 636 3 b 651 31 648 16 651 22 l 651 482 b 587 637 651 543 630 595 b 432 702 545 680 492 702 l 106 702 l 106 946 b 97 968 106 955 103 962 b 75 977 91 974 83 977 b 53 968 66 977 59 974 b 44 946 47 962 44 955 l 44 87 b 69 26 44 63 52 43 b 130 0 88 9 109 0 z "},"i":{"ha":253,"x_min":0,"x_max":0,"o":"m 178 783 b 200 792 186 783 194 786 b 209 814 206 798 209 805 l 209 911 b 200 933 209 920 206 927 b 178 942 194 939 186 942 b 157 933 170 942 163 939 b 147 911 151 927 147 920 l 147 814 b 157 792 147 805 151 798 b 178 783 163 786 170 783 z m 178 0 b 200 9 186 0 194 3 b 209 31 206 16 209 22 l 209 671 b 200 693 209 680 206 687 b 178 702 194 699 186 702 l 75 702 b 54 693 66 702 60 699 b 44 671 47 687 44 680 b 54 650 44 663 47 656 b 75 640 60 644 66 640 l 147 640 l 147 31 b 157 9 147 22 151 16 b 178 0 163 3 170 0 z "},"j":{"ha":399,"x_min":0,"x_max":0,"o":"m 324 783 b 347 792 333 783 340 786 b 355 814 353 798 355 805 l 355 911 b 347 933 355 920 353 927 b 324 942 340 939 333 942 b 302 933 315 942 309 939 b 294 911 296 927 294 920 l 294 814 b 302 792 294 805 296 798 b 324 783 309 786 315 783 z m 144 -237 b 294 -175 199 -237 249 -216 b 355 -25 333 -135 353 -85 l 355 671 b 347 692 355 680 353 686 b 324 701 340 699 333 701 l 222 701 b 200 692 213 701 206 699 b 191 671 194 686 191 680 b 200 649 191 662 194 655 b 222 640 206 643 213 640 l 294 640 l 294 -25 b 247 -134 292 -70 276 -106 b 144 -175 218 -161 183 -175 b 87 -163 125 -175 106 -171 b 75 -161 83 -161 79 -161 b 46 -180 62 -161 53 -168 b 44 -192 45 -184 44 -188 b 63 -220 44 -203 50 -213 b 144 -237 90 -231 117 -237 z "},"k":{"ha":611,"x_min":0,"x_max":0,"o":"m 587 0 b 602 5 592 0 597 1 b 617 32 612 12 617 21 b 613 47 617 37 616 42 l 408 391 b 549 585 474 422 521 487 l 572 662 b 574 671 573 665 574 668 b 552 700 574 684 566 694 b 543 701 549 701 546 701 b 514 680 530 701 520 694 b 490 602 507 654 498 629 b 458 525 482 576 471 550 b 408 462 446 500 429 479 b 332 436 387 445 362 436 l 186 436 b 164 427 177 436 170 433 b 155 406 158 421 155 414 l 155 87 b 147 69 155 80 152 74 b 130 62 142 64 136 62 b 113 69 124 62 118 64 b 105 87 108 74 105 79 l 105 946 b 96 968 105 955 102 962 b 75 977 90 974 83 977 b 53 968 66 977 59 974 b 44 946 47 962 44 955 l 44 87 b 69 26 44 63 52 43 b 129 0 88 9 108 0 b 190 24 151 0 172 8 b 216 87 208 40 216 61 l 216 374 b 347 375 298 374 342 374 l 560 16 b 587 0 568 5 576 0 z "},"l":{"ha":149,"x_min":0,"x_max":0,"o":"m 75 0 b 96 9 83 0 90 3 b 105 31 102 16 105 22 l 105 946 b 96 968 105 955 102 962 b 75 977 90 974 83 977 b 53 968 66 977 59 974 b 44 946 47 962 44 955 l 44 31 b 53 9 44 22 47 16 b 75 0 59 3 66 0 z "},"m":{"ha":1261,"x_min":0,"x_max":0,"o":"m 629 0 b 690 24 652 0 672 8 b 717 87 708 40 717 61 l 717 640 l 998 640 b 1112 597 1045 640 1083 626 b 1156 482 1141 568 1156 529 l 1156 31 b 1164 9 1156 22 1158 16 b 1186 1 1171 3 1177 1 b 1208 9 1195 1 1202 3 b 1217 31 1214 16 1217 22 l 1217 482 b 1156 640 1217 547 1196 599 b 998 702 1115 682 1062 702 l 686 702 b 665 693 677 702 671 699 b 655 671 659 687 655 680 l 655 87 b 648 69 655 80 652 74 b 631 62 643 64 637 62 b 614 69 625 62 618 64 b 606 87 608 74 606 79 l 606 482 b 542 637 606 543 585 595 b 387 702 499 680 447 702 l 75 702 b 54 693 66 702 60 699 b 44 671 47 687 44 680 l 44 87 b 69 26 44 63 52 43 b 130 0 88 9 109 0 b 190 24 152 0 172 8 b 217 87 208 40 217 61 l 217 482 b 208 504 217 491 214 498 b 186 513 202 510 195 513 b 164 504 177 513 170 510 b 155 482 158 498 155 491 l 155 87 b 148 69 155 80 153 74 b 131 62 142 64 137 62 b 114 69 125 62 119 64 b 106 87 109 74 106 79 l 106 640 l 387 640 b 498 594 430 640 467 625 b 545 482 529 563 545 526 l 545 87 b 570 26 545 63 553 43 b 629 0 589 9 608 0 z "},"n":{"ha":703,"x_min":0,"x_max":0,"o":"m 130 0 b 191 24 152 0 172 8 b 217 87 208 40 217 61 l 217 482 b 208 504 217 491 214 498 b 186 513 202 510 195 513 b 164 504 177 513 170 510 b 155 482 158 498 155 491 l 155 87 b 148 69 155 80 153 74 b 131 62 142 64 137 62 b 114 69 125 62 119 64 b 106 87 109 74 106 79 l 106 640 l 435 640 b 551 592 480 640 519 624 b 598 477 583 560 598 522 l 598 31 b 607 9 598 22 601 16 b 629 1 613 3 620 1 b 650 9 637 1 644 3 b 659 31 656 16 659 22 l 659 477 b 594 635 659 538 637 591 b 435 701 550 680 497 701 l 75 701 b 53 692 66 701 59 699 b 44 671 47 686 44 680 l 44 87 b 70 26 44 63 53 43 b 130 0 89 9 109 0 z "},"o":{"ha":800,"x_min":0,"x_max":0,"o":"m 400 -16 b 580 34 466 -16 526 1 b 708 168 633 67 676 112 b 755 351 740 223 755 284 b 708 534 755 418 740 479 b 580 668 676 590 633 635 b 400 718 526 701 466 718 b 220 668 334 718 273 701 b 92 534 166 635 123 590 b 44 351 60 479 44 418 b 92 168 44 284 60 223 b 220 34 123 112 166 67 b 400 -16 273 1 334 -16 z m 400 46 b 290 68 363 46 326 54 b 193 136 254 83 222 105 b 127 237 163 165 142 199 b 106 351 113 274 106 312 b 127 466 106 390 113 429 b 193 567 142 503 163 537 b 290 634 222 597 254 619 b 400 656 326 648 363 656 b 511 634 437 656 475 648 b 608 567 547 619 578 597 b 673 466 637 537 659 503 b 694 351 687 429 694 390 b 673 237 694 312 687 274 b 608 136 659 199 637 165 b 511 68 578 105 547 83 b 400 46 475 54 437 46 z "},"p":{"ha":900,"x_min":0,"x_max":0,"o":"m 129 -237 b 189 -213 151 -237 171 -229 b 216 -151 208 -197 216 -176 l 216 351 b 239 470 216 393 224 433 b 301 568 254 507 275 540 b 397 634 330 597 361 619 b 505 656 433 649 469 656 b 614 634 543 656 578 649 b 709 567 649 619 681 597 b 773 466 738 537 759 503 b 794 351 787 429 794 390 b 773 236 794 312 787 273 b 710 136 759 199 738 165 b 614 68 682 106 650 83 b 505 45 578 53 542 45 b 357 89 454 45 405 60 b 340 94 351 92 346 94 b 315 79 330 94 322 89 b 310 63 311 74 310 68 b 324 37 310 53 315 44 b 505 -16 380 1 441 -16 b 684 34 571 -16 631 1 b 810 168 736 67 779 112 b 856 351 840 224 856 285 b 810 534 856 417 840 478 b 684 668 779 590 736 635 b 505 718 631 701 571 718 b 328 668 439 718 380 701 b 201 534 275 635 233 590 b 155 351 170 478 155 417 l 155 -151 b 147 -168 155 -157 152 -163 b 130 -175 142 -172 136 -175 b 113 -168 124 -175 118 -173 b 105 -151 108 -163 105 -158 l 105 671 b 96 692 105 680 102 686 b 75 701 90 699 83 701 b 53 692 66 701 59 699 b 44 671 47 686 44 680 l 44 -151 b 69 -212 44 -174 52 -195 b 129 -237 88 -229 108 -237 z "},"q":{"ha":900,"x_min":0,"x_max":0,"o":"m 825 -237 b 847 -228 834 -237 841 -234 b 856 -206 853 -222 856 -215 l 856 615 b 831 676 856 639 848 659 b 770 702 812 693 791 702 b 711 678 748 702 728 694 b 684 615 692 662 684 641 l 684 351 b 661 232 684 309 676 269 b 598 134 646 195 625 162 b 503 68 570 105 538 83 b 395 46 467 54 431 46 b 286 68 357 46 321 54 b 191 135 251 83 219 105 b 127 236 162 165 141 199 b 105 351 113 273 105 312 b 127 466 105 390 113 429 b 191 567 141 503 162 537 b 286 634 218 596 250 618 b 395 656 321 649 357 656 b 543 613 446 656 494 642 b 559 608 548 610 553 608 b 585 623 569 608 578 613 b 590 639 589 628 590 633 b 575 665 590 649 585 658 b 394 718 519 701 458 718 b 216 668 328 718 269 701 b 91 534 163 635 121 590 b 44 351 60 478 44 417 b 91 168 44 285 60 224 b 216 34 121 112 163 67 b 394 -16 269 1 328 -16 b 572 34 460 -16 519 1 b 699 168 625 67 667 112 b 745 351 729 224 745 285 l 745 615 b 753 633 745 622 747 628 b 770 640 758 637 764 640 b 787 633 776 640 782 637 b 794 615 791 628 794 623 l 794 -206 b 804 -228 794 -215 798 -222 b 825 -237 810 -234 817 -237 z "},"r":{"ha":468,"x_min":0,"x_max":0,"o":"m 130 0 b 190 24 152 0 172 8 b 216 87 208 40 216 61 l 216 351 b 208 373 216 359 214 367 b 186 382 201 379 195 382 b 164 373 177 382 170 379 b 155 351 158 367 155 359 l 155 87 b 148 69 155 80 153 74 b 131 62 142 64 137 62 b 114 69 125 62 119 64 b 106 87 109 74 106 79 l 106 506 b 149 612 106 547 120 583 b 199 646 164 627 181 638 b 255 656 218 653 236 656 b 317 643 276 656 297 652 b 370 602 338 634 355 621 b 394 591 377 595 385 591 b 413 598 401 591 407 593 b 424 622 420 606 424 613 b 417 642 424 629 422 635 b 344 698 397 665 373 684 b 255 718 315 711 285 718 b 151 691 218 718 183 709 b 74 615 119 673 94 647 b 44 506 54 583 44 547 l 44 87 b 69 26 44 63 52 43 b 130 0 88 9 109 0 z "},"s":{"ha":640,"x_min":0,"x_max":0,"o":"m 336 1 b 434 15 370 1 402 5 b 521 58 466 24 494 38 b 576 119 544 75 562 96 b 595 195 589 143 595 168 b 587 248 595 212 593 230 b 478 375 572 292 536 334 l 207 559 b 191 565 201 563 196 565 b 165 551 180 565 172 560 b 159 534 161 545 159 540 b 173 509 159 524 164 516 l 444 324 b 534 195 504 281 534 239 b 484 106 534 161 517 132 b 335 62 444 77 395 62 b 205 91 291 62 248 71 b 100 174 162 111 127 138 b 75 186 92 182 84 186 b 57 181 68 186 63 184 b 44 156 48 174 44 165 b 50 138 44 150 46 144 b 174 37 83 94 124 61 b 336 1 226 13 280 1 z m 450 180 b 475 195 459 180 467 185 b 480 212 478 200 480 205 b 467 237 480 221 475 229 l 196 422 b 113 539 140 460 113 500 b 157 616 113 568 127 594 b 292 656 193 643 238 656 b 433 626 340 656 387 646 b 541 544 478 606 514 578 b 565 532 547 536 555 532 b 583 538 571 532 577 534 b 595 562 591 545 595 553 b 590 581 595 568 593 574 b 456 683 556 625 511 659 b 292 718 401 707 346 718 b 168 694 245 718 203 710 b 83 629 132 677 103 656 b 52 540 62 602 52 572 b 78 454 52 512 60 484 b 162 371 96 425 123 397 l 433 186 b 450 180 438 182 444 180 z "},"t":{"ha":468,"x_min":0,"x_max":0,"o":"m 255 0 b 342 20 285 0 314 7 b 417 77 371 33 396 52 b 424 96 422 83 424 89 b 413 120 424 105 420 113 b 393 127 407 125 401 127 b 370 116 385 127 377 123 b 318 76 356 99 338 85 b 256 62 297 66 277 62 b 153 103 217 62 182 75 b 106 212 123 131 108 167 l 106 857 b 113 875 106 864 109 870 b 130 882 118 880 124 882 b 148 876 136 882 142 880 b 155 857 153 871 155 865 l 155 463 b 164 441 155 454 158 447 b 186 431 170 435 177 431 b 208 441 195 431 201 435 b 216 463 214 447 216 454 l 216 640 l 353 640 b 375 649 362 640 369 643 b 384 671 381 655 384 662 b 375 692 384 680 381 686 b 353 701 369 699 362 701 l 216 701 l 216 857 b 191 919 216 882 208 902 b 132 944 172 936 153 944 b 71 920 109 944 90 936 b 44 857 53 905 44 884 l 44 212 b 106 62 46 152 66 102 b 176 16 127 41 150 26 b 255 0 201 5 228 0 z "},"u":{"ha":689,"x_min":0,"x_max":0,"o":"m 614 0 b 636 9 623 0 630 3 b 645 31 642 16 645 22 l 645 631 b 619 692 645 655 636 675 b 559 718 600 709 580 718 b 499 694 536 718 517 710 b 472 631 481 678 472 657 l 472 236 b 481 214 472 227 475 220 b 503 205 488 208 494 205 b 525 214 512 205 519 208 b 534 236 531 220 534 227 l 534 631 b 542 649 534 638 536 644 b 558 656 547 654 552 656 b 576 650 564 656 570 654 b 583 631 581 645 583 639 l 583 62 l 268 62 b 154 110 224 62 186 78 b 106 225 122 142 106 180 l 106 671 b 97 692 106 680 103 686 b 75 701 91 699 84 701 b 54 692 66 701 60 699 b 44 671 47 686 44 680 l 44 225 b 110 66 44 163 66 111 b 268 0 154 22 206 0 z "},"v":{"ha":687,"x_min":0,"x_max":0,"o":"m 353 0 b 366 3 357 0 361 1 b 382 20 374 7 379 13 b 635 600 382 21 467 214 b 643 635 640 611 643 623 b 629 683 643 652 638 668 b 590 715 620 697 607 708 b 556 722 578 720 568 722 b 509 709 539 722 523 718 b 475 669 494 699 482 686 l 384 460 b 381 448 382 456 381 452 b 399 420 381 436 387 427 b 412 417 404 418 408 417 b 440 436 423 417 433 423 l 532 646 b 555 661 537 656 545 661 b 566 659 559 661 563 661 b 582 635 576 653 582 645 b 579 624 582 631 581 627 l 354 107 l 102 683 b 75 701 96 695 87 701 b 62 699 71 701 66 701 b 44 671 50 692 44 682 b 47 659 44 667 45 663 l 326 19 b 353 0 332 6 342 0 z "},"w":{"ha":1011,"x_min":0,"x_max":0,"o":"m 718 1 b 734 6 724 1 729 3 b 746 20 739 9 743 14 l 962 603 b 967 633 965 613 967 623 b 952 683 967 651 962 667 b 909 716 942 699 928 709 b 880 722 899 720 890 722 b 831 707 862 722 846 717 b 798 665 816 696 805 683 l 724 458 b 722 448 722 454 722 451 b 742 418 722 435 728 425 b 752 417 745 418 749 417 b 781 437 764 417 774 424 l 855 644 b 880 660 861 654 869 660 b 888 659 882 660 885 659 b 905 633 900 652 905 644 b 904 624 905 630 905 627 l 717 119 l 549 559 l 587 660 b 589 671 589 663 589 667 b 570 699 589 683 583 692 b 559 701 566 701 562 701 b 530 682 547 701 537 694 l 316 118 l 104 682 b 75 701 97 694 87 701 b 64 699 72 701 68 701 b 44 671 51 692 44 683 b 46 660 44 667 45 663 l 287 20 b 299 5 290 14 294 9 b 316 1 304 2 310 1 b 333 6 322 1 328 3 b 345 22 338 9 342 14 l 517 473 l 688 20 b 701 5 691 14 695 9 b 718 1 705 2 711 1 z "},"x":{"ha":648,"x_min":0,"x_max":0,"o":"m 130 -12 b 197 20 157 -12 179 -1 l 272 109 b 279 128 277 115 279 121 b 268 152 279 137 275 144 b 248 159 262 157 255 159 b 225 148 239 159 232 155 l 151 60 b 130 50 144 54 138 51 b 113 58 123 50 118 53 b 106 75 109 62 106 68 b 112 92 106 80 108 85 l 303 328 l 549 12 b 573 1 556 5 564 1 b 592 7 580 1 586 3 b 604 31 600 14 604 22 b 597 50 604 38 602 44 l 359 357 l 587 652 b 593 670 591 658 593 664 b 582 695 593 680 589 688 b 563 701 576 699 570 701 b 538 690 554 701 546 697 l 319 407 l 111 675 b 87 687 104 683 96 687 b 68 680 80 687 74 685 b 56 656 60 673 56 665 b 62 637 56 650 58 644 l 264 378 b 262 376 264 377 263 377 b 261 374 262 376 262 375 l 64 130 b 44 75 51 113 44 94 b 75 9 46 45 56 24 b 130 -12 92 -5 110 -12 z "},"y":{"ha":659,"x_min":0,"x_max":0,"o":"m 133 -237 b 218 -214 167 -237 195 -229 b 277 -153 241 -199 260 -178 b 321 -70 293 -128 308 -100 b 503 357 363 27 423 169 b 607 602 537 439 572 520 b 614 636 612 613 614 625 b 601 682 614 652 610 668 b 563 715 592 696 579 708 b 529 723 551 720 541 723 b 483 709 512 723 497 718 b 450 671 469 701 457 688 l 450 671 b 401 553 434 634 418 595 b 360 450 387 517 374 482 b 357 437 358 446 357 442 b 376 410 357 426 363 416 b 389 407 380 408 384 407 b 416 425 400 407 410 413 b 461 536 431 460 446 497 b 505 646 475 574 490 611 b 528 661 511 656 519 661 b 538 659 532 661 534 661 b 553 636 548 653 553 646 b 551 626 553 633 553 629 b 415 307 506 522 460 416 l 331 109 l 81 683 b 53 701 74 695 64 701 b 40 699 48 701 44 701 b 22 671 28 692 22 682 b 24 659 22 667 22 663 l 298 31 l 264 -45 b 236 -104 256 -65 247 -84 b 195 -154 224 -123 211 -140 b 136 -175 179 -168 159 -175 b 68 -163 113 -175 90 -171 b 58 -161 64 -162 61 -161 b 28 -181 45 -161 36 -168 b 27 -191 28 -184 27 -188 b 47 -221 27 -204 34 -214 b 133 -237 75 -231 104 -237 z "},"z":{"ha":661,"x_min":0,"x_max":0,"o":"m 531 0 b 591 26 555 0 575 9 b 617 87 608 45 617 66 b 593 147 617 109 609 129 b 531 174 578 165 557 174 l 385 174 b 363 165 376 174 369 171 b 354 142 357 159 354 151 b 363 121 354 134 357 127 b 385 112 369 115 376 112 l 531 112 b 549 104 538 112 544 109 b 555 87 553 99 555 93 b 549 70 555 81 553 75 b 531 62 544 64 538 62 l 139 62 l 609 650 b 617 670 614 656 617 663 b 608 692 617 678 614 686 b 586 701 602 698 595 701 l 109 701 b 87 692 100 701 94 699 b 78 671 81 686 78 680 b 87 649 78 662 81 655 b 109 640 94 643 100 640 l 522 640 l 52 52 b 44 31 47 45 44 38 b 53 9 44 22 47 16 b 75 0 59 3 66 0 z "},"{":{"ha":423,"x_min":0,"x_max":0,"o":"m 275 -131 b 353 -121 298 -131 324 -127 b 372 -109 361 -119 368 -115 b 379 -89 377 -102 379 -96 b 368 -63 378 -77 374 -68 b 347 -56 361 -58 354 -56 l 339 -56 b 284 -63 318 -61 300 -63 b 222 -45 256 -63 235 -57 b 195 3 208 -33 199 -16 b 189 68 191 23 189 45 b 198 197 189 107 192 150 b 207 329 204 243 207 287 b 170 466 207 393 195 438 b 207 603 195 494 207 539 b 198 736 207 646 204 690 b 189 864 192 782 189 825 b 195 929 189 888 191 909 b 221 977 199 949 208 965 b 283 996 235 989 255 996 b 339 988 299 996 318 993 l 347 987 b 368 995 354 987 361 990 b 379 1021 374 1000 378 1008 b 372 1041 379 1028 377 1035 b 353 1053 368 1047 361 1051 b 276 1063 324 1059 298 1063 b 175 1030 231 1063 197 1052 b 130 943 153 1008 137 979 b 122 864 125 918 122 892 b 132 725 122 820 125 773 b 140 606 138 681 140 641 b 127 529 140 574 136 549 b 77 499 119 509 102 499 b 54 490 68 499 60 496 b 44 466 47 483 44 475 b 54 443 44 457 47 449 b 77 433 60 436 68 433 b 127 403 102 433 119 422 b 140 326 136 383 140 357 b 132 207 140 291 138 251 b 122 68 125 159 122 112 b 130 -11 122 40 125 14 b 175 -98 137 -47 153 -76 b 275 -131 197 -120 231 -131 z "},"|":{"ha":155,"x_min":0,"x_max":0,"o":"m 78 -237 b 102 -227 87 -237 95 -233 b 111 -203 108 -220 111 -212 l 111 1021 b 102 1044 111 1029 108 1038 b 78 1054 95 1050 87 1054 b 54 1044 68 1054 60 1050 b 44 1021 47 1038 44 1029 l 44 -203 b 54 -227 44 -212 47 -220 b 78 -237 60 -233 68 -237 z "},"}":{"ha":423,"x_min":0,"x_max":0,"o":"m 148 -131 b 249 -98 193 -131 227 -120 b 294 -11 271 -76 286 -47 b 301 68 298 14 301 40 b 291 207 301 112 298 159 b 283 326 286 251 283 291 b 296 403 283 357 287 383 b 346 433 304 422 321 433 b 370 443 355 433 363 436 b 379 466 376 449 379 457 b 370 490 379 475 376 483 b 346 499 363 496 355 499 b 296 529 321 499 304 509 b 283 606 287 549 283 574 b 291 725 283 641 286 681 b 301 864 298 773 301 820 b 294 943 301 892 298 918 b 248 1030 286 979 271 1008 b 147 1063 226 1052 192 1063 b 70 1053 125 1063 99 1059 b 52 1041 62 1051 56 1047 b 44 1021 47 1035 44 1028 l 45 1013 b 77 987 51 996 62 987 l 85 988 b 141 996 106 993 125 996 b 203 977 169 996 189 989 b 229 930 216 965 225 949 b 235 865 233 910 235 888 b 226 737 235 827 232 784 b 216 603 220 690 216 646 b 254 466 216 539 229 494 b 216 330 229 438 216 393 b 226 196 216 287 220 243 b 235 66 232 149 235 106 b 229 3 235 43 233 22 b 203 -45 225 -17 216 -33 b 140 -63 189 -57 168 -63 b 85 -56 124 -63 106 -61 l 77 -56 b 45 -81 62 -56 51 -64 l 44 -89 b 52 -109 44 -96 47 -102 b 70 -121 56 -115 62 -119 b 148 -131 99 -127 125 -131 z "},"~":{"ha":155,"x_min":0,"x_max":0,"o":"m 77 552 b 101 562 86 552 94 555 b 111 586 107 568 111 576 l 111 696 b 101 720 111 705 107 713 b 77 730 94 726 86 730 b 54 720 68 730 60 726 b 44 696 47 713 44 705 l 44 586 b 54 562 44 576 47 568 b 77 552 60 555 68 552 z m 77 -237 b 101 -227 86 -237 94 -233 b 111 -203 107 -220 111 -212 l 111 422 b 101 446 111 431 107 439 b 77 455 94 452 86 455 b 54 446 68 455 60 452 b 44 422 47 439 44 431 l 44 -203 b 54 -227 44 -212 47 -220 b 77 -237 60 -233 68 -237 z "},"¡":{"ha":555,"x_min":0,"x_max":0,"o":"m 78 320 b 101 330 87 321 95 324 b 111 353 107 336 111 344 l 111 357 b 130 427 111 387 117 410 b 178 452 143 444 159 452 b 257 402 206 452 232 435 b 322 344 277 376 299 357 b 389 325 345 331 367 325 b 450 343 412 325 432 331 b 495 397 469 355 484 374 b 511 484 506 421 511 450 b 502 508 511 493 508 501 b 478 517 495 514 487 517 b 455 508 469 517 461 514 b 445 484 448 501 445 493 b 429 414 445 453 439 430 b 388 391 418 399 404 391 b 311 442 364 391 338 408 b 246 500 291 469 269 488 b 178 518 223 512 201 518 b 112 499 155 518 132 512 b 63 444 92 486 75 467 b 44 357 50 419 44 391 b 54 330 44 345 47 336 b 78 320 61 323 69 320 z "},"¢":{"ha":730,"x_min":0,"x_max":0,"o":"m 107 -105 b 138 -86 120 -105 130 -99 l 244 143 b 393 107 294 119 343 107 b 554 150 449 107 503 121 b 681 271 605 178 647 218 b 686 289 684 277 686 283 b 671 317 686 300 681 309 b 653 322 665 320 659 322 b 625 307 642 322 633 317 b 523 208 597 264 564 231 b 393 174 481 185 438 174 b 272 203 352 174 312 184 l 528 755 b 625 659 568 730 600 699 b 653 644 633 649 642 644 b 671 649 659 644 665 646 b 686 677 681 656 686 666 b 681 695 686 684 684 689 b 556 815 649 745 607 785 l 653 1023 b 656 1037 655 1028 656 1032 b 637 1068 656 1050 650 1061 b 623 1071 632 1070 628 1071 b 593 1052 610 1071 600 1065 l 77 -58 b 75 -72 75 -62 75 -67 b 94 -102 75 -85 81 -95 b 107 -105 98 -104 102 -105 z m 140 245 b 159 251 146 245 153 247 b 173 279 168 258 173 268 b 168 297 173 285 171 291 b 111 483 130 354 111 416 b 148 636 111 538 123 589 b 248 749 172 683 205 720 b 393 792 291 778 339 792 b 417 802 402 792 410 795 b 427 825 423 808 427 817 b 417 849 427 834 423 842 b 393 859 410 855 402 859 b 257 829 345 859 300 849 b 145 747 214 810 177 782 b 70 623 112 710 87 669 b 44 483 53 578 44 531 b 61 367 44 444 50 405 b 113 259 73 329 90 293 b 140 245 120 250 130 245 z "},"£":{"ha":828,"x_min":0,"x_max":0,"o":"m 161 -2 b 252 16 187 -2 217 4 b 359 102 296 31 332 60 b 445 64 389 90 418 77 b 541 22 478 48 510 34 b 631 5 571 11 601 5 b 774 72 682 5 729 27 b 784 96 781 79 784 87 b 774 119 784 104 781 112 b 751 129 767 125 760 129 b 728 119 743 129 735 125 b 627 74 697 89 664 74 b 553 89 604 74 578 79 b 473 125 528 99 501 111 b 385 163 446 138 416 151 b 391 218 389 182 391 199 b 335 404 391 275 372 337 l 624 404 b 646 412 633 404 640 406 b 654 434 652 418 654 425 b 646 456 654 443 652 450 b 624 465 640 462 633 465 l 297 465 l 281 488 b 240 554 267 510 253 532 b 208 621 227 576 216 599 b 195 690 199 644 195 667 b 252 853 195 758 214 812 b 403 915 293 895 343 915 b 533 869 455 915 498 900 b 605 749 568 839 592 799 b 617 731 607 742 611 736 b 637 724 623 726 630 724 l 646 726 b 664 738 653 728 659 732 b 671 758 669 744 671 751 l 669 766 b 572 924 652 832 619 884 b 492 968 547 943 521 958 b 402 982 463 977 433 982 b 295 961 366 982 330 975 b 203 899 260 947 230 926 b 127 690 153 845 127 775 b 140 610 127 662 132 635 b 174 536 149 585 160 560 b 218 465 187 513 202 488 l 96 465 b 75 456 87 465 81 462 b 66 434 68 450 66 443 b 75 412 66 425 68 418 b 96 404 81 406 87 404 l 258 404 b 317 271 286 361 306 317 b 324 217 322 251 324 233 b 321 185 324 205 323 195 b 205 201 288 195 250 200 b 114 184 168 201 138 195 b 61 141 90 172 72 158 b 44 90 50 124 44 106 b 75 26 44 66 54 44 b 161 -2 94 7 123 -2 z m 159 64 b 120 74 142 64 129 67 b 111 90 114 79 111 84 b 115 102 111 94 112 98 b 208 134 129 123 160 134 b 293 123 238 134 267 131 b 229 79 276 102 254 87 b 159 64 201 68 178 64 z "},"₤":{"ha":829,"x_min":0,"x_max":0,"o":"m 161 -2 b 252 16 187 -2 217 4 b 359 102 296 31 332 60 b 446 64 380 94 408 81 b 541 22 479 48 511 34 b 631 5 572 11 602 5 b 774 72 682 5 729 27 b 785 96 781 79 785 87 b 774 119 785 104 781 112 b 751 129 767 125 760 129 b 728 119 743 129 735 125 b 627 74 697 89 664 74 b 553 89 604 74 578 79 b 473 125 528 99 501 111 b 385 163 446 138 416 151 b 391 218 389 181 391 199 b 366 338 391 258 382 298 l 624 338 b 646 347 633 338 640 341 b 654 369 652 353 654 360 b 646 391 654 378 652 385 b 624 399 640 397 633 399 l 337 399 b 277 496 318 433 298 465 l 260 522 l 624 522 b 646 531 633 522 640 525 b 654 553 652 537 654 544 b 646 575 654 562 652 569 b 624 584 640 581 633 584 l 224 584 b 195 690 204 621 195 656 b 252 853 195 758 214 812 b 403 915 293 895 343 915 b 533 869 455 915 498 900 b 606 749 568 839 592 799 b 617 731 608 742 611 736 b 637 724 623 726 630 724 l 646 726 b 671 758 663 732 671 743 l 669 766 b 572 924 652 832 619 884 b 492 968 547 943 521 958 b 402 982 463 977 433 982 b 295 961 366 982 330 975 b 203 899 260 947 230 926 b 127 690 153 845 127 775 b 151 584 127 656 135 621 l 96 584 b 75 575 87 584 81 581 b 66 553 68 569 66 562 b 75 531 66 544 68 537 b 96 522 81 525 87 522 l 182 522 b 223 456 195 500 209 478 b 260 399 236 437 248 418 l 96 399 b 75 391 87 399 81 397 b 66 369 68 385 66 378 b 75 347 66 360 68 353 b 96 338 81 341 87 338 l 294 338 b 324 217 314 295 324 255 b 321 185 324 206 323 195 b 205 201 288 195 250 200 b 114 184 168 201 138 195 b 61 141 90 172 72 158 b 44 90 50 124 44 106 b 75 26 44 66 54 44 b 161 -2 94 7 123 -2 z m 159 64 b 120 74 142 64 129 67 b 111 90 114 79 111 84 b 115 102 111 94 113 98 b 208 134 129 123 160 134 b 294 123 238 134 267 131 b 229 79 276 102 254 87 b 159 64 201 68 178 64 z "},"₣":{"ha":835,"x_min":0,"x_max":0,"o":"m 262 0 b 286 10 271 0 279 3 b 295 34 292 16 295 24 l 295 203 l 489 203 b 511 213 498 203 505 207 b 519 235 517 219 519 226 b 511 256 519 243 517 250 b 489 265 505 262 498 265 l 295 265 l 295 519 l 720 519 b 742 528 728 519 736 522 b 751 549 748 534 751 541 b 742 572 751 558 748 566 b 720 581 736 578 728 581 l 295 581 l 295 899 l 758 899 b 781 909 766 899 774 902 b 791 932 787 915 791 923 b 781 956 791 941 787 949 b 758 966 774 962 766 966 l 262 966 b 238 956 252 965 244 962 b 229 932 232 949 229 941 l 229 265 l 75 265 b 53 256 66 265 59 262 b 44 235 47 250 44 243 b 53 213 44 226 47 219 b 75 203 59 207 66 203 l 229 203 l 229 34 b 239 10 229 24 232 16 b 262 0 245 3 253 0 z "},"€":{"ha":879,"x_min":0,"x_max":0,"o":"m 543 -16 b 656 7 583 -16 621 -9 b 753 69 692 22 724 43 b 829 159 783 96 808 125 b 835 178 833 165 835 172 b 819 205 835 189 829 198 b 801 211 813 209 807 211 b 774 196 790 211 781 206 b 667 87 744 149 709 113 b 543 51 626 63 585 51 b 327 174 463 51 390 92 b 252 338 293 220 268 275 l 602 338 b 624 347 611 338 618 341 b 633 369 630 353 633 360 b 624 391 633 378 630 385 b 602 399 618 397 611 399 l 239 399 b 233 482 235 427 233 454 b 235 522 233 495 234 509 l 602 522 b 624 531 611 522 618 525 b 633 553 630 537 633 544 b 624 575 633 562 630 569 b 602 584 618 581 611 584 l 242 584 b 327 792 256 666 285 735 b 425 882 355 831 388 861 b 543 915 462 904 501 915 b 675 874 591 915 635 901 b 774 770 714 847 747 812 b 802 755 781 760 791 755 b 819 760 808 755 814 757 b 835 789 829 768 835 777 b 829 806 835 795 833 800 b 753 897 808 840 783 871 b 656 960 724 924 692 944 b 543 982 621 975 583 982 b 395 942 490 982 441 968 b 274 832 349 916 309 879 b 174 584 223 764 190 681 l 75 584 b 53 575 66 584 59 581 b 44 553 47 569 44 562 b 53 531 44 544 47 537 b 75 522 59 525 66 522 l 168 522 b 167 481 168 509 167 495 b 172 399 167 454 169 427 l 75 399 b 53 391 66 399 59 397 b 44 369 47 385 44 378 b 53 347 44 360 47 353 b 75 338 59 341 66 338 l 183 338 b 274 134 201 260 232 191 b 395 24 309 87 349 50 b 543 -16 441 -3 490 -16 z "},"¥":{"ha":820,"x_min":0,"x_max":0,"o":"m 410 0 b 434 10 419 0 427 3 b 444 34 440 16 444 24 l 444 186 l 674 186 b 696 195 683 186 690 189 b 705 216 702 201 705 208 b 696 239 705 225 702 233 b 674 248 690 245 683 248 l 444 248 l 444 349 l 674 349 b 696 359 683 349 690 353 b 705 380 702 365 705 372 b 696 402 705 389 702 396 b 674 411 690 408 683 411 l 471 411 l 771 916 b 776 934 774 922 776 928 b 760 962 776 945 770 954 b 743 966 754 965 749 966 b 714 951 731 966 722 961 l 410 439 l 106 951 b 78 966 98 961 89 966 b 60 962 72 966 66 965 b 44 933 50 954 44 945 b 49 916 44 927 45 922 l 350 411 l 146 411 b 125 402 138 411 131 408 b 116 380 119 396 116 389 b 125 359 116 372 119 365 b 146 349 131 353 138 349 l 377 349 l 377 248 l 146 248 b 125 239 138 248 131 245 b 116 216 119 233 116 225 b 125 195 116 208 119 201 b 146 186 131 189 138 186 l 377 186 l 377 34 b 387 10 377 24 380 16 b 410 0 393 3 401 0 z "},"ß":{"ha":746,"x_min":0,"x_max":0,"o":"m 471 0 b 588 33 514 0 553 11 b 671 119 623 54 650 83 b 702 238 692 155 702 195 b 671 357 702 281 692 321 b 588 444 650 393 623 422 b 471 476 553 465 514 476 l 283 476 b 262 485 275 476 269 479 b 254 504 256 491 254 497 b 262 524 254 511 256 517 b 283 532 267 529 275 532 l 450 532 b 609 592 511 532 565 552 b 659 663 631 613 648 636 b 675 743 669 689 675 715 b 659 827 675 772 669 800 b 608 901 647 854 631 879 b 474 964 572 937 528 958 b 259 966 471 965 399 966 b 245 964 255 966 250 965 b 111 901 193 958 148 937 b 44 743 66 857 44 804 l 44 34 b 54 10 44 24 47 16 b 77 0 60 3 68 0 b 101 10 86 0 94 3 b 111 34 107 16 111 24 l 111 744 b 158 854 111 787 126 823 b 270 899 189 884 227 899 l 450 899 b 562 854 492 899 530 884 b 608 743 593 823 608 787 b 587 667 608 714 601 689 b 528 617 572 646 552 629 b 450 599 505 605 478 599 l 283 599 b 216 571 257 599 235 589 b 187 505 197 550 187 528 b 214 439 187 480 196 458 b 283 409 232 419 255 409 l 471 409 b 588 359 517 409 556 392 b 635 238 620 325 635 285 b 588 118 635 191 620 151 b 471 67 556 84 517 67 l 233 67 b 210 58 224 67 216 64 b 199 34 203 51 199 43 b 210 10 199 24 203 16 b 233 0 216 3 224 0 z "},"Þ":{"ha":795,"x_min":0,"x_max":0,"o":"m 139 0 b 206 26 164 0 186 9 b 236 96 226 44 236 67 l 236 261 b 227 285 236 270 233 278 b 203 295 220 292 212 295 b 180 285 194 295 186 292 b 170 261 173 278 170 270 l 170 96 b 160 76 170 88 166 81 b 140 67 154 70 147 67 b 120 75 133 67 126 70 b 111 96 114 81 111 87 l 111 710 l 503 710 b 629 650 552 710 594 690 b 670 581 648 629 661 606 b 684 501 679 555 684 528 b 670 422 684 474 679 448 b 629 352 661 396 648 373 b 503 292 594 312 552 292 l 355 292 b 332 283 346 292 338 289 b 321 259 325 276 321 268 b 332 236 321 250 325 242 b 355 226 338 229 346 226 l 503 226 b 631 264 551 226 593 239 b 719 366 668 290 697 324 b 751 501 740 408 751 453 b 719 637 751 549 740 595 b 631 739 697 678 668 712 b 503 777 593 764 551 777 l 111 777 l 111 932 b 101 956 111 941 107 949 b 77 966 94 962 86 966 b 54 956 68 966 60 962 b 44 932 47 949 44 941 l 44 96 b 73 28 44 70 54 47 b 139 0 94 9 116 0 z "},"þ":{"ha":901,"x_min":0,"x_max":0,"o":"m 130 -235 b 191 -210 152 -235 172 -227 b 217 -148 208 -195 217 -174 l 217 353 b 240 473 217 396 224 435 b 302 570 255 510 275 542 b 397 637 330 600 362 622 b 506 659 433 651 469 659 b 614 637 543 659 579 651 b 710 570 650 622 682 600 b 774 469 739 540 760 506 b 795 353 788 431 795 393 b 774 239 795 315 788 276 b 711 138 760 201 739 168 b 615 71 682 108 650 85 b 506 48 580 56 543 48 b 357 92 455 48 406 62 b 341 96 352 95 347 96 b 315 82 331 96 323 92 b 311 65 312 77 311 71 b 325 39 311 55 315 46 b 506 -14 381 4 441 -14 b 684 37 572 -14 631 3 b 810 171 736 70 779 115 b 857 353 841 227 857 288 b 810 536 857 420 841 481 b 684 670 779 592 736 637 b 506 720 631 703 572 720 b 328 670 440 720 381 703 b 202 536 275 637 233 592 b 155 353 171 481 155 420 l 155 -148 b 148 -165 155 -155 153 -161 b 131 -173 143 -170 137 -173 b 114 -165 125 -173 119 -170 b 106 -148 109 -161 106 -155 l 106 932 b 97 954 106 941 103 948 b 75 963 91 960 84 963 b 54 954 66 963 60 960 b 44 932 47 948 44 941 l 44 -148 b 70 -209 44 -172 53 -192 b 130 -235 89 -226 109 -235 z "},"Ð":{"ha":965,"x_min":0,"x_max":0,"o":"m 480 0 b 701 65 561 0 634 22 b 861 238 768 108 821 165 b 921 478 901 311 921 391 b 792 824 921 615 878 730 b 652 928 752 868 705 903 b 480 966 598 954 541 966 l 253 966 b 229 956 243 966 235 962 b 220 932 223 949 220 941 l 220 463 l 75 463 b 53 454 66 463 59 460 b 44 433 47 448 44 441 b 53 411 44 424 47 417 b 75 401 59 405 66 401 l 220 401 l 220 34 b 229 10 220 24 223 16 b 253 0 235 3 243 0 b 277 10 262 0 270 3 b 286 34 283 16 286 24 l 286 401 l 489 401 b 511 411 498 401 505 405 b 519 433 517 417 519 424 b 511 454 519 441 517 448 b 489 463 505 460 498 463 l 286 463 l 286 899 l 480 899 b 667 844 549 899 611 880 b 804 695 724 806 769 757 b 854 488 838 633 854 564 b 743 186 854 368 817 267 b 625 99 709 149 669 120 b 480 67 579 78 531 67 l 408 67 b 385 58 399 67 391 64 b 374 34 378 51 374 43 b 385 10 374 24 378 16 b 408 0 391 3 399 0 z "},"ð":{"ha":1003,"x_min":0,"x_max":0,"o":"m 395 -14 b 572 37 460 -14 519 3 b 699 171 625 70 667 115 b 745 353 730 227 745 288 l 745 779 l 795 779 l 795 34 b 804 12 795 25 798 18 b 825 3 810 6 817 3 b 847 12 834 3 841 6 b 856 34 853 18 856 25 l 856 779 l 928 779 b 950 788 937 779 944 782 b 959 810 956 794 959 801 b 950 832 959 819 956 826 b 928 841 944 838 937 841 l 856 841 l 856 892 b 831 954 856 917 848 937 b 771 979 812 971 792 979 b 711 956 749 979 729 971 b 684 892 692 940 684 919 l 684 841 l 514 841 b 492 832 505 841 498 838 b 484 810 486 826 484 819 b 492 788 484 801 486 794 b 514 779 498 782 505 779 l 684 779 l 684 353 b 661 235 684 311 676 271 b 599 137 646 197 625 165 b 503 71 570 107 538 85 b 395 48 467 56 431 48 b 286 71 357 48 321 56 b 191 138 251 85 219 107 b 127 239 162 168 141 201 b 106 353 113 276 106 315 b 127 469 106 393 113 431 b 191 570 141 506 162 540 b 286 637 218 599 250 621 b 395 659 321 652 358 659 b 543 616 446 659 495 645 b 559 611 549 612 554 611 b 585 625 570 611 578 616 b 590 642 589 631 590 636 b 576 668 590 652 585 661 b 395 720 519 703 459 720 b 217 670 329 720 270 703 b 91 536 164 637 122 592 b 44 353 60 481 44 420 b 91 171 44 288 60 227 b 217 37 122 115 164 70 b 395 -14 270 3 329 -14 z m 795 841 l 745 841 l 745 892 b 753 910 745 899 748 905 b 770 918 758 915 764 918 b 787 911 776 918 782 916 b 795 892 792 906 795 900 z "},"§":{"ha":638,"x_min":0,"x_max":0,"o":"m 340 -16 b 446 2 376 -16 411 -10 b 538 56 481 14 511 32 b 590 146 564 79 581 110 b 594 182 593 159 594 170 b 555 280 594 217 581 250 b 458 355 530 311 497 335 b 343 397 420 374 381 388 b 338 397 342 397 340 397 b 247 429 309 405 279 415 b 168 481 214 443 188 460 b 147 533 154 497 147 515 b 155 570 147 545 150 557 b 158 583 157 575 158 579 b 138 614 158 596 151 606 b 125 616 134 616 130 616 b 94 596 112 616 102 610 b 81 532 85 574 81 553 b 118 437 81 497 93 466 b 229 363 148 406 185 382 b 281 345 243 357 260 351 b 330 331 301 338 317 333 b 466 273 380 320 425 301 b 527 180 507 245 527 215 b 525 161 527 174 526 168 b 454 77 515 124 492 96 b 341 51 418 60 380 51 b 186 100 286 51 234 67 b 110 212 144 130 119 168 b 98 233 109 221 104 228 b 77 241 92 238 85 241 b 53 229 66 240 58 236 b 44 208 47 222 44 215 l 45 201 b 147 46 58 138 92 86 b 340 -16 205 5 269 -16 z m 522 393 b 553 414 535 393 545 400 b 559 434 555 421 557 428 l 560 437 b 564 470 563 448 564 459 b 474 612 564 525 534 572 b 362 664 439 635 401 652 b 325 674 355 666 343 669 b 218 717 280 686 244 700 b 153 808 175 745 153 775 b 174 861 153 827 160 845 b 231 901 188 878 207 890 b 316 915 255 910 283 915 b 418 882 356 915 390 904 b 476 792 446 859 465 829 b 488 774 478 785 482 779 b 507 768 494 770 500 768 b 534 781 519 768 528 772 b 541 802 539 787 541 794 l 540 810 b 458 935 524 863 497 904 b 316 982 418 966 371 982 b 203 961 273 982 236 975 b 124 905 170 947 144 928 b 87 808 99 875 87 843 b 105 739 87 785 93 762 b 178 664 119 711 144 686 b 312 609 212 642 256 623 b 429 562 354 600 393 584 b 497 469 475 535 497 504 b 491 439 497 459 495 449 b 489 427 490 435 489 431 b 510 395 489 413 496 403 b 522 393 514 394 518 393 z "},"ı":{"ha":253,"x_min":0,"x_max":0,"o":"m 178 3 b 200 12 186 3 194 6 b 209 34 206 18 209 25 l 209 671 b 200 693 209 680 206 687 b 178 702 194 699 186 702 l 75 702 b 54 693 66 702 60 699 b 44 671 47 687 44 680 b 54 650 44 663 47 656 b 75 640 60 644 66 640 l 147 640 l 147 34 b 157 12 147 25 151 18 b 178 3 163 6 170 3 z "},"¨":{"ha":326,"x_min":0,"x_max":0,"o":"m 251 785 b 273 795 259 785 267 789 b 281 817 279 801 281 808 l 281 913 b 273 936 281 922 279 930 b 251 945 267 942 259 945 b 229 936 242 945 235 942 b 220 913 223 930 220 922 l 220 817 b 229 795 220 808 223 801 b 251 785 235 789 242 785 z m 75 785 b 96 795 83 785 90 789 b 105 817 102 801 105 808 l 105 913 b 96 936 105 922 102 930 b 75 945 90 942 83 945 b 53 936 66 945 59 942 b 44 913 47 930 44 922 l 44 817 b 53 795 44 808 47 801 b 75 785 59 789 66 785 z "},"·":{"ha":191,"x_min":0,"x_max":0,"o":"m 95 361 b 132 376 109 361 121 366 b 146 413 142 387 146 399 l 146 448 b 132 484 146 463 142 474 b 95 499 121 494 109 499 b 59 484 81 499 69 494 b 44 448 49 474 44 463 l 44 413 b 59 376 44 399 49 387 b 95 361 69 366 81 361 z "},"©":{"ha":981,"x_min":0,"x_max":0,"o":"m 490 -14 b 717 51 574 -14 650 8 b 878 222 784 94 838 151 b 937 454 917 293 937 370 b 878 688 937 539 917 616 b 717 859 838 759 784 816 b 490 923 650 901 574 923 b 264 859 407 923 331 901 b 104 688 197 816 143 759 b 44 454 64 616 44 539 b 104 222 44 370 64 293 b 264 51 143 151 197 94 b 490 -14 331 8 407 -14 z m 490 48 b 347 78 441 48 393 58 b 219 168 300 98 257 127 b 134 302 181 208 153 252 b 106 455 115 351 106 403 b 134 608 106 507 115 558 b 219 742 153 657 181 702 b 347 831 257 782 300 812 b 490 861 393 851 441 861 b 635 831 540 861 588 851 b 762 742 682 812 724 782 b 847 608 800 702 828 657 b 876 455 866 558 876 507 b 847 302 876 403 866 351 b 762 168 828 252 800 208 b 635 78 724 127 682 98 b 490 48 588 58 540 48 z m 497 132 b 659 179 554 132 608 148 b 779 314 710 210 750 255 b 781 328 781 319 781 323 b 764 355 781 339 776 348 b 751 358 760 357 755 358 b 724 340 739 358 730 352 b 627 232 701 293 669 257 b 497 195 586 207 543 195 b 404 213 465 195 435 201 b 321 270 374 225 347 244 b 266 357 296 296 278 325 b 247 454 253 389 247 421 b 266 553 247 488 253 521 b 321 639 278 585 296 613 b 404 696 347 665 374 684 b 497 715 435 709 465 715 b 622 681 541 715 582 703 b 717 581 661 659 693 625 b 743 565 724 570 733 565 b 758 569 748 565 753 566 b 774 596 769 576 774 585 b 771 610 774 601 773 606 b 652 734 741 665 702 706 b 497 777 603 763 551 777 b 381 754 458 777 419 770 b 278 682 343 739 309 714 b 209 575 247 650 224 614 b 186 455 193 536 186 496 b 209 334 186 414 193 374 b 278 227 224 295 247 259 b 381 156 309 195 343 172 b 497 132 419 140 458 132 z "},"®":{"ha":618,"x_min":0,"x_max":0,"o":"m 214 461 b 231 468 220 461 226 463 b 237 484 235 473 237 478 l 237 767 l 361 767 b 396 751 374 767 386 762 b 411 714 406 739 411 727 b 397 677 411 701 406 688 b 361 661 388 667 376 661 l 285 661 b 269 654 279 661 274 659 b 262 638 264 650 262 644 b 269 622 262 632 264 627 b 285 615 274 617 279 615 l 347 615 l 393 477 b 401 467 395 473 397 469 b 415 462 406 463 410 462 l 422 463 b 438 485 433 468 438 475 b 393 621 437 490 422 535 b 429 644 407 626 419 634 b 457 713 448 666 457 689 b 431 783 457 739 448 762 b 361 813 412 803 389 813 l 214 813 b 198 806 208 813 203 811 b 191 790 193 802 191 796 l 191 484 b 198 468 191 478 193 473 b 214 461 203 463 208 461 z m 309 360 b 444 398 358 360 404 373 b 538 499 484 423 515 457 b 574 637 562 541 574 587 b 538 776 574 688 562 734 b 444 877 515 818 484 852 b 309 915 404 902 358 915 b 175 877 259 915 215 902 b 79 776 135 852 103 818 b 44 637 56 734 44 688 b 79 499 44 587 56 541 b 175 398 103 457 135 423 b 309 360 215 373 259 360 z m 309 406 b 227 423 281 406 254 412 b 155 475 201 435 176 452 b 106 551 133 497 117 523 b 90 638 96 579 90 608 b 106 725 90 667 96 696 b 155 802 117 753 133 779 b 227 852 176 824 201 841 b 309 869 254 863 281 869 b 391 852 337 869 364 863 b 463 802 417 841 441 824 b 511 725 484 779 500 753 b 528 638 522 696 528 667 b 511 551 528 608 522 579 b 463 475 500 523 484 497 b 391 423 441 452 417 435 b 309 406 364 412 337 406 z "},"«":{"ha":519,"x_min":0,"x_max":0,"o":"m 441 138 b 461 144 448 138 455 140 b 475 171 470 152 475 161 b 469 191 475 178 473 184 l 296 431 l 469 670 b 475 690 473 676 475 683 b 461 717 475 700 470 709 b 441 723 455 721 448 723 b 415 709 431 723 422 718 l 233 456 b 226 435 228 450 226 443 l 227 431 l 226 425 b 233 405 226 418 228 412 l 415 152 b 441 138 422 143 431 138 z m 259 138 b 279 144 266 138 273 140 b 292 171 288 152 292 161 b 286 191 292 178 290 184 l 114 431 l 286 670 b 292 690 290 676 292 683 b 279 717 292 700 288 709 b 259 723 273 721 266 723 b 233 709 249 723 240 718 l 50 456 b 44 437 46 450 44 444 l 45 431 l 44 424 b 50 405 44 418 46 411 l 233 152 b 259 138 240 143 249 138 z "},"»":{"ha":519,"x_min":0,"x_max":0,"o":"m 260 138 b 286 152 270 138 279 143 l 469 405 b 475 425 473 412 475 418 l 475 431 l 475 435 b 469 456 475 443 473 450 l 286 709 b 260 723 279 718 270 723 b 240 717 253 723 246 721 b 227 690 231 709 227 700 b 233 670 227 683 229 676 l 405 431 l 233 191 b 227 171 229 184 227 178 b 240 144 227 161 231 152 b 260 138 246 140 253 138 z m 77 138 b 104 152 87 138 97 143 l 286 405 b 293 425 291 412 293 418 l 292 431 l 293 435 b 286 456 293 443 291 450 l 104 709 b 77 723 97 718 87 723 b 58 717 71 723 64 721 b 44 689 49 709 44 699 b 50 670 44 682 46 676 l 223 431 l 50 191 b 44 172 46 184 44 178 b 58 144 44 161 49 152 b 77 138 64 140 71 138 z "},"°":{"ha":374,"x_min":0,"x_max":0,"o":"m 187 655 b 289 699 227 655 261 670 b 330 804 317 728 330 764 b 289 909 330 844 317 880 b 187 953 261 938 227 953 b 86 909 147 953 114 938 b 44 804 58 880 44 844 b 86 699 44 764 58 728 b 187 655 114 670 147 655 z m 189 706 b 125 733 165 706 144 715 b 96 804 105 751 96 774 b 124 876 96 833 105 857 b 189 902 143 893 165 902 b 252 873 211 902 232 892 b 279 804 271 852 279 829 b 252 734 279 779 271 755 b 189 706 232 715 211 706 z "},"º":{"ha":387,"x_min":0,"x_max":0,"o":"m 193 502 b 324 578 260 503 304 528 b 340 651 333 600 338 625 b 342 751 342 677 342 710 b 339 826 342 775 341 800 b 322 896 337 851 331 875 b 278 947 313 917 298 934 b 193 966 258 960 229 966 b 109 947 157 966 129 960 b 65 896 89 934 74 917 b 47 826 56 875 50 851 b 44 751 45 800 44 775 b 47 651 44 710 45 677 b 106 524 51 591 71 548 b 193 502 127 509 156 503 z m 193 553 b 136 570 169 553 150 559 b 107 612 123 581 113 595 b 97 669 101 629 98 648 b 95 739 96 689 95 713 b 97 808 95 766 96 789 b 193 916 103 880 135 916 b 250 899 218 916 237 910 b 279 857 264 888 273 874 b 290 801 286 840 289 821 b 292 730 291 780 292 756 b 290 661 292 703 291 680 b 193 553 283 589 252 553 z "},"¹":{"ha":227,"x_min":0,"x_max":0,"o":"m 70 810 b 90 819 77 810 83 813 l 176 924 b 182 941 180 929 182 935 b 173 961 182 948 179 955 b 157 967 168 965 163 967 b 137 958 149 967 143 964 l 50 852 b 44 836 46 847 44 842 b 54 816 44 828 47 822 b 70 810 58 812 64 810 z m 157 502 b 176 510 165 502 171 505 b 183 528 180 515 183 521 l 183 812 b 176 830 183 819 180 825 b 157 838 171 835 165 838 b 140 830 151 838 144 835 b 132 812 134 825 132 819 l 132 528 b 140 510 132 521 134 515 b 157 502 144 505 151 502 z "},"²":{"ha":373,"x_min":0,"x_max":0,"o":"m 303 502 b 321 510 311 502 317 505 b 329 528 326 515 329 521 b 321 546 329 535 326 541 b 303 553 317 551 311 553 l 72 553 b 54 546 65 553 59 551 b 47 528 50 541 47 535 b 54 510 47 521 50 515 b 72 502 59 505 65 502 z m 69 581 b 92 595 79 581 86 585 b 136 644 102 612 117 629 b 198 688 155 659 176 674 b 279 749 228 707 255 728 b 329 855 313 779 329 814 b 290 942 329 892 316 921 b 193 974 263 963 231 974 b 105 945 159 974 130 964 b 48 870 79 926 60 901 b 47 861 47 867 47 864 b 63 837 47 850 52 842 b 72 836 66 836 69 836 b 96 852 82 836 90 841 b 134 903 104 873 117 890 b 193 923 151 916 170 923 b 254 906 217 923 237 918 b 278 854 270 895 278 878 b 276 835 278 848 277 842 b 241 783 272 817 260 799 b 174 734 222 767 199 751 b 102 682 149 718 125 701 b 47 618 78 663 60 642 b 44 606 45 614 44 610 b 58 583 44 597 49 589 b 69 581 62 581 66 581 z "},"³":{"ha":388,"x_min":0,"x_max":0,"o":"m 190 502 b 271 522 218 502 245 509 b 328 581 296 536 315 555 b 344 650 338 604 344 626 b 328 714 344 672 338 694 b 281 765 318 734 302 751 b 327 853 311 785 327 814 b 309 920 327 880 321 901 b 258 960 296 937 279 951 b 190 974 237 969 215 974 b 60 898 136 974 92 949 b 56 884 57 893 56 889 b 68 863 56 876 60 869 b 81 859 73 861 77 859 b 103 871 90 859 97 863 b 190 922 124 905 153 922 b 245 909 210 922 228 918 b 275 866 261 901 271 886 l 275 853 b 262 816 275 838 271 825 b 228 795 254 806 242 800 b 185 789 214 791 199 789 b 166 781 176 789 170 787 b 160 764 162 776 160 770 b 166 746 160 758 162 751 b 185 738 170 741 176 738 b 247 726 211 738 231 734 b 281 694 262 718 273 707 b 292 650 288 680 292 665 b 263 580 292 621 283 597 b 190 553 243 562 219 553 b 131 573 168 553 148 560 b 94 624 114 586 101 603 b 69 641 88 635 80 641 b 60 640 66 641 64 640 b 44 615 50 633 44 625 b 45 606 44 612 45 610 b 102 531 58 575 77 550 b 190 502 127 511 157 502 z "},"¸":{"ha":302,"x_min":0,"x_max":0,"o":"m 148 -227 b 167 -225 154 -227 161 -226 b 235 -191 197 -220 219 -209 b 258 -135 250 -174 258 -155 b 237 -83 258 -116 251 -99 b 159 -53 220 -65 195 -55 b 134 -54 151 -53 142 -54 b 149 -3 143 -25 148 -8 b 132 18 149 6 143 14 l 126 19 b 104 3 116 19 109 14 b 79 -81 88 -49 79 -77 b 85 -97 79 -87 81 -92 b 102 -104 90 -102 96 -104 l 124 -102 b 159 -99 137 -100 149 -99 b 199 -110 176 -100 190 -104 b 212 -136 208 -117 212 -125 b 191 -168 212 -149 204 -160 b 147 -180 178 -176 163 -180 b 113 -172 135 -180 123 -178 b 87 -146 102 -167 94 -158 b 67 -133 83 -138 76 -133 b 58 -135 64 -133 61 -134 b 44 -156 49 -140 44 -147 b 46 -165 44 -159 45 -162 b 88 -212 56 -186 70 -201 b 148 -227 106 -222 127 -227 z "},"¿":{"ha":658,"x_min":0,"x_max":0,"o":"m 356 568 b 380 578 365 568 373 571 b 389 601 386 584 389 592 l 389 711 b 380 735 389 720 386 728 b 356 745 373 741 365 745 b 333 735 347 745 339 741 b 323 711 326 728 323 720 l 323 601 b 333 578 323 592 326 584 b 356 568 339 571 347 568 z m 319 -237 b 497 -178 385 -237 444 -217 b 612 -24 549 -140 588 -89 b 614 -14 613 -21 614 -17 b 592 18 614 1 606 11 b 581 20 588 20 584 20 b 549 -1 567 20 557 13 b 460 -123 531 -51 501 -92 b 319 -170 418 -155 372 -170 b 217 -152 283 -170 249 -164 b 140 -97 185 -140 160 -122 b 111 -1 121 -72 111 -40 b 131 93 111 36 117 68 b 182 159 144 118 161 140 b 248 212 203 178 224 195 b 316 267 272 229 294 247 b 369 336 337 286 355 309 b 389 435 382 362 389 395 b 380 459 389 444 386 452 b 356 469 373 465 365 469 b 333 459 347 469 339 465 b 323 435 326 452 323 444 b 306 362 323 407 317 382 b 262 308 294 342 280 323 b 202 261 243 292 223 276 b 127 201 176 243 151 223 b 68 120 104 178 83 152 b 44 -1 52 88 44 47 b 83 -131 44 -53 57 -96 b 184 -210 108 -165 142 -192 b 319 -237 225 -228 271 -237 z "},"À":{"ha":755,"x_min":0,"x_max":0,"o":"m 712 -15 b 723 -14 715 -15 720 -14 b 745 19 737 -6 745 5 b 743 29 745 22 744 26 l 418 950 b 406 966 415 958 411 963 b 387 972 399 970 393 972 b 368 966 380 972 374 970 b 355 949 362 962 357 956 l 19 123 b 10 82 13 109 10 96 b 26 30 10 64 16 46 b 68 -7 36 14 50 1 b 106 -15 81 -12 94 -15 b 159 1 125 -15 142 -9 b 196 43 175 11 187 25 l 283 243 l 475 243 b 498 253 484 243 492 246 b 508 276 505 259 508 267 b 498 300 508 286 505 294 b 475 310 492 307 484 310 l 261 310 b 229 286 246 310 235 302 l 135 70 b 107 52 128 58 119 52 b 95 54 103 52 99 52 b 79 71 87 58 81 64 b 77 82 77 75 77 79 b 80 98 77 87 78 92 l 385 846 l 680 7 b 712 -15 688 -7 698 -15 z m 460 1034 b 484 1044 469 1034 477 1037 b 494 1067 490 1051 494 1059 b 484 1091 494 1076 490 1084 l 331 1237 b 308 1246 323 1243 316 1246 b 285 1236 299 1246 291 1243 b 275 1213 278 1229 275 1221 b 286 1189 275 1204 278 1196 l 437 1043 b 460 1034 445 1037 452 1034 z "},"Á":{"ha":755,"x_min":0,"x_max":0,"o":"m 712 -15 b 723 -14 715 -15 720 -14 b 745 19 737 -6 745 5 b 743 29 745 22 744 26 l 418 950 b 406 966 415 958 411 963 b 387 972 399 970 393 972 b 368 966 380 972 374 970 b 355 949 362 962 357 956 l 19 123 b 10 82 13 109 10 96 b 26 30 10 64 16 46 b 68 -7 36 14 50 1 b 106 -15 81 -12 94 -15 b 159 1 125 -15 142 -9 b 196 43 175 11 187 25 l 283 243 l 475 243 b 498 253 484 243 492 246 b 508 276 505 259 508 267 b 498 300 508 286 505 294 b 475 310 492 307 484 310 l 261 310 b 229 286 246 310 235 302 l 135 70 b 107 52 128 58 119 52 b 95 54 103 52 99 52 b 79 71 87 58 81 64 b 77 82 77 75 77 79 b 80 98 77 87 78 92 l 385 846 l 680 7 b 712 -15 688 -7 698 -15 z m 381 1034 b 404 1043 389 1034 397 1037 l 556 1189 b 566 1213 563 1196 566 1204 b 557 1236 566 1221 564 1229 b 534 1246 550 1243 543 1246 b 511 1237 525 1246 517 1243 l 358 1091 b 347 1067 351 1084 347 1076 b 357 1044 347 1059 351 1051 b 381 1034 364 1037 372 1034 z "},"Â":{"ha":755,"x_min":0,"x_max":0,"o":"m 712 -15 b 723 -14 715 -15 720 -14 b 745 19 737 -6 745 5 b 743 29 745 22 744 26 l 418 950 b 406 966 415 958 411 963 b 387 972 399 970 393 972 b 368 966 380 972 374 970 b 355 949 362 962 357 956 l 19 123 b 10 82 13 109 10 96 b 26 30 10 64 16 46 b 68 -7 36 14 50 1 b 106 -15 81 -12 94 -15 b 159 1 125 -15 142 -9 b 196 43 175 11 187 25 l 283 243 l 475 243 b 498 253 484 243 492 246 b 508 276 505 259 508 267 b 498 300 508 286 505 294 b 475 310 492 307 484 310 l 261 310 b 229 286 246 310 235 302 l 135 70 b 107 52 128 58 119 52 b 95 54 103 52 99 52 b 79 71 87 58 81 64 b 77 82 77 75 77 79 b 80 98 77 87 78 92 l 385 846 l 680 7 b 712 -15 688 -7 698 -15 z m 420 1036 b 443 1046 429 1036 436 1040 l 604 1222 b 612 1243 610 1228 612 1236 b 603 1265 612 1251 609 1259 b 582 1274 596 1271 589 1274 b 559 1263 574 1274 566 1270 l 420 1113 l 281 1263 b 259 1274 275 1270 267 1274 b 238 1265 252 1274 245 1271 b 229 1243 232 1259 229 1251 b 237 1222 229 1236 231 1228 l 398 1046 b 420 1036 405 1040 412 1036 z "},"Ã":{"ha":755,"x_min":0,"x_max":0,"o":"m 712 -15 b 723 -14 715 -15 720 -14 b 745 19 737 -6 745 5 b 743 29 745 22 744 26 l 418 950 b 406 966 415 958 411 963 b 387 972 399 970 393 972 b 368 966 380 972 374 970 b 355 949 362 962 357 956 l 19 123 b 10 82 13 109 10 96 b 26 30 10 64 16 46 b 68 -7 36 14 50 1 b 106 -15 81 -12 94 -15 b 159 1 125 -15 142 -9 b 196 43 175 11 187 25 l 283 243 l 475 243 b 498 253 484 243 492 246 b 508 276 505 259 508 267 b 498 300 508 286 505 294 b 475 310 492 307 484 310 l 261 310 b 229 286 246 310 235 302 l 135 70 b 107 52 128 58 119 52 b 95 54 103 52 99 52 b 79 71 87 58 81 64 b 77 82 77 75 77 79 b 80 98 77 87 78 92 l 385 846 l 680 7 b 712 -15 688 -7 698 -15 z m 233 1055 b 255 1064 242 1055 249 1058 b 263 1085 260 1070 263 1077 l 263 1089 b 281 1133 263 1107 269 1122 b 328 1149 292 1143 308 1149 b 372 1138 345 1149 359 1145 b 406 1112 385 1131 396 1122 b 524 1058 443 1076 482 1058 b 606 1091 556 1058 583 1069 b 639 1180 628 1114 639 1143 b 630 1202 639 1189 636 1196 b 608 1211 624 1208 617 1211 b 587 1202 600 1211 593 1208 b 578 1180 581 1196 578 1189 b 572 1149 578 1170 576 1160 b 552 1127 568 1139 561 1132 b 524 1120 543 1122 533 1120 b 509 1121 519 1120 513 1120 b 444 1160 484 1128 463 1141 b 397 1196 431 1173 415 1185 b 328 1211 379 1206 356 1211 b 236 1175 290 1211 260 1198 b 202 1088 214 1152 202 1124 l 202 1084 b 212 1063 202 1076 205 1069 b 233 1055 218 1057 224 1055 z "},"Ä":{"ha":755,"x_min":0,"x_max":0,"o":"m 712 -15 b 723 -14 715 -15 720 -14 b 745 19 737 -6 745 5 b 743 29 745 22 744 26 l 418 950 b 406 966 415 958 411 963 b 387 972 399 970 393 972 b 368 966 380 972 374 970 b 355 949 362 962 357 956 l 19 123 b 10 82 13 109 10 96 b 26 30 10 64 16 46 b 68 -7 36 14 50 1 b 106 -15 81 -12 94 -15 b 159 1 125 -15 142 -9 b 196 43 175 11 187 25 l 283 243 l 475 243 b 498 253 484 243 492 246 b 508 276 505 259 508 267 b 498 300 508 286 505 294 b 475 310 492 307 484 310 l 261 310 b 229 286 246 310 235 302 l 135 70 b 107 52 128 58 119 52 b 95 54 103 52 99 52 b 79 71 87 58 81 64 b 77 82 77 75 77 79 b 80 98 77 87 78 92 l 385 846 l 680 7 b 712 -15 688 -7 698 -15 z m 509 1050 b 530 1059 517 1050 524 1053 b 539 1081 536 1065 539 1072 l 539 1178 b 530 1200 539 1187 536 1194 b 509 1209 524 1206 517 1209 b 487 1200 500 1209 493 1206 b 478 1178 481 1194 478 1187 l 478 1081 b 487 1059 478 1072 481 1065 b 509 1050 493 1053 500 1050 z m 332 1050 b 355 1059 341 1050 349 1053 b 363 1081 361 1065 363 1072 l 363 1178 b 355 1200 363 1187 361 1194 b 332 1209 349 1206 341 1209 b 311 1200 324 1209 317 1206 b 302 1178 305 1194 302 1187 l 302 1081 b 311 1059 302 1072 305 1065 b 332 1050 317 1053 324 1050 z "},"Å":{"ha":755,"x_min":0,"x_max":0,"o":"m 712 -15 b 723 -14 715 -15 720 -14 b 745 19 737 -6 745 5 b 743 29 745 22 744 26 l 418 950 b 406 966 415 958 411 963 b 387 972 399 970 393 972 b 368 966 380 972 374 970 b 355 949 362 962 357 956 l 19 123 b 10 82 13 109 10 96 b 26 30 10 64 16 46 b 68 -7 36 14 50 1 b 106 -15 81 -12 94 -15 b 159 1 125 -15 142 -9 b 196 43 175 11 187 25 l 283 243 l 475 243 b 498 253 484 243 492 246 b 508 276 505 259 508 267 b 498 300 508 286 505 294 b 475 310 492 307 484 310 l 261 310 b 229 286 246 310 235 302 l 135 70 b 107 52 128 58 119 52 b 95 54 103 52 99 52 b 79 71 87 58 81 64 b 77 82 77 75 77 79 b 80 98 77 87 78 92 l 385 846 l 680 7 b 712 -15 688 -7 698 -15 z m 420 1013 b 498 1046 448 1013 474 1024 b 529 1124 519 1069 529 1095 b 499 1204 529 1154 519 1180 b 420 1239 479 1227 453 1239 b 342 1204 388 1239 361 1227 b 311 1125 321 1180 311 1154 b 343 1046 311 1095 322 1069 b 420 1013 367 1024 393 1013 z m 420 1064 b 380 1081 406 1064 392 1069 b 362 1126 368 1093 362 1107 b 380 1171 362 1144 368 1159 b 420 1187 392 1182 406 1187 b 460 1170 435 1187 448 1181 b 478 1126 472 1156 478 1141 b 460 1082 478 1109 472 1095 b 420 1064 448 1070 435 1064 z "},"Æ":{"ha":1299,"x_min":0,"x_max":0,"o":"m 128 -14 b 224 39 165 -14 197 3 l 357 243 l 552 243 b 576 254 561 243 569 247 b 585 277 582 260 585 268 b 576 300 585 286 582 294 b 552 310 569 307 561 310 l 338 310 b 309 292 326 310 316 304 l 168 75 b 149 58 163 68 157 62 b 129 52 142 54 135 52 b 111 71 118 52 112 58 b 119 92 111 78 113 85 l 615 890 l 692 890 l 692 24 b 703 1 692 16 696 7 b 726 -9 709 -5 717 -9 b 749 1 734 -9 743 -5 b 759 24 755 7 759 16 l 759 890 l 1221 890 b 1245 900 1230 890 1238 893 b 1255 923 1251 906 1255 914 b 1245 947 1255 932 1251 940 b 1221 956 1238 953 1230 956 l 597 956 b 567 939 584 956 574 950 l 62 127 b 44 68 50 108 44 88 b 54 30 44 55 47 42 b 81 -1 60 18 68 7 b 128 -14 96 -9 111 -14 z m 1221 0 b 1245 10 1230 0 1238 3 b 1255 34 1251 16 1255 24 b 1245 58 1255 43 1251 51 b 1221 67 1238 64 1230 67 l 884 67 l 884 532 l 1173 532 b 1196 542 1182 532 1190 535 b 1206 565 1202 548 1206 556 b 1196 589 1206 574 1202 583 b 1173 599 1190 595 1182 599 l 850 599 b 827 589 842 599 835 595 b 824 585 826 587 825 585 b 819 576 823 584 821 581 l 817 565 l 817 34 b 827 10 817 24 821 16 b 850 0 833 3 842 0 z "},"Ç":{"ha":938,"x_min":0,"x_max":0,"o":"m 465 -235 b 485 -234 472 -235 479 -235 b 553 -200 515 -229 538 -218 b 576 -144 569 -183 576 -164 b 555 -92 576 -125 570 -108 b 492 -63 541 -77 520 -67 l 475 -62 b 452 -64 468 -62 460 -62 l 465 -23 b 507 -25 479 -24 493 -25 b 725 33 585 -25 658 -5 b 889 192 791 72 846 125 b 894 210 892 198 894 203 b 879 238 894 220 889 230 b 861 243 873 241 867 243 b 833 228 850 243 840 238 b 690 90 795 170 748 123 b 508 41 631 58 570 41 b 358 74 456 41 406 52 b 228 168 310 95 267 126 b 140 311 189 210 160 258 b 111 474 121 364 111 418 b 140 637 111 530 121 584 b 228 781 160 690 189 738 b 354 873 264 819 306 850 b 507 906 401 895 452 906 b 694 856 574 906 637 889 b 833 720 750 823 797 777 b 861 705 840 710 850 705 b 879 710 867 705 873 707 b 894 739 889 718 894 727 b 889 756 894 745 892 750 b 723 916 846 823 790 877 b 508 973 652 954 581 973 b 332 936 448 973 389 961 b 179 825 275 911 224 873 b 78 661 134 776 100 721 b 44 474 56 600 44 537 b 78 288 44 410 56 348 b 179 122 100 227 134 172 b 419 -16 245 51 325 5 b 397 -90 405 -63 397 -88 b 404 -106 397 -96 399 -102 b 421 -113 409 -111 414 -113 l 444 -111 b 478 -108 457 -109 468 -108 b 517 -120 494 -109 507 -113 b 530 -144 526 -126 530 -134 b 509 -177 530 -158 522 -169 b 465 -189 496 -185 481 -189 b 431 -181 453 -189 441 -186 b 406 -155 420 -176 412 -167 b 386 -142 401 -146 395 -142 b 376 -144 382 -142 379 -143 b 362 -165 367 -149 362 -157 b 364 -175 362 -169 363 -172 b 407 -220 374 -195 389 -210 b 465 -235 425 -231 444 -235 z m 345 156 b 372 172 355 156 365 161 b 378 189 376 178 378 183 b 362 218 378 201 372 210 b 262 326 320 244 287 280 b 226 473 238 374 226 422 b 260 618 226 524 237 572 b 362 730 283 665 317 702 b 378 758 372 738 378 747 b 372 776 378 764 376 770 b 345 792 365 787 355 792 b 327 787 338 792 333 790 b 203 652 274 753 233 708 b 159 474 174 597 159 537 b 203 296 159 411 174 351 b 327 161 233 239 274 195 b 345 156 332 157 338 156 z "},"È":{"ha":650,"x_min":0,"x_max":0,"o":"m 573 0 b 597 9 582 0 590 3 b 606 33 603 16 606 24 b 597 57 606 42 603 50 b 573 66 590 63 582 66 l 235 66 l 235 531 l 524 531 b 548 541 534 531 542 534 b 557 565 554 547 557 555 b 548 589 557 574 554 582 b 524 598 542 595 534 598 l 202 598 b 189 596 197 598 193 597 b 179 588 186 594 182 591 b 176 585 178 587 176 585 b 171 576 175 584 173 581 l 169 565 l 169 33 b 179 9 169 24 172 16 b 202 0 185 3 193 0 z m 77 -9 b 101 1 86 -9 94 -6 b 111 24 107 7 111 15 l 111 889 l 573 889 b 597 899 582 889 590 892 b 606 922 603 905 606 913 b 597 947 606 932 603 940 b 573 956 590 953 582 956 l 77 956 b 54 947 68 956 60 953 b 44 922 47 941 44 932 l 44 24 b 54 1 44 15 47 7 b 77 -9 60 -6 68 -9 z m 365 1034 b 388 1044 374 1034 381 1037 b 398 1067 395 1051 398 1059 b 388 1091 398 1076 395 1084 l 235 1237 b 212 1246 228 1243 220 1246 b 189 1236 203 1246 195 1243 b 179 1213 182 1229 179 1221 b 190 1189 179 1204 182 1196 l 342 1043 b 365 1034 349 1037 357 1034 z "},"É":{"ha":650,"x_min":0,"x_max":0,"o":"m 573 0 b 597 9 582 0 590 3 b 606 33 603 16 606 24 b 597 57 606 42 603 50 b 573 66 590 63 582 66 l 235 66 l 235 531 l 524 531 b 548 541 534 531 542 534 b 557 565 554 547 557 555 b 548 589 557 574 554 582 b 524 598 542 595 534 598 l 202 598 b 189 596 197 598 193 597 b 179 588 186 594 182 591 b 176 585 178 587 176 585 b 171 576 175 584 173 581 l 169 565 l 169 33 b 179 9 169 24 172 16 b 202 0 185 3 193 0 z m 77 -9 b 101 1 86 -9 94 -6 b 111 24 107 7 111 15 l 111 889 l 573 889 b 597 899 582 889 590 892 b 606 922 603 905 606 913 b 597 947 606 932 603 940 b 573 956 590 953 582 956 l 77 956 b 54 947 68 956 60 953 b 44 922 47 941 44 932 l 44 24 b 54 1 44 15 47 7 b 77 -9 60 -6 68 -9 z m 286 1034 b 308 1043 294 1034 301 1037 l 460 1189 b 471 1213 467 1196 471 1204 b 462 1236 471 1221 468 1229 b 438 1246 454 1243 447 1246 b 415 1237 429 1246 422 1243 l 262 1091 b 252 1067 255 1084 252 1076 b 262 1044 252 1059 255 1051 b 286 1034 269 1037 277 1034 z "},"Ê":{"ha":650,"x_min":0,"x_max":0,"o":"m 573 0 b 597 9 582 0 590 3 b 606 33 603 16 606 24 b 597 57 606 42 603 50 b 573 66 590 63 582 66 l 235 66 l 235 531 l 524 531 b 548 541 534 531 542 534 b 557 565 554 547 557 555 b 548 589 557 574 554 582 b 524 598 542 595 534 598 l 202 598 b 189 596 197 598 193 597 b 179 588 186 594 182 591 b 176 585 178 587 176 585 b 171 576 175 584 173 581 l 169 565 l 169 33 b 179 9 169 24 172 16 b 202 0 185 3 193 0 z m 77 -9 b 101 1 86 -9 94 -6 b 111 24 107 7 111 15 l 111 889 l 573 889 b 597 899 582 889 590 892 b 606 922 603 905 606 913 b 597 947 606 932 603 940 b 573 956 590 953 582 956 l 77 956 b 54 947 68 956 60 953 b 44 922 47 941 44 932 l 44 24 b 54 1 44 15 47 7 b 77 -9 60 -6 68 -9 z m 325 1036 b 347 1046 333 1036 340 1040 l 509 1222 b 517 1243 514 1228 517 1236 b 507 1265 517 1251 513 1259 b 486 1274 500 1271 494 1274 b 464 1263 478 1274 471 1270 l 325 1113 l 186 1263 b 163 1274 179 1270 172 1274 b 142 1265 156 1274 149 1271 b 133 1243 136 1259 133 1251 b 141 1222 133 1236 136 1228 l 302 1046 b 325 1036 309 1040 317 1036 z "},"Ë":{"ha":650,"x_min":0,"x_max":0,"o":"m 573 0 b 597 9 582 0 590 3 b 606 33 603 16 606 24 b 597 57 606 42 603 50 b 573 66 590 63 582 66 l 235 66 l 235 531 l 524 531 b 548 541 534 531 542 534 b 557 565 554 547 557 555 b 548 589 557 574 554 582 b 524 598 542 595 534 598 l 202 598 b 189 596 197 598 193 597 b 179 588 186 594 182 591 b 176 585 178 587 176 585 b 171 576 175 584 173 581 l 169 565 l 169 33 b 179 9 169 24 172 16 b 202 0 185 3 193 0 z m 77 -9 b 101 1 86 -9 94 -6 b 111 24 107 7 111 15 l 111 889 l 573 889 b 597 899 582 889 590 892 b 606 922 603 905 606 913 b 597 947 606 932 603 940 b 573 956 590 953 582 956 l 77 956 b 54 947 68 956 60 953 b 44 922 47 941 44 932 l 44 24 b 54 1 44 15 47 7 b 77 -9 60 -6 68 -9 z m 413 1050 b 435 1059 422 1050 429 1053 b 444 1081 441 1065 444 1072 l 444 1178 b 435 1200 444 1187 441 1194 b 413 1209 429 1206 422 1209 b 391 1200 404 1209 397 1206 b 382 1178 385 1194 382 1187 l 382 1081 b 391 1059 382 1072 385 1065 b 413 1050 397 1053 404 1050 z m 237 1050 b 259 1059 245 1050 253 1053 b 268 1081 265 1065 268 1072 l 268 1178 b 259 1200 268 1187 265 1194 b 237 1209 253 1206 245 1209 b 216 1200 229 1209 222 1206 b 206 1178 210 1194 206 1187 l 206 1081 b 216 1059 206 1072 210 1065 b 237 1050 222 1053 229 1050 z "},"Ì":{"ha":436,"x_min":0,"x_max":0,"o":"m 385 -7 b 407 3 394 -7 401 -3 b 416 24 413 9 416 16 b 407 46 416 33 413 40 b 385 55 401 52 394 55 l 263 55 l 263 813 b 254 838 263 823 260 831 b 230 847 248 844 239 847 b 207 838 221 847 213 844 b 197 813 200 831 197 823 l 197 55 l 75 55 b 54 46 66 55 60 52 b 44 24 47 40 44 33 b 54 3 44 16 47 9 b 75 -7 60 -3 66 -7 z m 385 892 b 407 901 394 892 401 895 b 416 922 413 907 416 914 b 407 945 416 931 413 939 b 385 954 401 951 394 954 l 75 954 b 54 945 66 954 60 951 b 44 922 47 939 44 931 b 54 901 44 914 47 907 b 75 892 60 895 66 892 z m 270 1034 b 293 1044 279 1034 286 1037 b 303 1067 300 1051 303 1059 b 293 1091 303 1076 300 1084 l 140 1237 b 117 1246 133 1243 125 1246 b 94 1236 109 1246 100 1243 b 84 1213 87 1229 84 1221 b 95 1189 84 1204 87 1196 l 247 1043 b 270 1034 254 1037 262 1034 z "},"Í":{"ha":436,"x_min":0,"x_max":0,"o":"m 385 -7 b 407 3 394 -7 401 -3 b 416 24 413 9 416 16 b 407 46 416 33 413 40 b 385 55 401 52 394 55 l 263 55 l 263 813 b 254 838 263 823 260 831 b 230 847 248 844 239 847 b 207 838 221 847 213 844 b 197 813 200 831 197 823 l 197 55 l 75 55 b 54 46 66 55 60 52 b 44 24 47 40 44 33 b 54 3 44 16 47 9 b 75 -7 60 -3 66 -7 z m 385 892 b 407 901 394 892 401 895 b 416 922 413 907 416 914 b 407 945 416 931 413 939 b 385 954 401 951 394 954 l 75 954 b 54 945 66 954 60 951 b 44 922 47 939 44 931 b 54 901 44 914 47 907 b 75 892 60 895 66 892 z m 191 1034 b 213 1043 199 1034 206 1037 l 366 1189 b 376 1213 372 1196 376 1204 b 367 1236 376 1221 373 1229 b 343 1246 359 1243 352 1246 b 320 1237 334 1246 327 1243 l 168 1091 b 157 1067 160 1084 157 1076 b 167 1044 157 1059 160 1051 b 191 1034 174 1037 182 1034 z "},"Î":{"ha":436,"x_min":0,"x_max":0,"o":"m 385 -7 b 407 3 394 -7 401 -3 b 416 24 413 9 416 16 b 407 46 416 33 413 40 b 385 55 401 52 394 55 l 263 55 l 263 813 b 254 838 263 823 260 831 b 230 847 248 844 239 847 b 207 838 221 847 213 844 b 197 813 200 831 197 823 l 197 55 l 75 55 b 54 46 66 55 60 52 b 44 24 47 40 44 33 b 54 3 44 16 47 9 b 75 -7 60 -3 66 -7 z m 385 892 b 407 901 394 892 401 895 b 416 922 413 907 416 914 b 407 945 416 931 413 939 b 385 954 401 951 394 954 l 75 954 b 54 945 66 954 60 951 b 44 922 47 939 44 931 b 54 901 44 914 47 907 b 75 892 60 895 66 892 z m 230 1036 b 252 1046 238 1036 245 1040 l 414 1222 b 422 1243 419 1228 422 1236 b 412 1265 422 1251 418 1259 b 391 1274 406 1271 399 1274 b 369 1263 383 1274 376 1270 l 230 1113 l 91 1263 b 68 1274 84 1270 77 1274 b 47 1265 61 1274 54 1271 b 38 1243 41 1259 38 1251 b 46 1222 38 1236 41 1228 l 208 1046 b 230 1036 214 1040 222 1036 z "},"Ï":{"ha":436,"x_min":0,"x_max":0,"o":"m 385 -7 b 407 3 394 -7 401 -3 b 416 24 413 9 416 16 b 407 46 416 33 413 40 b 385 55 401 52 394 55 l 263 55 l 263 813 b 254 838 263 823 260 831 b 230 847 248 844 239 847 b 207 838 221 847 213 844 b 197 813 200 831 197 823 l 197 55 l 75 55 b 54 46 66 55 60 52 b 44 24 47 40 44 33 b 54 3 44 16 47 9 b 75 -7 60 -3 66 -7 z m 385 892 b 407 901 394 892 401 895 b 416 922 413 907 416 914 b 407 945 416 931 413 939 b 385 954 401 951 394 954 l 75 954 b 54 945 66 954 60 951 b 44 922 47 939 44 931 b 54 901 44 914 47 907 b 75 892 60 895 66 892 z m 318 1050 b 340 1059 327 1050 334 1053 b 349 1081 346 1065 349 1072 l 349 1178 b 340 1200 349 1187 346 1194 b 318 1209 334 1206 327 1209 b 296 1200 309 1209 302 1206 b 288 1178 290 1194 288 1187 l 288 1081 b 296 1059 288 1072 290 1065 b 318 1050 302 1053 309 1050 z m 142 1050 b 164 1059 151 1050 158 1053 b 173 1081 170 1065 173 1072 l 173 1178 b 164 1200 173 1187 170 1194 b 142 1209 158 1206 151 1209 b 121 1200 134 1209 127 1206 b 111 1178 115 1194 111 1187 l 111 1081 b 121 1059 111 1072 115 1065 b 142 1050 127 1053 134 1050 z "},"Ñ":{"ha":770,"x_min":0,"x_max":0,"o":"m 692 -9 b 716 0 701 -9 709 -6 b 726 24 723 6 726 14 l 726 922 b 717 947 726 932 723 940 b 693 956 710 953 702 956 b 670 947 684 956 676 953 b 660 922 663 940 660 932 l 660 132 l 108 941 b 79 956 100 951 90 956 b 54 947 69 956 61 953 b 44 922 47 941 44 932 l 44 87 b 72 19 44 60 54 38 b 139 -9 93 0 115 -9 b 205 17 163 -9 186 -1 b 235 87 225 35 235 58 l 235 475 b 226 498 235 484 232 492 b 202 508 219 505 211 508 b 179 498 193 508 185 505 b 169 475 172 492 169 484 l 169 87 b 160 66 169 79 166 72 b 140 58 154 60 147 58 b 120 66 133 58 126 60 b 111 87 114 71 111 78 l 111 819 l 665 7 b 692 -9 673 -4 682 -9 z m 198 1055 b 220 1064 207 1055 214 1058 b 228 1085 225 1070 228 1077 l 228 1089 b 245 1133 228 1107 234 1122 b 292 1149 257 1143 273 1149 b 337 1138 309 1149 324 1145 b 371 1112 349 1131 361 1122 b 489 1058 408 1076 447 1058 b 570 1091 521 1058 548 1069 b 604 1180 593 1114 604 1143 b 595 1202 604 1189 601 1196 b 573 1211 589 1208 582 1211 b 551 1202 564 1211 557 1208 b 543 1180 545 1196 543 1189 b 536 1149 543 1170 541 1160 b 517 1127 532 1139 526 1132 b 488 1120 507 1122 498 1120 b 473 1121 484 1120 478 1120 b 409 1160 449 1128 427 1141 b 362 1196 395 1173 380 1185 b 292 1211 344 1206 321 1211 b 201 1175 255 1211 224 1198 b 167 1088 178 1152 167 1124 l 167 1084 b 176 1063 167 1076 170 1069 b 198 1055 182 1057 189 1055 z "},"Ò":{"ha":1007,"x_min":0,"x_max":0,"o":"m 449 113 b 470 120 457 113 464 115 b 481 140 476 125 479 132 l 482 146 b 475 168 482 155 479 161 b 456 178 470 173 463 176 b 291 285 387 193 332 229 b 229 475 250 341 229 404 b 220 498 229 484 226 492 b 196 508 213 505 205 508 b 172 498 187 508 179 505 b 162 475 165 492 162 484 b 239 243 162 389 188 311 b 443 113 290 174 358 132 z m 580 -18 l 586 -18 b 859 155 698 6 789 63 b 940 307 895 201 922 252 b 966 473 958 361 966 417 b 932 661 966 537 955 600 b 831 825 910 721 876 776 b 678 936 785 874 734 911 b 504 972 621 960 563 972 b 330 936 444 972 386 960 b 176 825 273 911 222 874 b 75 661 131 776 97 721 b 41 473 52 600 41 537 b 68 307 41 417 50 361 b 148 155 85 252 112 201 b 422 -18 218 63 310 6 l 428 -18 b 450 -10 435 -18 443 -16 b 461 15 456 -5 460 3 b 454 37 461 23 458 31 b 434 48 449 43 442 46 b 200 195 338 68 260 117 b 130 328 169 236 146 280 b 107 473 115 376 107 424 b 136 637 107 529 117 583 b 224 780 156 690 185 737 b 355 874 263 822 307 853 b 504 905 404 895 453 905 b 652 874 554 905 604 895 b 783 780 700 853 744 822 b 871 637 822 737 851 690 b 900 473 890 583 900 529 b 877 328 900 424 892 376 b 807 195 861 280 838 236 b 573 48 747 117 669 68 b 553 37 565 46 558 43 b 546 15 549 31 546 23 b 558 -10 547 3 551 -5 b 580 -18 564 -16 572 -18 z m 547 1034 b 570 1044 556 1034 564 1037 b 581 1067 577 1051 581 1059 b 570 1091 581 1076 577 1084 l 418 1237 b 395 1246 410 1243 403 1246 b 372 1236 386 1246 378 1243 b 361 1213 365 1229 361 1221 b 372 1189 361 1204 365 1196 l 524 1043 b 547 1034 532 1037 539 1034 z "},"Ó":{"ha":1007,"x_min":0,"x_max":0,"o":"m 449 113 b 470 120 457 113 464 115 b 481 140 476 125 479 132 l 482 146 b 475 168 482 155 479 161 b 456 178 470 173 463 176 b 291 285 387 193 332 229 b 229 475 250 341 229 404 b 220 498 229 484 226 492 b 196 508 213 505 205 508 b 172 498 187 508 179 505 b 162 475 165 492 162 484 b 239 243 162 389 188 311 b 443 113 290 174 358 132 z m 580 -18 l 586 -18 b 859 155 698 6 789 63 b 940 307 895 201 922 252 b 966 473 958 361 966 417 b 932 661 966 537 955 600 b 831 825 910 721 876 776 b 678 936 785 874 734 911 b 504 972 621 960 563 972 b 330 936 444 972 386 960 b 176 825 273 911 222 874 b 75 661 131 776 97 721 b 41 473 52 600 41 537 b 68 307 41 417 50 361 b 148 155 85 252 112 201 b 422 -18 218 63 310 6 l 428 -18 b 450 -10 435 -18 443 -16 b 461 15 456 -5 460 3 b 454 37 461 23 458 31 b 434 48 449 43 442 46 b 200 195 338 68 260 117 b 130 328 169 236 146 280 b 107 473 115 376 107 424 b 136 637 107 529 117 583 b 224 780 156 690 185 737 b 355 874 263 822 307 853 b 504 905 404 895 453 905 b 652 874 554 905 604 895 b 783 780 700 853 744 822 b 871 637 822 737 851 690 b 900 473 890 583 900 529 b 877 328 900 424 892 376 b 807 195 861 280 838 236 b 573 48 747 117 669 68 b 553 37 565 46 558 43 b 546 15 549 31 546 23 b 558 -10 547 3 551 -5 b 580 -18 564 -16 572 -18 z m 468 1034 b 490 1043 476 1034 484 1037 l 643 1189 b 653 1213 650 1196 653 1204 b 644 1236 653 1221 650 1229 b 621 1246 637 1243 629 1246 b 597 1237 612 1246 604 1243 l 445 1091 b 434 1067 437 1084 434 1076 b 444 1044 434 1059 437 1051 b 468 1034 451 1037 459 1034 z "},"Ô":{"ha":1007,"x_min":0,"x_max":0,"o":"m 449 113 b 470 120 457 113 464 115 b 481 140 476 125 479 132 l 482 146 b 475 168 482 155 479 161 b 456 178 470 173 463 176 b 291 285 387 193 332 229 b 229 475 250 341 229 404 b 220 498 229 484 226 492 b 196 508 213 505 205 508 b 172 498 187 508 179 505 b 162 475 165 492 162 484 b 239 243 162 389 188 311 b 443 113 290 174 358 132 z m 580 -18 l 586 -18 b 859 155 698 6 789 63 b 940 307 895 201 922 252 b 966 473 958 361 966 417 b 932 661 966 537 955 600 b 831 825 910 721 876 776 b 678 936 785 874 734 911 b 504 972 621 960 563 972 b 330 936 444 972 386 960 b 176 825 273 911 222 874 b 75 661 131 776 97 721 b 41 473 52 600 41 537 b 68 307 41 417 50 361 b 148 155 85 252 112 201 b 422 -18 218 63 310 6 l 428 -18 b 450 -10 435 -18 443 -16 b 461 15 456 -5 460 3 b 454 37 461 23 458 31 b 434 48 449 43 442 46 b 200 195 338 68 260 117 b 130 328 169 236 146 280 b 107 473 115 376 107 424 b 136 637 107 529 117 583 b 224 780 156 690 185 737 b 355 874 263 822 307 853 b 504 905 404 895 453 905 b 652 874 554 905 604 895 b 783 780 700 853 744 822 b 871 637 822 737 851 690 b 900 473 890 583 900 529 b 877 328 900 424 892 376 b 807 195 861 280 838 236 b 573 48 747 117 669 68 b 553 37 565 46 558 43 b 546 15 549 31 546 23 b 558 -10 547 3 551 -5 b 580 -18 564 -16 572 -18 z m 507 1036 b 530 1046 515 1036 523 1040 l 691 1222 b 699 1243 696 1228 699 1236 b 690 1265 699 1251 696 1259 b 669 1274 683 1271 676 1274 b 646 1263 661 1274 653 1270 l 507 1113 l 368 1263 b 346 1274 361 1270 354 1274 b 325 1265 338 1274 332 1271 b 315 1243 319 1259 315 1251 b 323 1222 315 1236 318 1228 l 485 1046 b 507 1036 492 1040 499 1036 z "},"Õ":{"ha":1007,"x_min":0,"x_max":0,"o":"m 449 113 b 470 120 457 113 464 115 b 481 140 476 125 479 132 l 482 146 b 475 168 482 155 479 161 b 456 178 470 173 463 176 b 291 285 387 193 332 229 b 229 475 250 341 229 404 b 220 498 229 484 226 492 b 196 508 213 505 205 508 b 172 498 187 508 179 505 b 162 475 165 492 162 484 b 239 243 162 389 188 311 b 443 113 290 174 358 132 z m 580 -18 l 586 -18 b 859 155 698 6 789 63 b 940 307 895 201 922 252 b 966 473 958 361 966 417 b 932 661 966 537 955 600 b 831 825 910 721 876 776 b 678 936 785 874 734 911 b 504 972 621 960 563 972 b 330 936 444 972 386 960 b 176 825 273 911 222 874 b 75 661 131 776 97 721 b 41 473 52 600 41 537 b 68 307 41 417 50 361 b 148 155 85 252 112 201 b 422 -18 218 63 310 6 l 428 -18 b 450 -10 435 -18 443 -16 b 461 15 456 -5 460 3 b 454 37 461 23 458 31 b 434 48 449 43 442 46 b 200 195 338 68 260 117 b 130 328 169 236 146 280 b 107 473 115 376 107 424 b 136 637 107 529 117 583 b 224 780 156 690 185 737 b 355 874 263 822 307 853 b 504 905 404 895 453 905 b 652 874 554 905 604 895 b 783 780 700 853 744 822 b 871 637 822 737 851 690 b 900 473 890 583 900 529 b 877 328 900 424 892 376 b 807 195 861 280 838 236 b 573 48 747 117 669 68 b 553 37 565 46 558 43 b 546 15 549 31 546 23 b 558 -10 547 3 551 -5 b 580 -18 564 -16 572 -18 z m 320 1055 b 342 1064 329 1055 336 1058 b 350 1085 347 1070 350 1077 l 350 1089 b 368 1133 350 1107 356 1122 b 414 1149 379 1143 395 1149 b 459 1138 431 1149 446 1145 b 493 1112 471 1131 483 1122 b 611 1058 530 1076 569 1058 b 692 1091 643 1058 670 1069 b 726 1180 715 1114 726 1143 b 717 1202 726 1189 723 1196 b 695 1211 711 1208 704 1211 b 673 1202 686 1211 680 1208 b 665 1180 667 1196 665 1189 b 659 1149 665 1170 663 1160 b 639 1127 654 1139 648 1132 b 610 1120 629 1122 620 1120 b 595 1121 606 1120 600 1120 b 531 1160 571 1128 549 1141 b 484 1196 517 1173 502 1185 b 414 1211 466 1206 443 1211 b 323 1175 377 1211 347 1198 b 289 1088 300 1152 289 1124 l 289 1084 b 298 1063 289 1076 292 1069 b 320 1055 304 1057 311 1055 z "},"Ö":{"ha":1007,"x_min":0,"x_max":0,"o":"m 449 113 b 470 120 457 113 464 115 b 481 140 476 125 479 132 l 482 146 b 475 168 482 155 479 161 b 456 178 470 173 463 176 b 291 285 387 193 332 229 b 229 475 250 341 229 404 b 220 498 229 484 226 492 b 196 508 213 505 205 508 b 172 498 187 508 179 505 b 162 475 165 492 162 484 b 239 243 162 389 188 311 b 443 113 290 174 358 132 z m 580 -18 l 586 -18 b 859 155 698 6 789 63 b 940 307 895 201 922 252 b 966 473 958 361 966 417 b 932 661 966 537 955 600 b 831 825 910 721 876 776 b 678 936 785 874 734 911 b 504 972 621 960 563 972 b 330 936 444 972 386 960 b 176 825 273 911 222 874 b 75 661 131 776 97 721 b 41 473 52 600 41 537 b 68 307 41 417 50 361 b 148 155 85 252 112 201 b 422 -18 218 63 310 6 l 428 -18 b 450 -10 435 -18 443 -16 b 461 15 456 -5 460 3 b 454 37 461 23 458 31 b 434 48 449 43 442 46 b 200 195 338 68 260 117 b 130 328 169 236 146 280 b 107 473 115 376 107 424 b 136 637 107 529 117 583 b 224 780 156 690 185 737 b 355 874 263 822 307 853 b 504 905 404 895 453 905 b 652 874 554 905 604 895 b 783 780 700 853 744 822 b 871 637 822 737 851 690 b 900 473 890 583 900 529 b 877 328 900 424 892 376 b 807 195 861 280 838 236 b 573 48 747 117 669 68 b 553 37 565 46 558 43 b 546 15 549 31 546 23 b 558 -10 547 3 551 -5 b 580 -18 564 -16 572 -18 z m 595 1050 b 617 1059 604 1050 611 1053 b 626 1081 623 1065 626 1072 l 626 1178 b 617 1200 626 1187 623 1194 b 595 1209 611 1206 604 1209 b 574 1200 587 1209 580 1206 b 565 1178 568 1194 565 1187 l 565 1081 b 574 1059 565 1072 568 1065 b 595 1050 580 1053 587 1050 z m 419 1050 b 441 1059 428 1050 435 1053 b 450 1081 448 1065 450 1072 l 450 1178 b 441 1200 450 1187 448 1194 b 419 1209 435 1206 428 1209 b 398 1200 411 1209 404 1206 b 389 1178 392 1194 389 1187 l 389 1081 b 398 1059 389 1072 392 1065 b 419 1050 404 1053 411 1050 z "},"Ø":{"ha":1014,"x_min":0,"x_max":0,"o":"m 275 -59 b 305 -40 288 -59 298 -53 l 769 960 b 772 974 771 964 772 969 b 753 1004 772 986 766 996 b 739 1006 749 1006 744 1006 b 709 987 726 1006 717 1000 l 684 935 b 507 972 625 960 566 972 b 332 935 447 972 388 960 b 179 825 275 910 224 873 b 80 667 137 780 104 727 b 44 474 56 607 44 543 b 104 230 44 387 64 306 b 271 45 144 153 199 92 l 245 -12 b 242 -25 243 -16 242 -20 b 261 -56 242 -38 248 -49 b 275 -59 266 -58 270 -59 z m 300 106 b 168 251 245 143 201 191 b 111 473 130 323 111 397 b 140 637 111 530 121 584 b 227 779 160 690 189 738 b 357 874 266 821 309 852 b 507 906 406 895 456 906 b 656 874 557 906 607 895 l 355 225 b 264 335 316 254 286 291 b 233 475 243 379 233 425 b 223 498 233 484 229 492 b 199 508 216 505 208 508 b 176 498 191 508 182 505 b 166 475 170 492 166 484 b 208 299 166 412 180 354 b 326 163 236 244 275 199 z m 509 -24 b 802 81 622 -24 720 11 b 960 365 884 151 937 246 b 970 471 966 401 970 436 b 930 677 970 543 956 612 b 810 851 903 743 863 801 b 787 861 802 857 795 861 b 763 850 778 861 770 857 b 754 827 757 843 754 836 b 765 802 754 819 758 810 b 868 654 810 760 844 710 b 903 474 892 597 903 537 b 853 254 903 392 886 319 b 714 99 819 188 773 136 b 509 42 655 61 587 42 b 425 50 482 42 454 45 l 418 51 b 397 43 411 51 404 48 b 385 18 390 37 386 29 b 393 -3 385 9 388 3 b 412 -16 397 -9 404 -14 b 509 -24 446 -22 477 -24 z "},"Œ":{"ha":1510,"x_min":0,"x_max":0,"o":"m 406 127 b 437 148 419 127 429 134 b 439 159 438 151 439 155 b 417 191 439 173 431 184 b 282 303 359 214 315 251 b 233 475 249 355 233 412 b 223 498 233 484 229 492 b 199 508 216 505 208 508 b 176 498 191 508 182 505 b 166 475 170 492 166 484 b 227 266 166 399 186 329 b 394 129 268 202 323 157 b 406 127 398 127 402 127 z m 1432 0 b 1456 10 1442 0 1450 3 b 1466 34 1462 16 1466 24 b 1456 58 1466 43 1462 51 b 1432 67 1450 64 1442 67 l 1095 67 l 1095 532 l 1384 532 b 1408 542 1393 532 1401 535 b 1417 565 1414 548 1417 556 b 1408 589 1417 574 1414 583 b 1384 599 1401 595 1393 599 l 1062 599 b 1038 589 1053 599 1046 595 b 1035 585 1037 587 1036 585 b 1030 576 1034 584 1032 581 l 1029 565 l 1029 34 b 1038 10 1029 24 1032 16 b 1062 0 1044 3 1053 0 z m 583 -18 l 589 -17 b 865 159 704 8 795 66 b 970 473 935 252 970 356 l 970 890 l 1432 890 b 1456 900 1441 890 1449 893 b 1466 923 1462 906 1466 914 b 1456 947 1466 932 1462 940 b 1432 956 1449 953 1441 956 l 937 956 b 920 952 931 956 926 955 b 903 923 909 945 903 935 l 903 732 b 787 871 873 787 833 833 b 652 947 745 905 700 930 b 507 972 605 964 557 972 b 333 936 448 972 389 960 b 180 825 276 911 225 874 b 78 661 134 777 100 722 b 44 474 56 600 44 538 b 71 307 44 418 53 362 b 151 155 89 252 115 202 b 425 -17 222 64 313 7 l 431 -18 b 453 -9 439 -18 446 -15 b 465 16 459 -4 463 4 b 457 37 465 23 462 31 b 437 48 452 43 446 46 b 203 196 342 68 264 118 b 134 328 172 236 149 280 b 111 473 118 376 111 424 b 140 637 111 529 121 583 b 228 780 160 690 189 738 b 359 875 267 822 311 854 b 507 906 407 896 456 906 b 631 885 549 906 590 899 b 745 820 671 871 709 849 b 863 663 797 776 837 724 b 903 474 890 602 903 539 b 880 329 903 425 896 376 b 810 196 865 281 842 237 b 576 48 750 118 672 68 b 557 37 569 46 562 43 b 550 16 553 31 550 24 l 551 9 b 562 -10 552 1 556 -5 b 583 -18 568 -15 575 -18 z "},"Ù":{"ha":753,"x_min":0,"x_max":0,"o":"m 377 -9 b 545 36 438 -9 494 5 b 665 157 595 66 635 106 b 709 325 694 208 709 264 l 709 922 b 700 947 709 932 706 940 b 676 956 693 953 685 956 b 653 947 667 956 659 953 b 643 922 646 940 643 932 l 643 325 b 607 191 643 276 631 231 b 511 94 583 151 551 118 b 377 58 471 70 426 58 b 243 94 328 58 283 70 b 147 191 203 118 171 151 b 111 325 123 231 111 276 l 111 876 b 120 897 111 884 114 891 b 140 905 126 903 133 905 b 161 897 148 905 155 903 b 170 876 167 892 170 885 l 170 472 b 180 449 170 463 173 455 b 203 439 186 442 194 439 b 227 449 212 439 220 442 b 236 472 233 455 236 463 l 236 876 b 208 944 236 903 227 926 b 141 972 186 963 164 972 b 74 946 116 972 94 964 b 44 876 54 928 44 905 l 44 325 b 90 157 44 264 59 208 b 210 36 119 106 159 66 b 377 -9 260 5 316 -9 z m 417 1034 b 440 1044 426 1034 433 1037 b 450 1067 447 1051 450 1059 b 440 1091 450 1076 447 1084 l 288 1237 b 264 1246 280 1243 273 1246 b 241 1236 256 1246 248 1243 b 231 1213 235 1229 231 1221 b 242 1189 231 1204 235 1196 l 394 1043 b 417 1034 401 1037 409 1034 z "},"Ú":{"ha":753,"x_min":0,"x_max":0,"o":"m 377 -9 b 545 36 438 -9 494 5 b 665 157 595 66 635 106 b 709 325 694 208 709 264 l 709 922 b 700 947 709 932 706 940 b 676 956 693 953 685 956 b 653 947 667 956 659 953 b 643 922 646 940 643 932 l 643 325 b 607 191 643 276 631 231 b 511 94 583 151 551 118 b 377 58 471 70 426 58 b 243 94 328 58 283 70 b 147 191 203 118 171 151 b 111 325 123 231 111 276 l 111 876 b 120 897 111 884 114 891 b 140 905 126 903 133 905 b 161 897 148 905 155 903 b 170 876 167 892 170 885 l 170 472 b 180 449 170 463 173 455 b 203 439 186 442 194 439 b 227 449 212 439 220 442 b 236 472 233 455 236 463 l 236 876 b 208 944 236 903 227 926 b 141 972 186 963 164 972 b 74 946 116 972 94 964 b 44 876 54 928 44 905 l 44 325 b 90 157 44 264 59 208 b 210 36 119 106 159 66 b 377 -9 260 5 316 -9 z m 338 1034 b 360 1043 346 1034 353 1037 l 513 1189 b 523 1213 519 1196 523 1204 b 514 1236 523 1221 520 1229 b 490 1246 507 1243 499 1246 b 467 1237 481 1246 474 1243 l 315 1091 b 304 1067 307 1084 304 1076 b 314 1044 304 1059 307 1051 b 338 1034 321 1037 329 1034 z "},"Û":{"ha":753,"x_min":0,"x_max":0,"o":"m 377 -9 b 545 36 438 -9 494 5 b 665 157 595 66 635 106 b 709 325 694 208 709 264 l 709 922 b 700 947 709 932 706 940 b 676 956 693 953 685 956 b 653 947 667 956 659 953 b 643 922 646 940 643 932 l 643 325 b 607 191 643 276 631 231 b 511 94 583 151 551 118 b 377 58 471 70 426 58 b 243 94 328 58 283 70 b 147 191 203 118 171 151 b 111 325 123 231 111 276 l 111 876 b 120 897 111 884 114 891 b 140 905 126 903 133 905 b 161 897 148 905 155 903 b 170 876 167 892 170 885 l 170 472 b 180 449 170 463 173 455 b 203 439 186 442 194 439 b 227 449 212 439 220 442 b 236 472 233 455 236 463 l 236 876 b 208 944 236 903 227 926 b 141 972 186 963 164 972 b 74 946 116 972 94 964 b 44 876 54 928 44 905 l 44 325 b 90 157 44 264 59 208 b 210 36 119 106 159 66 b 377 -9 260 5 316 -9 z m 377 1036 b 399 1046 385 1036 393 1040 l 561 1222 b 569 1243 566 1228 569 1236 b 559 1265 569 1251 566 1259 b 538 1274 553 1271 546 1274 b 516 1263 530 1274 523 1270 l 377 1113 l 238 1263 b 216 1274 231 1270 224 1274 b 195 1265 208 1274 201 1271 b 185 1243 189 1259 185 1251 b 193 1222 185 1236 188 1228 l 355 1046 b 377 1036 361 1040 369 1036 z "},"Ü":{"ha":753,"x_min":0,"x_max":0,"o":"m 377 -9 b 545 36 438 -9 494 5 b 665 157 595 66 635 106 b 709 325 694 208 709 264 l 709 922 b 700 947 709 932 706 940 b 676 956 693 953 685 956 b 653 947 667 956 659 953 b 643 922 646 940 643 932 l 643 325 b 607 191 643 276 631 231 b 511 94 583 151 551 118 b 377 58 471 70 426 58 b 243 94 328 58 283 70 b 147 191 203 118 171 151 b 111 325 123 231 111 276 l 111 876 b 120 897 111 884 114 891 b 140 905 126 903 133 905 b 161 897 148 905 155 903 b 170 876 167 892 170 885 l 170 472 b 180 449 170 463 173 455 b 203 439 186 442 194 439 b 227 449 212 439 220 442 b 236 472 233 455 236 463 l 236 876 b 208 944 236 903 227 926 b 141 972 186 963 164 972 b 74 946 116 972 94 964 b 44 876 54 928 44 905 l 44 325 b 90 157 44 264 59 208 b 210 36 119 106 159 66 b 377 -9 260 5 316 -9 z m 465 1050 b 487 1059 474 1050 481 1053 b 496 1081 493 1065 496 1072 l 496 1178 b 487 1200 496 1187 493 1194 b 465 1209 481 1206 474 1209 b 444 1200 456 1209 450 1206 b 435 1178 437 1194 435 1187 l 435 1081 b 444 1059 435 1072 437 1065 b 465 1050 450 1053 456 1050 z m 289 1050 b 311 1059 298 1050 305 1053 b 320 1081 317 1065 320 1072 l 320 1178 b 311 1200 320 1187 317 1194 b 289 1209 305 1206 298 1209 b 268 1200 281 1209 274 1206 b 258 1178 262 1194 258 1187 l 258 1081 b 268 1059 258 1072 262 1065 b 289 1050 274 1053 281 1050 z "},"Ý":{"ha":820,"x_min":0,"x_max":0,"o":"m 471 -9 b 538 17 496 -9 519 -1 b 568 87 558 35 568 58 l 568 281 b 559 304 568 290 565 298 b 535 314 552 311 544 314 b 512 304 526 314 518 311 b 502 281 505 298 502 290 l 502 87 b 493 66 502 79 499 72 b 473 58 487 60 480 58 b 453 66 465 58 459 60 b 444 87 447 71 444 78 l 444 356 l 771 907 b 776 924 774 912 776 918 b 760 952 776 935 770 945 b 743 957 754 956 749 957 b 714 941 731 957 722 951 l 410 430 l 106 941 b 77 957 98 951 89 957 b 60 952 71 957 66 956 b 44 924 50 945 44 935 b 49 907 44 918 45 912 l 376 356 l 376 87 b 405 19 376 60 386 38 b 471 -9 426 0 448 -9 z m 371 1034 b 393 1043 379 1034 387 1037 l 546 1189 b 556 1213 553 1196 556 1204 b 547 1236 556 1221 553 1229 b 524 1246 540 1243 532 1246 b 500 1237 515 1246 507 1243 l 348 1091 b 337 1067 340 1084 337 1076 b 347 1044 337 1059 340 1051 b 371 1034 354 1037 362 1034 z "},"Ÿ":{"ha":820,"x_min":0,"x_max":0,"o":"m 471 -9 b 538 17 496 -9 519 -1 b 568 87 558 35 568 58 l 568 281 b 559 304 568 290 565 298 b 535 314 552 311 544 314 b 512 304 526 314 518 311 b 502 281 505 298 502 290 l 502 87 b 493 66 502 79 499 72 b 473 58 487 60 480 58 b 453 66 465 58 459 60 b 444 87 447 71 444 78 l 444 356 l 771 907 b 776 924 774 912 776 918 b 760 952 776 935 770 945 b 743 957 754 956 749 957 b 714 941 731 957 722 951 l 410 430 l 106 941 b 77 957 98 951 89 957 b 60 952 71 957 66 956 b 44 924 50 945 44 935 b 49 907 44 918 45 912 l 376 356 l 376 87 b 405 19 376 60 386 38 b 471 -9 426 0 448 -9 z m 498 1050 b 520 1059 507 1050 514 1053 b 529 1081 526 1065 529 1072 l 529 1178 b 520 1200 529 1187 526 1194 b 498 1209 514 1206 507 1209 b 477 1200 490 1209 483 1206 b 468 1178 471 1194 468 1187 l 468 1081 b 477 1059 468 1072 471 1065 b 498 1050 483 1053 490 1050 z m 322 1050 b 345 1059 331 1050 338 1053 b 353 1081 351 1065 353 1072 l 353 1178 b 345 1200 353 1187 351 1194 b 322 1209 338 1206 331 1209 b 301 1200 314 1209 307 1206 b 292 1178 295 1194 292 1187 l 292 1081 b 301 1059 292 1072 295 1065 b 322 1050 307 1053 314 1050 z "},"Ž":{"ha":793,"x_min":0,"x_max":0,"o":"m 716 -9 b 740 1 725 -9 733 -6 b 749 24 746 7 749 15 b 740 48 749 33 746 41 b 716 58 733 54 725 58 l 294 58 l 480 334 b 486 353 484 340 486 347 b 471 380 486 363 481 373 b 453 386 465 384 459 386 b 425 372 442 386 433 381 l 214 58 l 140 58 l 712 905 b 718 924 716 911 718 918 b 703 951 718 935 713 944 b 685 957 697 955 691 957 b 658 943 675 957 665 952 l 52 45 b 44 24 47 38 44 31 b 54 1 44 15 47 7 b 77 -9 60 -6 68 -9 z m 517 890 b 541 900 526 890 534 893 b 550 923 547 906 550 914 b 541 947 550 932 547 941 b 517 957 534 954 526 957 l 114 957 b 90 947 104 957 96 954 b 81 923 84 941 81 932 b 90 900 81 914 84 906 b 114 890 96 893 104 890 z m 558 1036 b 579 1046 566 1036 572 1040 b 589 1067 585 1052 589 1059 b 581 1088 589 1075 586 1082 l 419 1263 b 397 1274 412 1270 405 1274 b 374 1263 388 1274 380 1270 l 212 1088 b 204 1067 207 1082 204 1075 b 214 1046 204 1059 208 1052 b 235 1036 220 1040 227 1036 b 258 1046 243 1036 251 1040 l 397 1198 l 535 1046 b 558 1036 542 1040 549 1036 z "},"Š":{"ha":741,"x_min":0,"x_max":0,"o":"m 389 -9 b 505 12 429 -9 468 -3 b 606 76 543 26 576 47 b 673 174 635 104 658 137 b 696 290 689 212 696 250 b 621 490 696 363 671 430 b 507 583 592 525 554 556 l 269 716 b 253 721 264 720 258 721 b 224 703 241 721 231 715 b 220 688 221 699 220 693 b 237 659 220 676 225 666 l 475 524 b 593 415 529 494 568 457 b 629 288 617 373 629 331 b 600 176 629 248 620 210 b 516 90 581 140 552 112 b 387 58 479 68 436 58 b 221 107 330 58 275 74 b 109 239 166 140 129 184 b 77 261 101 254 91 261 b 66 260 73 261 70 260 b 44 229 52 252 44 242 b 46 218 44 225 45 221 b 176 56 70 151 113 97 b 389 -9 245 12 316 -9 z m 499 355 b 528 373 511 355 521 361 b 532 389 531 378 532 384 b 515 418 532 401 526 411 l 276 548 b 149 677 207 587 164 630 b 140 727 142 694 140 710 b 195 844 140 771 158 810 b 269 889 215 863 239 878 b 365 905 298 900 330 905 b 519 854 422 905 474 888 b 614 720 564 820 595 775 b 646 696 621 704 631 696 b 673 710 657 696 666 701 b 679 730 677 716 679 723 b 677 740 679 734 678 736 b 559 908 655 809 615 865 b 365 972 502 951 437 972 b 244 951 321 972 281 966 b 149 893 207 937 176 918 b 73 728 98 845 73 790 b 245 489 73 633 130 554 l 484 359 b 499 355 488 357 494 355 z m 532 1036 b 553 1046 539 1036 546 1040 b 562 1067 559 1052 562 1059 b 554 1088 562 1075 559 1082 l 393 1263 b 370 1274 386 1270 378 1274 b 347 1263 361 1274 354 1270 l 186 1088 b 178 1067 180 1082 178 1075 b 188 1046 178 1059 181 1052 b 208 1036 194 1040 201 1036 b 231 1046 217 1036 224 1040 l 370 1198 l 509 1046 b 532 1036 515 1040 523 1036 z "},"à":{"ha":900,"x_min":0,"x_max":0,"o":"m 395 -16 b 572 34 460 -16 519 1 b 699 168 625 67 667 112 b 745 351 730 224 745 285 l 745 615 b 753 633 745 622 748 628 b 770 640 758 637 764 640 b 787 633 777 640 783 637 b 795 615 792 628 795 623 l 795 31 b 804 9 795 22 798 16 b 825 0 810 3 817 0 b 847 9 834 0 841 3 b 856 31 853 16 856 22 l 856 615 b 831 676 856 639 848 659 b 771 702 812 693 792 702 b 711 678 749 702 728 694 b 684 615 692 662 684 641 l 684 351 b 661 232 684 309 676 269 b 598 134 646 195 625 162 b 503 68 570 105 538 83 b 395 46 467 54 431 46 b 286 68 357 46 321 54 b 191 135 251 83 219 105 b 127 236 162 165 141 199 b 106 351 113 273 106 312 b 127 466 106 390 113 429 b 191 567 141 503 162 537 b 286 634 218 596 250 618 b 395 656 321 649 358 656 b 543 613 446 656 495 642 b 559 608 549 610 554 608 b 585 623 570 608 578 613 b 590 639 589 628 590 633 b 576 665 590 649 585 658 b 395 718 519 701 459 718 b 217 668 329 718 270 701 b 91 534 163 635 121 590 b 44 351 60 478 44 417 b 91 168 44 285 60 224 b 217 34 121 112 163 67 b 395 -16 270 1 329 -16 z m 489 766 b 512 777 498 766 505 770 b 522 800 519 784 522 791 b 512 824 522 809 519 817 l 359 970 b 336 979 352 976 345 979 b 313 969 328 979 319 976 b 303 946 307 962 303 954 b 314 922 303 937 307 929 l 466 776 b 489 766 473 770 481 766 z "},"á":{"ha":900,"x_min":0,"x_max":0,"o":"m 395 -16 b 572 34 460 -16 519 1 b 699 168 625 67 667 112 b 745 351 730 224 745 285 l 745 615 b 753 633 745 622 748 628 b 770 640 758 637 764 640 b 787 633 777 640 783 637 b 795 615 792 628 795 623 l 795 31 b 804 9 795 22 798 16 b 825 0 810 3 817 0 b 847 9 834 0 841 3 b 856 31 853 16 856 22 l 856 615 b 831 676 856 639 848 659 b 771 702 812 693 792 702 b 711 678 749 702 728 694 b 684 615 692 662 684 641 l 684 351 b 661 232 684 309 676 269 b 598 134 646 195 625 162 b 503 68 570 105 538 83 b 395 46 467 54 431 46 b 286 68 357 46 321 54 b 191 135 251 83 219 105 b 127 236 162 165 141 199 b 106 351 113 273 106 312 b 127 466 106 390 113 429 b 191 567 141 503 162 537 b 286 634 218 596 250 618 b 395 656 321 649 358 656 b 543 613 446 656 495 642 b 559 608 549 610 554 608 b 585 623 570 608 578 613 b 590 639 589 628 590 633 b 576 665 590 649 585 658 b 395 718 519 701 459 718 b 217 668 329 718 270 701 b 91 534 163 635 121 590 b 44 351 60 478 44 417 b 91 168 44 285 60 224 b 217 34 121 112 163 67 b 395 -16 270 1 329 -16 z m 355 766 b 377 776 363 766 370 770 l 530 922 b 540 946 536 929 540 937 b 531 969 540 954 537 962 b 507 979 524 976 516 979 b 484 970 498 979 491 976 l 332 824 b 321 800 324 817 321 808 b 331 777 321 791 324 784 b 355 766 338 770 346 766 z "},"â":{"ha":900,"x_min":0,"x_max":0,"o":"m 395 -16 b 572 34 460 -16 519 1 b 699 168 625 67 667 112 b 745 351 730 224 745 285 l 745 615 b 753 633 745 622 748 628 b 770 640 758 637 764 640 b 787 633 777 640 783 637 b 795 615 792 628 795 623 l 795 31 b 804 9 795 22 798 16 b 825 0 810 3 817 0 b 847 9 834 0 841 3 b 856 31 853 16 856 22 l 856 615 b 831 676 856 639 848 659 b 771 702 812 693 792 702 b 711 678 749 702 728 694 b 684 615 692 662 684 641 l 684 351 b 661 232 684 309 676 269 b 598 134 646 195 625 162 b 503 68 570 105 538 83 b 395 46 467 54 431 46 b 286 68 357 46 321 54 b 191 135 251 83 219 105 b 127 236 162 165 141 199 b 106 351 113 273 106 312 b 127 466 106 390 113 429 b 191 567 141 503 162 537 b 286 634 218 596 250 618 b 395 656 321 649 358 656 b 543 613 446 656 495 642 b 559 608 549 610 554 608 b 585 623 570 608 578 613 b 590 639 589 628 590 633 b 576 665 590 649 585 658 b 395 718 519 701 459 718 b 217 668 329 718 270 701 b 91 534 163 635 121 590 b 44 351 60 478 44 417 b 91 168 44 285 60 224 b 217 34 121 112 163 67 b 395 -16 270 1 329 -16 z m 394 769 b 416 779 402 769 410 772 l 578 955 b 586 976 583 961 586 968 b 576 998 586 984 583 991 b 555 1006 570 1004 563 1006 b 533 996 547 1006 540 1003 l 394 846 l 255 996 b 233 1006 248 1003 241 1006 b 212 998 225 1006 218 1004 b 202 976 205 991 202 984 b 210 955 202 968 205 961 l 372 779 b 394 769 378 772 386 769 z "},"ã":{"ha":900,"x_min":0,"x_max":0,"o":"m 395 -16 b 572 34 460 -16 519 1 b 699 168 625 67 667 112 b 745 351 730 224 745 285 l 745 615 b 753 633 745 622 748 628 b 770 640 758 637 764 640 b 787 633 777 640 783 637 b 795 615 792 628 795 623 l 795 31 b 804 9 795 22 798 16 b 825 0 810 3 817 0 b 847 9 834 0 841 3 b 856 31 853 16 856 22 l 856 615 b 831 676 856 639 848 659 b 771 702 812 693 792 702 b 711 678 749 702 728 694 b 684 615 692 662 684 641 l 684 351 b 661 232 684 309 676 269 b 598 134 646 195 625 162 b 503 68 570 105 538 83 b 395 46 467 54 431 46 b 286 68 357 46 321 54 b 191 135 251 83 219 105 b 127 236 162 165 141 199 b 106 351 113 273 106 312 b 127 466 106 390 113 429 b 191 567 141 503 162 537 b 286 634 218 596 250 618 b 395 656 321 649 358 656 b 543 613 446 656 495 642 b 559 608 549 610 554 608 b 585 623 570 608 578 613 b 590 639 589 628 590 633 b 576 665 590 649 585 658 b 395 718 519 701 459 718 b 217 668 329 718 270 701 b 91 534 163 635 121 590 b 44 351 60 478 44 417 b 91 168 44 285 60 224 b 217 34 121 112 163 67 b 395 -16 270 1 329 -16 z m 207 787 b 229 797 216 788 222 791 b 237 818 234 803 237 810 l 237 822 b 254 865 237 840 243 854 b 301 882 266 876 281 882 b 346 871 318 882 333 878 b 380 844 358 863 370 854 b 498 791 416 808 456 791 b 579 824 530 791 557 802 b 612 913 602 846 612 876 b 604 935 612 922 610 928 b 582 943 597 941 591 943 b 560 935 573 943 566 941 b 551 913 554 928 551 922 b 545 882 551 903 549 892 b 526 860 541 872 534 865 b 497 852 516 855 507 852 b 482 854 492 852 487 853 b 418 892 458 861 436 873 b 371 928 404 905 389 918 b 301 944 353 939 330 944 b 210 907 264 943 233 931 b 176 821 187 885 176 857 l 176 817 b 185 796 176 808 179 802 b 207 787 191 790 198 787 z "},"ä":{"ha":900,"x_min":0,"x_max":0,"o":"m 395 -16 b 572 34 460 -16 519 1 b 699 168 625 67 667 112 b 745 351 730 224 745 285 l 745 615 b 753 633 745 622 748 628 b 770 640 758 637 764 640 b 787 633 777 640 783 637 b 795 615 792 628 795 623 l 795 31 b 804 9 795 22 798 16 b 825 0 810 3 817 0 b 847 9 834 0 841 3 b 856 31 853 16 856 22 l 856 615 b 831 676 856 639 848 659 b 771 702 812 693 792 702 b 711 678 749 702 728 694 b 684 615 692 662 684 641 l 684 351 b 661 232 684 309 676 269 b 598 134 646 195 625 162 b 503 68 570 105 538 83 b 395 46 467 54 431 46 b 286 68 357 46 321 54 b 191 135 251 83 219 105 b 127 236 162 165 141 199 b 106 351 113 273 106 312 b 127 466 106 390 113 429 b 191 567 141 503 162 537 b 286 634 218 596 250 618 b 395 656 321 649 358 656 b 543 613 446 656 495 642 b 559 608 549 610 554 608 b 585 623 570 608 578 613 b 590 639 589 628 590 633 b 576 665 590 649 585 658 b 395 718 519 701 459 718 b 217 668 329 718 270 701 b 91 534 163 635 121 590 b 44 351 60 478 44 417 b 91 168 44 285 60 224 b 217 34 121 112 163 67 b 395 -16 270 1 329 -16 z m 482 783 b 504 792 491 783 498 786 b 513 814 510 798 513 805 l 513 911 b 504 933 513 920 510 927 b 482 942 498 939 491 942 b 460 933 473 942 467 939 b 452 911 454 927 452 920 l 452 814 b 460 792 452 805 454 798 b 482 783 467 786 473 783 z m 306 783 b 328 792 315 783 322 786 b 337 814 334 798 337 805 l 337 911 b 328 933 337 920 334 927 b 306 942 322 939 315 942 b 285 933 298 942 291 939 b 275 911 279 927 275 920 l 275 814 b 285 792 275 805 279 798 b 306 783 291 786 298 783 z "},"å":{"ha":900,"x_min":0,"x_max":0,"o":"m 395 -16 b 572 34 460 -16 519 1 b 699 168 625 67 667 112 b 745 351 730 224 745 285 l 745 615 b 753 633 745 622 748 628 b 770 640 758 637 764 640 b 787 633 777 640 783 637 b 795 615 792 628 795 623 l 795 31 b 804 9 795 22 798 16 b 825 0 810 3 817 0 b 847 9 834 0 841 3 b 856 31 853 16 856 22 l 856 615 b 831 676 856 639 848 659 b 771 702 812 693 792 702 b 711 678 749 702 728 694 b 684 615 692 662 684 641 l 684 351 b 661 232 684 309 676 269 b 598 134 646 195 625 162 b 503 68 570 105 538 83 b 395 46 467 54 431 46 b 286 68 357 46 321 54 b 191 135 251 83 219 105 b 127 236 162 165 141 199 b 106 351 113 273 106 312 b 127 466 106 390 113 429 b 191 567 141 503 162 537 b 286 634 218 596 250 618 b 395 656 321 649 358 656 b 543 613 446 656 495 642 b 559 608 549 610 554 608 b 585 623 570 608 578 613 b 590 639 589 628 590 633 b 576 665 590 649 585 658 b 395 718 519 701 459 718 b 217 668 329 718 270 701 b 91 534 163 635 121 590 b 44 351 60 478 44 417 b 91 168 44 285 60 224 b 217 34 121 112 163 67 b 395 -16 270 1 329 -16 z m 394 746 b 471 779 422 746 448 757 b 503 857 492 802 503 827 b 473 937 503 886 492 913 b 394 972 453 960 427 972 b 315 937 361 972 335 960 b 285 858 295 913 285 887 b 317 779 285 828 296 802 b 394 746 340 757 366 746 z m 394 797 b 354 814 379 797 366 802 b 336 859 342 825 336 840 b 354 903 336 877 342 892 b 394 920 366 915 379 920 b 434 903 408 920 421 914 b 452 859 446 889 452 874 b 434 814 452 842 446 827 b 394 797 421 803 408 797 z "},"æ":{"ha":1539,"x_min":0,"x_max":0,"o":"m 1144 -16 b 1302 24 1199 -16 1251 -3 b 1431 140 1353 50 1396 89 b 1436 157 1434 145 1436 151 b 1423 183 1436 167 1432 176 b 1406 189 1417 186 1412 189 b 1380 174 1396 189 1388 184 b 1274 79 1351 132 1316 100 b 1143 46 1232 57 1189 46 b 1037 68 1107 46 1072 54 b 941 135 1002 83 970 105 b 855 345 887 191 859 260 b 856 352 856 347 856 349 b 878 473 856 397 863 437 b 940 567 892 507 913 539 b 1032 633 966 595 998 617 b 1144 656 1067 648 1104 656 b 1283 619 1195 656 1242 644 b 1385 520 1324 594 1358 562 b 1432 382 1411 479 1426 433 l 1004 382 b 983 373 996 382 989 379 b 974 351 977 367 974 360 l 974 264 b 983 243 974 256 977 249 b 1004 233 989 237 996 233 b 1026 243 1013 233 1020 237 b 1035 264 1032 249 1035 256 l 1035 320 l 1464 320 b 1486 330 1473 320 1480 323 b 1495 351 1492 336 1495 342 b 1468 494 1495 402 1486 450 b 1392 610 1449 538 1424 577 b 1276 692 1358 646 1319 673 b 1145 718 1234 709 1190 718 b 985 678 1090 718 1036 705 b 856 560 935 652 891 612 l 856 615 b 831 676 856 639 848 659 b 770 702 812 693 791 702 b 711 678 748 702 728 694 b 684 615 692 662 684 641 l 684 351 b 661 232 684 309 676 269 b 598 135 646 195 625 163 b 503 68 570 105 538 83 b 395 46 467 54 431 46 b 286 68 357 46 321 54 b 191 136 251 83 219 105 b 127 237 162 165 141 199 b 106 351 113 274 106 312 b 127 467 106 391 113 429 b 191 567 141 504 162 537 b 286 634 218 597 250 619 b 395 656 321 649 357 656 b 543 613 446 656 495 642 b 559 608 549 610 554 608 b 585 623 570 608 578 613 b 590 640 589 629 590 634 b 576 665 590 650 585 658 b 395 718 519 701 459 718 b 217 668 329 718 270 701 b 91 534 164 635 122 590 b 44 351 60 479 44 418 b 91 169 44 286 60 224 b 217 35 122 113 164 68 b 395 -16 270 1 329 -16 b 572 35 460 -16 519 1 b 699 169 625 68 667 113 b 745 351 730 224 745 286 l 745 615 b 753 633 745 622 748 628 b 770 640 758 637 764 640 b 787 633 776 640 782 638 b 795 615 792 629 795 623 l 794 351 b 821 209 794 300 803 253 b 896 92 840 165 864 125 b 1013 11 931 56 970 28 b 1144 -16 1056 -7 1100 -16 z "},"ç":{"ha":766,"x_min":0,"x_max":0,"o":"m 379 -229 b 399 -227 386 -229 393 -228 b 467 -193 429 -222 452 -211 b 490 -138 483 -176 490 -157 b 469 -85 490 -119 484 -101 b 406 -56 455 -70 434 -60 l 389 -55 b 366 -57 382 -55 374 -56 l 379 -15 l 400 -16 b 589 41 469 -16 532 3 b 720 191 646 78 689 128 b 722 205 722 196 722 200 b 705 232 722 216 717 225 b 692 235 701 234 696 235 b 664 218 680 235 671 229 b 551 90 637 161 600 119 b 399 46 503 61 452 46 b 290 68 361 46 326 54 b 193 135 254 82 222 104 b 127 237 163 165 142 199 b 106 351 113 274 106 312 b 127 467 106 391 113 429 b 193 568 142 504 163 537 b 290 635 222 597 254 620 b 399 656 326 649 361 656 b 545 616 450 656 498 643 b 656 500 591 590 629 551 b 684 484 664 489 673 484 b 699 488 688 484 694 485 b 715 514 709 494 715 503 b 711 529 715 519 713 524 b 581 667 679 587 636 633 b 399 718 526 701 465 718 b 220 668 334 718 273 701 b 92 535 166 635 123 590 b 44 351 60 479 44 418 b 125 119 44 264 71 186 b 333 -9 178 52 248 9 b 311 -83 319 -54 312 -79 b 318 -100 311 -90 313 -95 b 335 -106 323 -104 328 -106 l 358 -104 b 392 -101 371 -102 382 -101 b 431 -113 409 -102 422 -106 b 444 -137 440 -119 444 -127 b 423 -170 444 -151 436 -162 b 380 -182 410 -178 395 -182 b 345 -174 368 -182 356 -180 b 320 -149 334 -169 326 -160 b 300 -136 315 -140 309 -136 b 290 -138 296 -136 293 -136 b 276 -159 281 -142 276 -150 b 278 -168 276 -162 277 -165 b 321 -214 288 -189 302 -203 b 379 -229 339 -224 358 -229 z "},"è":{"ha":789,"x_min":0,"x_max":0,"o":"m 394 -16 b 553 24 449 -16 502 -3 b 682 140 604 50 646 89 b 687 157 685 145 687 151 b 673 182 687 167 682 175 b 656 188 667 186 662 188 b 631 174 646 188 638 183 b 529 80 604 134 570 103 b 395 45 488 57 443 45 b 248 87 340 45 292 60 b 144 199 204 115 170 153 b 106 351 119 245 106 296 b 144 503 106 406 119 456 b 248 614 170 549 204 587 b 395 656 292 642 340 656 b 534 619 446 656 492 644 b 635 520 575 594 609 562 b 682 382 661 479 677 433 l 255 382 b 233 373 246 382 239 379 b 224 351 227 367 224 359 l 224 264 b 233 242 224 255 227 248 b 255 233 239 236 246 233 b 277 242 264 233 271 236 b 286 264 283 248 286 255 l 286 320 l 714 320 b 736 329 723 320 730 323 b 745 351 743 335 745 342 b 718 493 745 401 736 449 b 643 610 700 537 675 576 b 526 691 608 646 569 673 b 395 718 484 709 439 718 b 263 691 350 718 306 709 b 147 610 220 673 182 646 b 70 488 113 574 87 533 b 44 351 53 444 44 398 b 70 214 44 304 53 258 b 148 92 87 169 113 128 b 264 11 182 56 221 28 b 394 -16 307 -7 350 -16 z m 435 766 b 458 777 444 766 451 770 b 468 800 465 784 468 791 b 458 824 468 809 465 817 l 305 970 b 282 979 298 976 290 979 b 259 969 273 979 265 976 b 249 946 252 962 249 954 b 260 922 249 937 252 929 l 412 776 b 435 766 419 770 427 766 z "},"é":{"ha":789,"x_min":0,"x_max":0,"o":"m 394 -16 b 553 24 449 -16 502 -3 b 682 140 604 50 646 89 b 687 157 685 145 687 151 b 673 182 687 167 682 175 b 656 188 667 186 662 188 b 631 174 646 188 638 183 b 529 80 604 134 570 103 b 395 45 488 57 443 45 b 248 87 340 45 292 60 b 144 199 204 115 170 153 b 106 351 119 245 106 296 b 144 503 106 406 119 456 b 248 614 170 549 204 587 b 395 656 292 642 340 656 b 534 619 446 656 492 644 b 635 520 575 594 609 562 b 682 382 661 479 677 433 l 255 382 b 233 373 246 382 239 379 b 224 351 227 367 224 359 l 224 264 b 233 242 224 255 227 248 b 255 233 239 236 246 233 b 277 242 264 233 271 236 b 286 264 283 248 286 255 l 286 320 l 714 320 b 736 329 723 320 730 323 b 745 351 743 335 745 342 b 718 493 745 401 736 449 b 643 610 700 537 675 576 b 526 691 608 646 569 673 b 395 718 484 709 439 718 b 263 691 350 718 306 709 b 147 610 220 673 182 646 b 70 488 113 574 87 533 b 44 351 53 444 44 398 b 70 214 44 304 53 258 b 148 92 87 169 113 128 b 264 11 182 56 221 28 b 394 -16 307 -7 350 -16 z m 355 766 b 378 776 363 766 371 770 l 530 922 b 541 946 537 929 541 937 b 532 969 541 954 538 962 b 508 979 524 976 517 979 b 485 970 499 979 492 976 l 332 824 b 321 800 325 817 321 808 b 332 777 321 791 325 784 b 355 766 338 770 347 766 z "},"ê":{"ha":789,"x_min":0,"x_max":0,"o":"m 394 -16 b 553 24 449 -16 502 -3 b 682 140 604 50 646 89 b 687 157 685 145 687 151 b 673 182 687 167 682 175 b 656 188 667 186 662 188 b 631 174 646 188 638 183 b 529 80 604 134 570 103 b 395 45 488 57 443 45 b 248 87 340 45 292 60 b 144 199 204 115 170 153 b 106 351 119 245 106 296 b 144 503 106 406 119 456 b 248 614 170 549 204 587 b 395 656 292 642 340 656 b 534 619 446 656 492 644 b 635 520 575 594 609 562 b 682 382 661 479 677 433 l 255 382 b 233 373 246 382 239 379 b 224 351 227 367 224 359 l 224 264 b 233 242 224 255 227 248 b 255 233 239 236 246 233 b 277 242 264 233 271 236 b 286 264 283 248 286 255 l 286 320 l 714 320 b 736 329 723 320 730 323 b 745 351 743 335 745 342 b 718 493 745 401 736 449 b 643 610 700 537 675 576 b 526 691 608 646 569 673 b 395 718 484 709 439 718 b 263 691 350 718 306 709 b 147 610 220 673 182 646 b 70 488 113 574 87 533 b 44 351 53 444 44 398 b 70 214 44 304 53 258 b 148 92 87 169 113 128 b 264 11 182 56 221 28 b 394 -16 307 -7 350 -16 z m 395 769 b 417 779 403 769 410 772 l 578 955 b 587 976 584 961 587 968 b 577 998 587 984 583 991 b 556 1006 570 1004 564 1006 b 534 996 548 1006 541 1003 l 395 846 l 256 996 b 233 1006 249 1003 241 1006 b 212 998 226 1006 219 1004 b 203 976 206 991 203 984 b 211 955 203 968 205 961 l 372 779 b 395 769 379 772 387 769 z "},"ë":{"ha":789,"x_min":0,"x_max":0,"o":"m 394 -16 b 553 24 449 -16 502 -3 b 682 140 604 50 646 89 b 687 157 685 145 687 151 b 673 182 687 167 682 175 b 656 188 667 186 662 188 b 631 174 646 188 638 183 b 529 80 604 134 570 103 b 395 45 488 57 443 45 b 248 87 340 45 292 60 b 144 199 204 115 170 153 b 106 351 119 245 106 296 b 144 503 106 406 119 456 b 248 614 170 549 204 587 b 395 656 292 642 340 656 b 534 619 446 656 492 644 b 635 520 575 594 609 562 b 682 382 661 479 677 433 l 255 382 b 233 373 246 382 239 379 b 224 351 227 367 224 359 l 224 264 b 233 242 224 255 227 248 b 255 233 239 236 246 233 b 277 242 264 233 271 236 b 286 264 283 248 286 255 l 286 320 l 714 320 b 736 329 723 320 730 323 b 745 351 743 335 745 342 b 718 493 745 401 736 449 b 643 610 700 537 675 576 b 526 691 608 646 569 673 b 395 718 484 709 439 718 b 263 691 350 718 306 709 b 147 610 220 673 182 646 b 70 488 113 574 87 533 b 44 351 53 444 44 398 b 70 214 44 304 53 258 b 148 92 87 169 113 128 b 264 11 182 56 221 28 b 394 -16 307 -7 350 -16 z m 483 783 b 505 792 492 783 498 786 b 513 814 511 798 513 805 l 513 911 b 505 933 513 920 511 927 b 483 942 498 939 492 942 b 461 933 474 942 467 939 b 452 911 455 927 452 920 l 452 814 b 461 792 452 805 455 798 b 483 783 467 786 474 783 z m 307 783 b 329 792 315 783 323 786 b 338 814 335 798 338 805 l 338 911 b 329 933 338 920 335 927 b 307 942 323 939 315 942 b 286 933 298 942 292 939 b 276 911 279 927 276 920 l 276 814 b 286 792 276 805 279 798 b 307 783 292 786 298 783 z "},"ì":{"ha":253,"x_min":0,"x_max":0,"o":"m 178 3 b 200 12 186 3 194 6 b 209 34 206 18 209 25 l 209 671 b 200 693 209 680 206 687 b 178 702 194 699 186 702 l 75 702 b 54 693 66 702 60 699 b 44 671 47 687 44 680 b 54 650 44 663 47 656 b 75 640 60 644 66 640 l 147 640 l 147 34 b 157 12 147 25 151 18 b 178 3 163 6 170 3 z m 166 766 b 189 777 175 766 182 770 b 199 800 196 784 199 791 b 189 824 199 809 196 817 l 37 970 b 14 979 29 976 22 979 b -9 969 5 979 -3 976 b -20 946 -16 962 -20 954 b -9 922 -20 937 -16 929 l 143 776 b 166 766 151 770 158 766 z "},"í":{"ha":253,"x_min":0,"x_max":0,"o":"m 178 3 b 200 12 186 3 194 6 b 209 34 206 18 209 25 l 209 671 b 200 693 209 680 206 687 b 178 702 194 699 186 702 l 75 702 b 54 693 66 702 60 699 b 44 671 47 687 44 680 b 54 650 44 663 47 656 b 75 640 60 644 66 640 l 147 640 l 147 34 b 157 12 147 25 151 18 b 178 3 163 6 170 3 z m 87 766 b 109 776 95 766 102 770 l 262 922 b 272 946 269 929 272 937 b 263 969 272 954 269 962 b 239 979 256 976 248 979 b 216 970 231 979 223 976 l 64 824 b 53 800 56 817 53 808 b 63 777 53 791 56 784 b 87 766 70 770 78 766 z "},"î":{"ha":253,"x_min":0,"x_max":0,"o":"m 178 3 b 200 12 186 3 194 6 b 209 34 206 18 209 25 l 209 671 b 200 693 209 680 206 687 b 178 702 194 699 186 702 l 75 702 b 54 693 66 702 60 699 b 44 671 47 687 44 680 b 54 650 44 663 47 656 b 75 640 60 644 66 640 l 147 640 l 147 34 b 157 12 147 25 151 18 b 178 3 163 6 170 3 z m 126 769 b 149 779 134 769 142 772 l 310 955 b 318 976 315 961 318 968 b 309 998 318 984 315 991 b 288 1006 302 1004 295 1006 b 265 996 279 1006 272 1003 l 126 846 l -13 996 b -35 1006 -20 1003 -27 1006 b -56 998 -43 1006 -50 1004 b -66 976 -62 991 -66 984 b -58 955 -66 968 -63 961 l 104 779 b 126 769 111 772 118 769 z "},"ï":{"ha":253,"x_min":0,"x_max":0,"o":"m 178 3 b 200 12 186 3 194 6 b 209 34 206 18 209 25 l 209 671 b 200 693 209 680 206 687 b 178 702 194 699 186 702 l 75 702 b 54 693 66 702 60 699 b 44 671 47 687 44 680 b 54 650 44 663 47 656 b 75 640 60 644 66 640 l 147 640 l 147 34 b 157 12 147 25 151 18 b 178 3 163 6 170 3 z m 214 783 b 236 792 223 783 230 786 b 245 814 242 798 245 805 l 245 911 b 236 933 245 920 242 927 b 214 942 230 939 223 942 b 193 933 205 942 199 939 b 184 911 186 927 184 920 l 184 814 b 193 792 184 805 186 798 b 214 783 199 786 205 783 z m 38 783 b 60 792 47 783 54 786 b 69 814 66 798 69 805 l 69 911 b 60 933 69 920 66 927 b 38 942 54 939 47 942 b 17 933 30 942 23 939 b 7 911 11 927 7 920 l 7 814 b 17 792 7 805 11 798 b 38 783 23 786 30 783 z "},"ñ":{"ha":703,"x_min":0,"x_max":0,"o":"m 130 0 b 191 24 152 0 172 8 b 217 87 208 40 217 61 l 217 482 b 208 504 217 491 214 498 b 186 513 202 510 195 513 b 164 504 177 513 170 510 b 155 482 158 498 155 491 l 155 87 b 148 69 155 80 153 74 b 131 62 142 64 137 62 b 114 69 125 62 119 64 b 106 87 109 74 106 79 l 106 640 l 435 640 b 551 592 480 640 519 624 b 598 477 583 560 598 522 l 598 31 b 607 9 598 22 601 16 b 629 1 613 3 620 1 b 650 9 637 1 644 3 b 659 31 656 16 659 22 l 659 477 b 594 635 659 538 637 591 b 435 701 550 680 497 701 l 75 701 b 53 692 66 701 59 699 b 44 671 47 686 44 680 l 44 87 b 70 26 44 63 53 43 b 130 0 89 9 109 0 z m 165 787 b 186 797 174 788 180 791 b 195 818 192 803 195 810 l 195 822 b 212 865 195 840 201 854 b 259 882 224 876 239 882 b 304 871 276 882 291 878 b 338 844 316 863 328 854 b 456 791 374 808 414 791 b 537 824 488 791 515 802 b 570 913 559 846 570 876 b 562 935 570 922 568 928 b 540 943 555 941 549 943 b 518 935 531 943 524 941 b 509 913 512 928 509 922 b 503 882 509 903 507 892 b 484 860 499 872 492 865 b 455 852 474 855 465 852 b 440 854 450 852 445 853 b 376 892 416 861 394 873 b 329 928 362 905 347 918 b 259 944 311 939 288 944 b 168 907 222 943 191 931 b 134 821 145 885 134 857 l 134 817 b 143 796 134 808 137 802 b 165 787 149 790 156 787 z "},"ò":{"ha":800,"x_min":0,"x_max":0,"o":"m 400 -16 b 580 34 466 -16 526 1 b 708 168 633 67 676 112 b 755 351 740 223 755 284 b 708 534 755 418 740 479 b 580 668 676 590 633 635 b 400 718 526 701 466 718 b 220 668 334 718 273 701 b 92 534 166 635 123 590 b 44 351 60 479 44 418 b 92 168 44 284 60 223 b 220 34 123 112 166 67 b 400 -16 273 1 334 -16 z m 400 46 b 290 68 363 46 326 54 b 193 136 254 83 222 105 b 127 237 163 165 142 199 b 106 351 113 274 106 312 b 127 466 106 390 113 429 b 193 567 142 503 163 537 b 290 634 222 597 254 619 b 400 656 326 648 363 656 b 511 634 437 656 475 648 b 608 567 547 619 578 597 b 673 466 637 537 659 503 b 694 351 687 429 694 390 b 673 237 694 312 687 274 b 608 136 659 199 637 165 b 511 68 578 105 547 83 b 400 46 475 54 437 46 z m 440 766 b 463 777 449 766 456 770 b 473 800 470 784 473 791 b 463 824 473 809 470 817 l 311 970 b 288 979 303 976 296 979 b 264 969 279 979 271 976 b 254 946 258 962 254 954 b 265 922 254 937 258 929 l 417 776 b 440 766 425 770 432 766 z "},"ó":{"ha":800,"x_min":0,"x_max":0,"o":"m 400 -16 b 580 34 466 -16 526 1 b 708 168 633 67 676 112 b 755 351 740 223 755 284 b 708 534 755 418 740 479 b 580 668 676 590 633 635 b 400 718 526 701 466 718 b 220 668 334 718 273 701 b 92 534 166 635 123 590 b 44 351 60 479 44 418 b 92 168 44 284 60 223 b 220 34 123 112 166 67 b 400 -16 273 1 334 -16 z m 400 46 b 290 68 363 46 326 54 b 193 136 254 83 222 105 b 127 237 163 165 142 199 b 106 351 113 274 106 312 b 127 466 106 390 113 429 b 193 567 142 503 163 537 b 290 634 222 597 254 619 b 400 656 326 648 363 656 b 511 634 437 656 475 648 b 608 567 547 619 578 597 b 673 466 637 537 659 503 b 694 351 687 429 694 390 b 673 237 694 312 687 274 b 608 136 659 199 637 165 b 511 68 578 105 547 83 b 400 46 475 54 437 46 z m 361 766 b 383 776 369 766 376 770 l 536 922 b 546 946 543 929 546 937 b 537 969 546 954 543 962 b 513 979 530 976 522 979 b 490 970 505 979 497 976 l 338 824 b 327 800 330 817 327 808 b 337 777 327 791 330 784 b 361 766 344 770 352 766 z "},"ô":{"ha":800,"x_min":0,"x_max":0,"o":"m 400 -16 b 580 34 466 -16 526 1 b 708 168 633 67 676 112 b 755 351 740 223 755 284 b 708 534 755 418 740 479 b 580 668 676 590 633 635 b 400 718 526 701 466 718 b 220 668 334 718 273 701 b 92 534 166 635 123 590 b 44 351 60 479 44 418 b 92 168 44 284 60 223 b 220 34 123 112 166 67 b 400 -16 273 1 334 -16 z m 400 46 b 290 68 363 46 326 54 b 193 136 254 83 222 105 b 127 237 163 165 142 199 b 106 351 113 274 106 312 b 127 466 106 390 113 429 b 193 567 142 503 163 537 b 290 634 222 597 254 619 b 400 656 326 648 363 656 b 511 634 437 656 475 648 b 608 567 547 619 578 597 b 673 466 637 537 659 503 b 694 351 687 429 694 390 b 673 237 694 312 687 274 b 608 136 659 199 637 165 b 511 68 578 105 547 83 b 400 46 475 54 437 46 z m 400 769 b 422 779 408 769 416 772 l 584 955 b 592 976 589 961 592 968 b 583 998 592 984 589 991 b 562 1006 576 1004 569 1006 b 539 996 553 1006 546 1003 l 400 846 l 261 996 b 239 1006 254 1003 247 1006 b 218 998 231 1006 224 1004 b 208 976 212 991 208 984 b 216 955 208 968 211 961 l 378 779 b 400 769 385 772 392 769 z "},"õ":{"ha":800,"x_min":0,"x_max":0,"o":"m 400 -16 b 580 34 466 -16 526 1 b 708 168 633 67 676 112 b 755 351 740 223 755 284 b 708 534 755 418 740 479 b 580 668 676 590 633 635 b 400 718 526 701 466 718 b 220 668 334 718 273 701 b 92 534 166 635 123 590 b 44 351 60 479 44 418 b 92 168 44 284 60 223 b 220 34 123 112 166 67 b 400 -16 273 1 334 -16 z m 400 46 b 290 68 363 46 326 54 b 193 136 254 83 222 105 b 127 237 163 165 142 199 b 106 351 113 274 106 312 b 127 466 106 390 113 429 b 193 567 142 503 163 537 b 290 634 222 597 254 619 b 400 656 326 648 363 656 b 511 634 437 656 475 648 b 608 567 547 619 578 597 b 673 466 637 537 659 503 b 694 351 687 429 694 390 b 673 237 694 312 687 274 b 608 136 659 199 637 165 b 511 68 578 105 547 83 b 400 46 475 54 437 46 z m 213 787 b 235 797 222 788 229 791 b 243 818 240 803 243 810 l 243 822 b 260 865 243 840 249 854 b 307 882 272 876 288 882 b 352 871 324 882 339 878 b 386 844 364 863 376 854 b 504 791 422 808 462 791 b 585 824 536 791 563 802 b 618 913 608 846 618 876 b 610 935 618 922 616 928 b 588 943 604 941 597 943 b 566 935 579 943 572 941 b 557 913 560 928 557 922 b 551 882 557 903 555 892 b 532 860 547 872 541 865 b 503 852 522 855 513 852 b 488 854 498 852 493 853 b 424 892 464 861 442 873 b 377 928 410 905 395 918 b 307 944 359 939 336 944 b 216 907 270 943 239 931 b 182 821 193 885 182 857 l 182 817 b 191 796 182 808 185 802 b 213 787 197 790 204 787 z "},"ö":{"ha":800,"x_min":0,"x_max":0,"o":"m 400 -16 b 580 34 466 -16 526 1 b 708 168 633 67 676 112 b 755 351 740 223 755 284 b 708 534 755 418 740 479 b 580 668 676 590 633 635 b 400 718 526 701 466 718 b 220 668 334 718 273 701 b 92 534 166 635 123 590 b 44 351 60 479 44 418 b 92 168 44 284 60 223 b 220 34 123 112 166 67 b 400 -16 273 1 334 -16 z m 400 46 b 290 68 363 46 326 54 b 193 136 254 83 222 105 b 127 237 163 165 142 199 b 106 351 113 274 106 312 b 127 466 106 390 113 429 b 193 567 142 503 163 537 b 290 634 222 597 254 619 b 400 656 326 648 363 656 b 511 634 437 656 475 648 b 608 567 547 619 578 597 b 673 466 637 537 659 503 b 694 351 687 429 694 390 b 673 237 694 312 687 274 b 608 136 659 199 637 165 b 511 68 578 105 547 83 b 400 46 475 54 437 46 z m 488 783 b 510 792 497 783 504 786 b 519 814 516 798 519 805 l 519 911 b 510 933 519 920 516 927 b 488 942 504 939 497 942 b 467 933 479 942 473 939 b 458 911 460 927 458 920 l 458 814 b 467 792 458 805 460 798 b 488 783 473 786 479 783 z m 312 783 b 334 792 321 783 328 786 b 343 814 340 798 343 805 l 343 911 b 334 933 343 920 340 927 b 312 942 328 939 321 942 b 291 933 304 942 297 939 b 281 911 285 927 281 920 l 281 814 b 291 792 281 805 285 798 b 312 783 297 786 304 783 z "},"ø":{"ha":800,"x_min":0,"x_max":0,"o":"m 168 -183 b 198 -164 180 -183 191 -177 l 662 836 b 665 849 664 840 665 844 b 646 880 665 862 659 872 b 631 883 641 882 636 883 b 602 863 619 883 609 876 l 523 694 b 399 717 481 709 440 717 b 264 690 353 717 308 708 b 148 608 221 671 182 644 b 70 487 113 572 87 532 b 44 351 53 442 44 397 b 88 174 44 289 59 231 b 217 35 117 118 160 71 l 138 -136 b 134 -150 136 -140 134 -145 b 154 -180 134 -163 141 -172 b 168 -183 159 -182 163 -183 z m 243 92 b 140 206 197 122 163 160 b 105 350 117 252 105 300 b 127 465 105 389 113 427 b 192 566 141 502 163 536 b 289 633 220 595 253 617 b 400 655 325 648 361 655 b 497 638 433 655 465 650 z m 397 -18 b 534 10 446 -18 491 -8 b 646 86 576 28 613 54 b 728 210 682 123 710 164 b 755 351 747 256 755 303 b 734 478 755 394 748 437 b 667 593 719 519 696 557 b 644 604 660 600 652 604 b 623 595 636 604 629 601 b 612 572 616 589 612 581 b 620 553 612 566 615 559 b 675 458 644 525 662 493 b 694 351 688 422 694 387 b 656 200 694 297 681 247 b 550 87 630 153 595 116 b 397 44 505 58 454 44 l 378 45 b 357 37 370 45 363 42 b 347 15 351 31 348 24 b 355 -7 347 6 350 -1 b 376 -17 361 -13 368 -16 z "},"œ":{"ha":1440,"x_min":0,"x_max":0,"o":"m 1046 -16 b 1204 24 1101 -16 1154 -3 b 1333 140 1255 50 1297 89 b 1338 157 1336 146 1338 151 b 1324 183 1338 168 1333 176 b 1308 189 1319 186 1314 189 b 1282 174 1297 189 1289 184 b 1180 81 1255 134 1221 103 b 1046 46 1139 58 1095 46 b 900 88 992 46 943 60 b 796 200 856 116 821 153 b 758 351 770 246 758 296 b 796 503 758 406 770 457 b 900 614 821 549 856 587 b 1046 656 943 642 992 656 b 1185 619 1097 656 1144 644 b 1287 520 1227 594 1261 562 b 1334 382 1313 479 1329 433 l 907 382 b 885 373 898 382 891 379 b 876 351 879 367 876 360 l 876 264 b 885 243 876 256 879 249 b 907 233 891 237 898 233 b 928 243 916 233 922 237 b 937 264 935 249 937 256 l 937 320 l 1366 320 b 1388 330 1375 320 1381 323 b 1396 351 1394 336 1396 342 b 1350 534 1396 418 1381 479 b 1224 668 1319 590 1277 635 b 1046 718 1171 701 1112 718 b 853 658 975 718 910 698 b 725 498 795 617 753 564 b 651 610 707 541 683 578 b 533 692 616 646 576 673 b 399 718 490 709 445 718 b 266 692 354 718 309 709 b 149 610 222 673 183 646 b 71 489 114 574 87 534 b 44 351 53 444 44 398 b 71 214 44 304 53 258 b 149 92 87 169 114 128 b 267 12 183 56 222 29 b 399 -16 310 -7 354 -16 b 540 14 448 -16 494 -5 b 661 103 585 34 625 64 b 669 123 667 109 669 116 b 659 146 669 132 666 140 b 639 154 653 151 646 154 b 616 144 630 154 623 151 b 399 46 555 79 484 46 b 251 88 345 46 295 60 b 144 199 206 116 171 153 b 105 351 118 245 105 296 b 144 504 105 407 118 458 b 251 615 171 550 206 587 b 399 656 295 643 345 656 b 549 615 454 656 505 643 b 654 504 593 587 628 550 b 694 351 681 458 694 407 b 696 340 694 347 694 343 b 798 92 701 241 735 159 b 916 11 833 56 873 28 b 1046 -16 958 -7 1002 -16 z "},"ù":{"ha":689,"x_min":0,"x_max":0,"o":"m 614 0 b 636 9 623 0 630 3 b 645 31 642 16 645 22 l 645 631 b 619 692 645 655 636 675 b 559 718 600 709 580 718 b 499 694 536 718 517 710 b 472 631 481 678 472 657 l 472 236 b 481 214 472 227 475 220 b 503 205 488 208 494 205 b 525 214 512 205 519 208 b 534 236 531 220 534 227 l 534 631 b 542 649 534 638 536 644 b 558 656 547 654 552 656 b 576 650 564 656 570 654 b 583 631 581 645 583 639 l 583 62 l 268 62 b 154 110 224 62 186 78 b 106 225 122 142 106 180 l 106 671 b 97 692 106 680 103 686 b 75 701 91 699 84 701 b 54 692 66 701 60 699 b 44 671 47 686 44 680 l 44 225 b 110 66 44 163 66 111 b 268 0 154 22 206 0 z m 385 766 b 408 777 393 766 401 770 b 418 800 414 784 418 791 b 408 824 418 809 414 817 l 255 970 b 232 979 248 976 240 979 b 209 969 223 979 215 976 b 199 946 202 962 199 954 b 210 922 199 937 202 929 l 361 776 b 385 766 369 770 376 766 z "},"ú":{"ha":689,"x_min":0,"x_max":0,"o":"m 614 0 b 636 9 623 0 630 3 b 645 31 642 16 645 22 l 645 631 b 619 692 645 655 636 675 b 559 718 600 709 580 718 b 499 694 536 718 517 710 b 472 631 481 678 472 657 l 472 236 b 481 214 472 227 475 220 b 503 205 488 208 494 205 b 525 214 512 205 519 208 b 534 236 531 220 534 227 l 534 631 b 542 649 534 638 536 644 b 558 656 547 654 552 656 b 576 650 564 656 570 654 b 583 631 581 645 583 639 l 583 62 l 268 62 b 154 110 224 62 186 78 b 106 225 122 142 106 180 l 106 671 b 97 692 106 680 103 686 b 75 701 91 699 84 701 b 54 692 66 701 60 699 b 44 671 47 686 44 680 l 44 225 b 110 66 44 163 66 111 b 268 0 154 22 206 0 z m 305 766 b 328 776 313 766 321 770 l 480 922 b 490 946 487 929 490 937 b 481 969 490 954 488 962 b 458 979 474 976 467 979 b 435 970 449 979 441 976 l 282 824 b 271 800 275 817 271 808 b 281 777 271 791 275 784 b 305 766 288 770 296 766 z "},"û":{"ha":689,"x_min":0,"x_max":0,"o":"m 614 0 b 636 9 623 0 630 3 b 645 31 642 16 645 22 l 645 631 b 619 692 645 655 636 675 b 559 718 600 709 580 718 b 499 694 536 718 517 710 b 472 631 481 678 472 657 l 472 236 b 481 214 472 227 475 220 b 503 205 488 208 494 205 b 525 214 512 205 519 208 b 534 236 531 220 534 227 l 534 631 b 542 649 534 638 536 644 b 558 656 547 654 552 656 b 576 650 564 656 570 654 b 583 631 581 645 583 639 l 583 62 l 268 62 b 154 110 224 62 186 78 b 106 225 122 142 106 180 l 106 671 b 97 692 106 680 103 686 b 75 701 91 699 84 701 b 54 692 66 701 60 699 b 44 671 47 686 44 680 l 44 225 b 110 66 44 163 66 111 b 268 0 154 22 206 0 z m 345 769 b 367 779 353 769 360 772 l 528 955 b 536 976 534 961 536 968 b 527 998 536 984 533 991 b 506 1006 520 1004 513 1006 b 484 996 498 1006 490 1003 l 345 846 l 205 996 b 183 1006 199 1003 191 1006 b 162 998 176 1006 169 1004 b 153 976 156 991 153 984 b 161 955 153 968 155 961 l 322 779 b 345 769 329 772 336 769 z "},"ü":{"ha":689,"x_min":0,"x_max":0,"o":"m 614 0 b 636 9 623 0 630 3 b 645 31 642 16 645 22 l 645 631 b 619 692 645 655 636 675 b 559 718 600 709 580 718 b 499 694 536 718 517 710 b 472 631 481 678 472 657 l 472 236 b 481 214 472 227 475 220 b 503 205 488 208 494 205 b 525 214 512 205 519 208 b 534 236 531 220 534 227 l 534 631 b 542 649 534 638 536 644 b 558 656 547 654 552 656 b 576 650 564 656 570 654 b 583 631 581 645 583 639 l 583 62 l 268 62 b 154 110 224 62 186 78 b 106 225 122 142 106 180 l 106 671 b 97 692 106 680 103 686 b 75 701 91 699 84 701 b 54 692 66 701 60 699 b 44 671 47 686 44 680 l 44 225 b 110 66 44 163 66 111 b 268 0 154 22 206 0 z m 433 783 b 454 792 441 783 448 786 b 463 814 460 798 463 805 l 463 911 b 454 933 463 920 460 927 b 433 942 448 939 441 942 b 411 933 424 942 417 939 b 402 911 405 927 402 920 l 402 814 b 411 792 402 805 405 798 b 433 783 417 786 424 783 z m 256 783 b 279 792 265 783 273 786 b 288 814 285 798 288 805 l 288 911 b 279 933 288 920 285 927 b 256 942 273 939 265 942 b 235 933 248 942 241 939 b 226 911 229 927 226 920 l 226 814 b 235 792 226 805 229 798 b 256 783 241 786 248 783 z "},"ý":{"ha":659,"x_min":0,"x_max":0,"o":"m 133 -237 b 218 -214 167 -237 195 -229 b 277 -153 241 -199 260 -178 b 321 -70 293 -128 308 -100 b 503 357 363 27 423 169 b 607 602 537 439 572 520 b 614 636 612 613 614 625 b 601 682 614 652 610 668 b 563 715 592 696 579 708 b 529 723 551 720 541 723 b 483 709 512 723 497 718 b 450 671 469 701 457 688 l 450 671 b 401 553 434 634 418 595 b 360 450 387 517 374 482 b 357 437 358 446 357 442 b 376 410 357 426 363 416 b 389 407 380 408 384 407 b 416 425 400 407 410 413 b 461 536 431 460 446 497 b 505 646 475 574 490 611 b 528 661 511 656 519 661 b 538 659 532 661 534 661 b 553 636 548 653 553 646 b 551 626 553 633 553 629 b 415 307 506 522 460 416 l 331 109 l 81 683 b 53 701 74 695 64 701 b 40 699 48 701 44 701 b 22 671 28 692 22 682 b 24 659 22 667 22 663 l 298 31 l 264 -45 b 236 -104 256 -65 247 -84 b 195 -154 224 -123 211 -140 b 136 -175 179 -168 159 -175 b 68 -163 113 -175 90 -171 b 58 -161 64 -162 61 -161 b 28 -181 45 -161 36 -168 b 27 -191 28 -184 27 -188 b 47 -221 27 -204 34 -214 b 133 -237 75 -231 104 -237 z m 301 766 b 323 776 309 766 317 770 l 476 922 b 486 946 483 929 486 937 b 477 969 486 954 484 962 b 454 979 470 976 463 979 b 431 970 445 979 437 976 l 278 824 b 267 800 271 817 267 808 b 277 777 267 791 271 784 b 301 766 284 770 292 766 z "},"ÿ":{"ha":659,"x_min":0,"x_max":0,"o":"m 133 -237 b 218 -214 167 -237 195 -229 b 277 -153 241 -199 260 -178 b 321 -70 293 -128 308 -100 b 503 357 363 27 423 169 b 607 602 537 439 572 520 b 614 636 612 613 614 625 b 601 682 614 652 610 668 b 563 715 592 696 579 708 b 529 723 551 720 541 723 b 483 709 512 723 497 718 b 450 671 469 701 457 688 l 450 671 b 401 553 434 634 418 595 b 360 450 387 517 374 482 b 357 437 358 446 357 442 b 376 410 357 426 363 416 b 389 407 380 408 384 407 b 416 425 400 407 410 413 b 461 536 431 460 446 497 b 505 646 475 574 490 611 b 528 661 511 656 519 661 b 538 659 532 661 534 661 b 553 636 548 653 553 646 b 551 626 553 633 553 629 b 415 307 506 522 460 416 l 331 109 l 81 683 b 53 701 74 695 64 701 b 40 699 48 701 44 701 b 22 671 28 692 22 682 b 24 659 22 667 22 663 l 298 31 l 264 -45 b 236 -104 256 -65 247 -84 b 195 -154 224 -123 211 -140 b 136 -175 179 -168 159 -175 b 68 -163 113 -175 90 -171 b 58 -161 64 -162 61 -161 b 28 -181 45 -161 36 -168 b 27 -191 28 -184 27 -188 b 47 -221 27 -204 34 -214 b 133 -237 75 -231 104 -237 z m 429 783 b 450 792 437 783 444 786 b 459 814 456 798 459 805 l 459 911 b 450 933 459 920 456 927 b 429 942 444 939 437 942 b 407 933 420 942 413 939 b 398 911 401 927 398 920 l 398 814 b 407 792 398 805 401 798 b 429 783 413 786 420 783 z m 252 783 b 275 792 261 783 269 786 b 283 814 281 798 283 805 l 283 911 b 275 933 283 920 281 927 b 252 942 269 939 261 942 b 231 933 244 942 237 939 b 222 911 225 927 222 920 l 222 814 b 231 792 222 805 225 798 b 252 783 237 786 244 783 z "},"š":{"ha":640,"x_min":0,"x_max":0,"o":"m 336 1 b 434 15 370 1 402 5 b 521 58 466 24 494 38 b 576 119 544 75 562 96 b 595 195 589 143 595 168 b 587 248 595 212 593 230 b 478 375 572 292 536 334 l 207 559 b 191 565 201 563 196 565 b 165 551 180 565 172 560 b 159 534 161 545 159 540 b 173 509 159 524 164 516 l 444 324 b 534 195 504 281 534 239 b 484 106 534 161 517 132 b 335 62 444 77 395 62 b 205 91 291 62 248 71 b 100 174 162 111 127 138 b 75 186 92 182 84 186 b 57 181 68 186 63 184 b 44 156 48 174 44 165 b 50 138 44 150 46 144 b 174 37 83 94 124 61 b 336 1 226 13 280 1 z m 450 180 b 475 195 459 180 467 185 b 480 212 478 200 480 205 b 467 237 480 221 475 229 l 196 422 b 113 539 140 460 113 500 b 157 616 113 568 127 594 b 292 656 193 643 238 656 b 433 626 340 656 387 646 b 541 544 478 606 514 578 b 565 532 547 536 555 532 b 583 538 571 532 577 534 b 595 562 591 545 595 553 b 590 581 595 568 593 574 b 456 683 556 625 511 659 b 292 718 401 707 346 718 b 168 694 245 718 203 710 b 83 629 132 677 103 656 b 52 540 62 602 52 572 b 78 454 52 512 60 484 b 162 371 96 425 123 397 l 433 186 b 450 180 438 182 444 180 z m 481 769 b 503 779 489 769 496 772 b 512 800 509 785 512 791 b 504 821 512 808 509 814 l 342 996 b 320 1006 336 1003 328 1006 b 297 996 311 1006 304 1003 l 136 821 b 127 800 130 814 127 808 b 138 779 127 791 131 785 b 158 769 144 772 151 769 b 181 779 167 769 174 772 l 320 930 l 458 779 b 481 769 465 772 473 769 z "},"ž":{"ha":661,"x_min":0,"x_max":0,"o":"m 531 0 b 591 26 555 0 575 9 b 617 87 608 45 617 66 b 593 147 617 109 609 129 b 531 174 578 165 557 174 l 385 174 b 363 165 376 174 369 171 b 354 142 357 159 354 151 b 363 121 354 134 357 127 b 385 112 369 115 376 112 l 531 112 b 549 104 538 112 544 109 b 555 87 553 99 555 93 b 549 70 555 81 553 75 b 531 62 544 64 538 62 l 139 62 l 609 650 b 617 670 614 656 617 663 b 608 692 617 678 614 686 b 586 701 602 698 595 701 l 109 701 b 87 692 100 701 94 699 b 78 671 81 686 78 680 b 87 649 78 662 81 655 b 109 640 94 643 100 640 l 522 640 l 52 52 b 44 31 47 45 44 38 b 53 9 44 22 47 16 b 75 0 59 3 66 0 z m 492 769 b 513 779 499 769 506 772 b 522 800 519 785 522 791 b 514 821 522 808 519 814 l 353 996 b 330 1006 346 1003 338 1006 b 307 996 321 1006 314 1003 l 146 821 b 138 800 140 814 138 808 b 148 779 138 791 141 785 b 168 769 154 772 161 769 b 191 779 177 769 184 772 l 330 930 l 469 779 b 492 769 475 772 483 769 z "},"̀":{"ha":307,"x_min":0,"x_max":0,"o":"m 230 766 b 253 777 239 766 246 770 b 263 800 260 784 263 791 b 253 824 263 809 260 817 l 100 970 b 77 979 93 976 85 979 b 54 969 68 979 60 976 b 44 946 47 962 44 954 b 55 922 44 937 47 929 l 207 776 b 230 766 214 770 222 766 z "},"́":{"ha":307,"x_min":0,"x_max":0,"o":"m 78 766 b 100 776 86 766 94 770 l 253 922 b 263 946 260 929 263 937 b 254 969 263 954 260 962 b 231 979 247 976 239 979 b 208 970 222 979 214 976 l 55 824 b 44 800 47 817 44 808 b 54 777 44 791 47 784 b 78 766 61 770 69 766 z "},"̂":{"ha":472,"x_min":0,"x_max":0,"o":"m 236 769 b 258 779 244 769 252 772 l 420 955 b 428 976 425 961 428 968 b 418 998 428 984 425 991 b 397 1006 412 1004 405 1006 b 375 996 389 1006 382 1003 l 236 846 l 97 996 b 75 1006 90 1003 83 1006 b 54 998 67 1006 60 1004 b 44 976 47 991 44 984 b 52 955 44 968 47 961 l 214 779 b 236 769 220 772 228 769 z "},"̌":{"ha":473,"x_min":0,"x_max":0,"o":"m 398 769 b 419 779 406 769 412 772 b 429 800 425 785 429 791 b 420 821 429 808 426 814 l 259 996 b 237 1006 252 1003 245 1006 b 214 996 228 1006 220 1003 l 52 821 b 44 800 47 814 44 808 b 54 779 44 791 47 785 b 75 769 60 772 67 769 b 98 779 83 769 91 772 l 237 930 l 375 779 b 398 769 382 772 389 769 z "},"̃":{"ha":525,"x_min":0,"x_max":0,"o":"m 75 787 b 97 797 84 788 91 791 b 105 818 102 803 105 810 l 105 822 b 123 865 105 840 111 854 b 170 882 134 876 150 882 b 214 871 186 882 201 878 b 248 844 227 863 238 854 b 366 791 285 808 324 791 b 448 824 398 791 425 802 b 481 913 470 846 481 876 b 472 935 481 922 478 928 b 450 943 466 941 459 943 b 429 935 441 943 435 941 b 420 913 422 928 420 922 b 414 882 420 903 418 892 b 394 860 410 872 403 865 b 366 852 385 855 375 852 b 351 854 361 852 355 853 b 286 892 326 861 304 873 b 239 928 273 905 257 918 b 170 944 221 939 198 944 b 78 907 132 943 102 931 b 44 821 56 885 44 857 l 44 817 b 54 796 44 808 47 802 b 75 787 60 790 66 787 z "},"̄":{"ha":490,"x_min":0,"x_max":0,"o":"m 416 814 b 437 823 424 814 431 817 b 446 844 444 829 446 836 b 437 867 446 853 444 861 b 416 876 431 873 424 876 l 75 876 b 53 867 66 876 59 873 b 44 844 47 861 44 853 b 53 823 44 836 47 829 b 75 814 59 817 66 814 z "},"̇":{"ha":150,"x_min":0,"x_max":0,"o":"m 75 783 b 97 792 83 783 91 786 b 106 814 103 798 106 805 l 106 911 b 97 933 106 920 103 927 b 75 942 91 939 83 942 b 54 933 66 942 60 939 b 44 911 47 927 44 920 l 44 814 b 54 792 44 805 47 798 b 75 783 60 786 66 783 z "},"̈":{"ha":326,"x_min":0,"x_max":0,"o":"m 251 783 b 273 792 260 783 267 786 b 281 814 279 798 281 805 l 281 911 b 273 933 281 920 279 927 b 251 942 267 939 260 942 b 229 933 242 942 235 939 b 220 911 223 927 220 920 l 220 814 b 229 792 220 805 223 798 b 251 783 235 786 242 783 z m 75 783 b 97 792 83 783 91 786 b 106 814 103 798 106 805 l 106 911 b 97 933 106 920 103 927 b 75 942 91 939 83 942 b 54 933 66 942 60 939 b 44 911 47 927 44 920 l 44 814 b 54 792 44 805 47 798 b 75 783 60 786 66 783 z "},"̊":{"ha":306,"x_min":0,"x_max":0,"o":"m 153 746 b 231 779 181 746 207 757 b 262 857 252 802 262 827 b 232 937 262 886 252 913 b 153 972 212 960 186 972 b 75 937 121 972 94 960 b 44 858 54 913 44 887 b 76 779 44 828 55 802 b 153 746 100 757 125 746 z m 153 797 b 113 814 138 797 125 802 b 95 859 101 825 95 840 b 113 903 95 877 101 892 b 153 920 125 915 138 920 b 193 903 168 920 180 914 b 211 859 205 889 211 874 b 193 814 211 842 205 827 b 153 797 180 803 168 797 z "},"̧":{"ha":302,"x_min":0,"x_max":0,"o":"m 148 -229 b 167 -228 154 -229 161 -229 b 235 -194 197 -223 220 -212 b 258 -138 251 -176 258 -157 b 237 -86 258 -119 252 -102 b 159 -56 220 -68 195 -58 b 134 -57 151 -56 142 -56 b 149 -7 144 -26 149 -9 b 133 16 149 3 143 11 l 127 16 b 104 0 117 16 109 11 b 79 -84 88 -52 80 -79 b 86 -100 79 -90 81 -95 b 102 -106 90 -104 96 -106 l 126 -104 b 162 -102 140 -102 152 -102 b 199 -113 177 -102 189 -106 b 212 -138 208 -119 212 -127 b 191 -171 212 -152 204 -163 b 148 -183 178 -179 163 -183 b 113 -175 136 -183 124 -180 b 88 -149 102 -170 94 -161 b 67 -136 83 -140 76 -136 b 58 -138 64 -136 61 -136 b 44 -159 49 -143 44 -150 b 46 -168 44 -162 45 -165 b 89 -214 56 -189 71 -204 b 148 -229 107 -224 127 -229 z "},"–":{"ha":618,"x_min":0,"x_max":0,"o":"m 541 317 b 564 328 549 317 557 321 b 574 351 570 334 574 342 b 564 375 574 360 570 368 b 541 385 557 381 549 385 l 77 385 b 54 375 68 385 60 381 b 44 351 47 368 44 360 b 54 328 44 342 47 334 b 77 317 60 321 68 317 z "},"—":{"ha":701,"x_min":0,"x_max":0,"o":"m 623 317 b 647 328 632 317 640 321 b 656 351 653 334 656 342 b 647 375 656 360 653 368 b 623 385 640 381 632 385 l 77 385 b 54 375 68 385 60 381 b 44 351 47 368 44 360 b 54 328 44 342 47 334 b 77 317 60 321 68 317 z "},"‘":{"ha":233,"x_min":0,"x_max":0,"o":"m 157 651 b 166 652 160 651 163 652 b 189 684 181 660 189 670 b 187 695 189 688 188 692 l 109 924 b 78 947 102 940 92 947 b 67 945 75 947 71 947 b 44 914 52 938 44 928 b 46 903 44 911 45 907 l 124 673 b 157 651 132 659 142 651 z "},"’":{"ha":233,"x_min":0,"x_max":0,"o":"m 77 651 b 109 673 91 651 102 659 l 187 903 b 189 914 189 907 189 911 b 166 945 189 928 182 938 b 155 947 163 947 159 947 b 124 924 142 947 132 940 l 46 695 b 44 684 45 692 44 688 b 67 652 44 670 52 660 b 77 651 71 652 73 651 z "},"‚":{"ha":233,"x_min":0,"x_max":0,"o":"m 77 -159 b 109 -137 92 -159 102 -152 l 187 93 b 189 104 188 96 189 100 b 166 135 189 118 181 128 b 155 137 163 136 159 137 b 124 114 141 137 131 130 l 46 -115 b 44 -126 45 -119 44 -123 b 66 -157 44 -140 52 -151 b 77 -159 70 -159 74 -159 z "},"“":{"ha":404,"x_min":0,"x_max":0,"o":"m 327 651 b 337 652 330 651 334 652 b 359 684 352 660 359 670 b 357 695 359 688 359 692 l 279 924 b 248 947 272 940 262 947 b 237 945 245 947 241 947 b 215 913 222 938 215 927 b 216 903 215 910 216 907 l 294 673 b 327 651 302 659 313 651 z m 157 651 b 166 652 160 651 163 652 b 189 684 182 660 189 670 b 187 695 189 688 189 692 l 109 924 b 77 947 102 940 92 947 b 66 945 74 947 70 947 b 44 914 52 938 44 928 b 46 903 44 911 45 907 l 124 673 b 157 651 132 659 142 651 z "},"”":{"ha":404,"x_min":0,"x_max":0,"o":"m 248 651 b 279 673 262 651 272 659 l 358 903 b 359 913 359 907 359 910 b 337 945 359 927 352 938 b 326 947 334 947 330 947 b 295 924 312 947 302 940 l 217 695 b 215 684 216 692 215 688 b 237 652 215 670 222 660 b 248 651 241 652 244 651 z m 77 651 b 109 673 91 651 102 659 l 187 903 b 189 914 189 907 189 911 b 167 945 189 928 182 938 b 156 947 163 947 159 947 b 124 924 142 947 132 940 l 46 695 b 44 684 45 692 44 688 b 67 652 44 670 52 660 b 77 651 71 652 73 651 z "},"„":{"ha":404,"x_min":0,"x_max":0,"o":"m 248 -159 b 279 -137 262 -159 273 -152 l 357 93 b 359 104 359 96 359 100 b 337 135 359 118 352 128 b 326 137 334 136 330 137 b 295 114 312 137 302 130 l 216 -115 b 215 -126 216 -119 215 -123 b 237 -157 215 -140 222 -151 b 248 -159 241 -159 245 -159 z m 78 -159 b 109 -137 92 -159 102 -152 l 187 93 b 189 104 189 96 189 100 b 166 135 189 118 182 128 b 155 137 163 136 159 137 b 124 114 142 137 132 130 l 46 -115 b 44 -126 45 -119 44 -123 b 67 -157 44 -140 52 -151 b 78 -159 71 -159 75 -159 z "},"†":{"ha":500,"x_min":0,"x_max":0,"o":"m 250 -239 b 274 -229 259 -239 267 -236 b 283 -206 280 -223 283 -215 l 283 625 l 425 625 b 448 635 434 625 441 629 b 456 656 454 641 456 648 b 448 678 456 665 454 672 b 425 687 441 684 434 687 l 283 687 l 283 946 b 274 970 283 955 280 963 b 250 979 267 976 259 979 b 227 970 241 979 233 976 b 217 946 220 963 217 955 l 217 687 l 75 687 b 54 678 66 687 60 684 b 44 656 47 672 44 665 b 54 635 44 648 47 641 b 75 625 60 629 66 625 l 217 625 l 217 -206 b 227 -229 217 -215 220 -223 b 250 -239 233 -236 241 -239 z "},"•":{"ha":211,"x_min":0,"x_max":0,"o":"m 106 339 b 149 357 123 339 137 345 b 167 401 161 369 167 384 l 167 455 b 149 498 167 472 161 486 b 106 517 137 511 123 517 b 62 498 89 517 74 511 b 44 455 50 486 44 472 l 44 401 b 62 357 44 384 50 369 b 106 339 74 345 89 339 z "},"‹":{"ha":336,"x_min":0,"x_max":0,"o":"m 259 55 b 275 59 264 55 270 56 b 292 87 287 66 292 76 b 288 104 292 93 291 98 l 111 428 l 288 751 b 292 768 291 757 292 762 b 275 797 292 779 287 789 b 260 801 270 800 264 801 b 230 783 248 801 237 795 l 48 452 b 44 435 45 446 44 440 l 45 428 l 44 420 b 48 404 44 415 45 410 l 230 72 b 259 55 237 60 248 55 z "},"›":{"ha":337,"x_min":0,"x_max":0,"o":"m 78 55 b 106 72 90 55 99 60 l 289 404 b 293 419 292 409 293 414 l 292 428 l 293 436 b 289 452 293 441 292 446 l 106 783 b 77 801 99 795 89 801 b 62 797 72 801 66 800 b 44 767 50 789 44 779 b 48 751 44 762 45 757 l 226 428 l 48 104 b 44 88 45 99 44 94 b 62 59 44 77 50 66 b 78 55 67 56 73 55 z "},"⁄":{"ha":618,"x_min":0,"x_max":0,"o":"m 77 -53 b 108 -33 90 -53 100 -46 l 572 966 b 574 979 574 970 574 975 b 555 1010 574 992 568 1003 b 542 1013 551 1013 547 1013 b 511 994 529 1013 519 1007 l 47 -5 b 44 -20 45 -10 44 -15 b 63 -50 44 -32 50 -42 b 77 -53 68 -52 73 -53 z "},"∕":{"ha":618,"x_min":0,"x_max":0,"o":"m 77 -53 b 108 -33 90 -53 100 -46 l 572 966 b 574 979 574 970 574 975 b 555 1010 574 992 568 1003 b 542 1013 551 1013 547 1013 b 511 994 529 1013 519 1007 l 47 -5 b 44 -20 45 -10 44 -15 b 63 -50 44 -32 50 -42 b 77 -53 68 -52 73 -53 z "},"−":{"ha":571,"x_min":0,"x_max":0,"o":"m 494 317 b 517 328 503 317 511 321 b 527 351 524 334 527 342 b 517 375 527 360 524 368 b 494 385 511 381 503 385 l 77 385 b 54 375 68 385 60 381 b 44 351 47 368 44 360 b 54 328 44 342 47 334 b 77 317 60 321 68 317 z "},"÷":{"ha":677,"x_min":0,"x_max":0,"o":"m 600 391 b 624 401 609 391 617 395 b 633 425 630 407 633 415 b 624 448 633 433 630 441 b 600 458 617 454 609 458 l 77 458 b 54 448 68 458 60 454 b 44 425 47 441 44 433 b 54 401 44 415 47 407 b 77 391 60 395 68 391 z m 338 547 b 361 556 347 547 355 550 b 370 578 367 562 370 569 l 370 679 b 361 701 370 687 367 694 b 338 709 355 707 347 709 b 317 701 330 709 323 707 b 308 679 311 694 308 687 l 308 578 b 317 556 308 569 311 562 b 338 547 323 550 330 547 z m 338 140 b 361 149 347 140 355 142 b 370 170 367 155 370 161 l 370 271 b 361 293 370 280 367 287 b 338 302 355 299 347 302 b 317 293 330 302 323 299 b 308 271 311 287 308 280 l 308 170 b 317 149 308 161 311 155 b 338 140 323 142 330 140 z "},"×":{"ha":524,"x_min":0,"x_max":0,"o":"m 448 205 b 471 215 456 205 463 209 b 480 239 477 222 480 230 b 471 262 480 248 477 255 l 307 426 l 469 588 b 478 610 475 595 478 602 b 469 632 478 618 475 625 b 448 641 463 638 455 641 b 425 632 439 641 432 638 l 264 470 l 101 633 b 77 644 94 640 86 644 b 54 633 68 644 61 640 b 44 610 47 626 44 618 b 54 587 44 602 47 594 l 217 422 l 56 260 b 47 239 50 254 47 246 b 56 218 47 231 50 224 b 77 208 62 212 70 208 b 99 217 85 208 92 211 l 260 379 l 424 215 b 448 205 431 209 439 205 z "},"≤":{"ha":661,"x_min":0,"x_max":0,"o":"m 583 47 b 607 57 592 47 600 50 b 616 80 613 63 616 71 b 607 104 616 90 613 98 b 583 113 600 110 592 113 l 92 113 b 68 104 83 113 75 110 b 58 80 62 98 58 90 b 68 57 58 71 62 63 b 92 47 75 50 83 47 z m 583 194 b 612 212 595 194 605 200 b 616 227 614 217 616 222 b 598 257 616 239 610 250 l 140 490 l 598 722 b 616 752 610 730 616 740 b 612 767 616 757 614 762 b 583 785 605 779 595 785 b 568 782 578 785 573 784 l 62 525 b 44 494 50 517 44 507 l 45 490 l 44 485 b 62 454 44 472 50 462 l 568 197 b 583 194 573 195 578 194 z "},"≥":{"ha":660,"x_min":0,"x_max":0,"o":"m 568 47 b 592 57 577 47 585 50 b 602 80 598 63 602 71 b 592 104 602 90 598 98 b 568 113 585 110 577 113 l 77 113 b 54 104 68 113 60 110 b 44 80 47 98 44 90 b 54 57 44 71 47 63 b 77 47 60 50 68 47 z m 77 194 b 92 197 82 194 87 195 l 597 454 b 616 484 610 461 616 471 l 615 490 l 616 496 b 597 525 616 508 610 517 l 92 782 b 77 785 87 784 82 785 b 47 767 65 785 55 779 b 44 752 45 762 44 757 b 62 722 44 740 50 730 l 520 490 l 62 257 b 44 227 50 250 44 239 b 47 212 44 222 45 217 b 77 194 55 200 64 194 z "}}}
